G04 #@! TF.GenerationSoftware,KiCad,Pcbnew,(6.0.0-rc1-63-g802cfc1a7d)*
G04 #@! TF.CreationDate,2022-01-16T14:43:54+09:00*
G04 #@! TF.ProjectId,BrushlessMotorDriver_DRV8311,42727573-686c-4657-9373-4d6f746f7244,rev?*
G04 #@! TF.SameCoordinates,PX7270e00PY8b3c880*
G04 #@! TF.FileFunction,Soldermask,Bot*
G04 #@! TF.FilePolarity,Negative*
%FSLAX46Y46*%
G04 Gerber Fmt 4.6, Leading zero omitted, Abs format (unit mm)*
G04 Created by KiCad (PCBNEW (6.0.0-rc1-63-g802cfc1a7d)) date 2022-01-16 14:43:54*
%MOMM*%
%LPD*%
G01*
G04 APERTURE LIST*
%ADD10R,1.700000X1.700000*%
%ADD11O,1.700000X1.700000*%
%ADD12C,0.600000*%
%ADD13C,0.900000*%
G04 APERTURE END LIST*
D10*
X1900000Y1900000D03*
D11*
X4440000Y1900000D03*
X6980000Y1900000D03*
X9520000Y1900000D03*
X12060000Y1900000D03*
X14600000Y1900000D03*
X17140000Y1900000D03*
X19680000Y1900000D03*
X22220000Y1900000D03*
X24760000Y1900000D03*
X27300000Y1900000D03*
X29840000Y1900000D03*
X32380000Y1900000D03*
X34920000Y1900000D03*
X37460000Y1900000D03*
X40000000Y1900000D03*
X6180000Y26435000D03*
X6180000Y28975000D03*
X8720000Y26435000D03*
X8720000Y28975000D03*
X11260000Y26435000D03*
X11260000Y28975000D03*
X13800000Y26435000D03*
D10*
X13800000Y28975000D03*
D11*
X22405000Y32171200D03*
D10*
X19865000Y32171200D03*
D12*
X11400000Y34200000D03*
X3400000Y33900000D03*
X25400000Y18400000D03*
X34900000Y6800000D03*
X38100000Y6600000D03*
X40029354Y6800000D03*
X28100000Y7500000D03*
X21600000Y7500000D03*
X15000000Y7500000D03*
X12600000Y10800000D03*
X17900000Y12000000D03*
X24600000Y12000000D03*
X35700000Y15600000D03*
X29000000Y15000000D03*
X29100000Y16800000D03*
X27200000Y20500000D03*
D13*
X14000000Y22300000D03*
X13100000Y22300000D03*
X13100000Y23200000D03*
X13100000Y24100000D03*
X14000000Y23200000D03*
X14000000Y24100000D03*
D12*
X19000000Y19800000D03*
X20300000Y19800000D03*
X20300000Y21100000D03*
X19000000Y21100000D03*
X19600000Y20500000D03*
M02*
