G04 #@! TF.GenerationSoftware,KiCad,Pcbnew,(6.0.0-rc1-63-g802cfc1a7d)*
G04 #@! TF.CreationDate,2022-01-16T14:43:54+09:00*
G04 #@! TF.ProjectId,BrushlessMotorDriver_DRV8311,42727573-686c-4657-9373-4d6f746f7244,rev?*
G04 #@! TF.SameCoordinates,PX7270e00PY8b3c880*
G04 #@! TF.FileFunction,Legend,Top*
G04 #@! TF.FilePolarity,Positive*
%FSLAX46Y46*%
G04 Gerber Fmt 4.6, Leading zero omitted, Abs format (unit mm)*
G04 Created by KiCad (PCBNEW (6.0.0-rc1-63-g802cfc1a7d)) date 2022-01-16 14:43:54*
%MOMM*%
%LPD*%
G01*
G04 APERTURE LIST*
%ADD10C,0.150000*%
%ADD11C,0.120000*%
G04 APERTURE END LIST*
D10*
X26014285Y30881429D02*
X26157142Y30833810D01*
X26204761Y30786191D01*
X26252380Y30690953D01*
X26252380Y30548096D01*
X26204761Y30452858D01*
X26157142Y30405239D01*
X26061904Y30357620D01*
X25680952Y30357620D01*
X25680952Y31357620D01*
X26014285Y31357620D01*
X26109523Y31310000D01*
X26157142Y31262381D01*
X26204761Y31167143D01*
X26204761Y31071905D01*
X26157142Y30976667D01*
X26109523Y30929048D01*
X26014285Y30881429D01*
X25680952Y30881429D01*
X26680952Y30357620D02*
X26680952Y31024286D01*
X26680952Y30833810D02*
X26728571Y30929048D01*
X26776190Y30976667D01*
X26871428Y31024286D01*
X26966666Y31024286D01*
X27728571Y31024286D02*
X27728571Y30357620D01*
X27300000Y31024286D02*
X27300000Y30500477D01*
X27347619Y30405239D01*
X27442857Y30357620D01*
X27585714Y30357620D01*
X27680952Y30405239D01*
X27728571Y30452858D01*
X28157142Y30405239D02*
X28252380Y30357620D01*
X28442857Y30357620D01*
X28538095Y30405239D01*
X28585714Y30500477D01*
X28585714Y30548096D01*
X28538095Y30643334D01*
X28442857Y30690953D01*
X28300000Y30690953D01*
X28204761Y30738572D01*
X28157142Y30833810D01*
X28157142Y30881429D01*
X28204761Y30976667D01*
X28300000Y31024286D01*
X28442857Y31024286D01*
X28538095Y30976667D01*
X29014285Y30357620D02*
X29014285Y31357620D01*
X29442857Y30357620D02*
X29442857Y30881429D01*
X29395238Y30976667D01*
X29300000Y31024286D01*
X29157142Y31024286D01*
X29061904Y30976667D01*
X29014285Y30929048D01*
X30061904Y30357620D02*
X29966666Y30405239D01*
X29919047Y30500477D01*
X29919047Y31357620D01*
X30823809Y30405239D02*
X30728571Y30357620D01*
X30538095Y30357620D01*
X30442857Y30405239D01*
X30395238Y30500477D01*
X30395238Y30881429D01*
X30442857Y30976667D01*
X30538095Y31024286D01*
X30728571Y31024286D01*
X30823809Y30976667D01*
X30871428Y30881429D01*
X30871428Y30786191D01*
X30395238Y30690953D01*
X31252380Y30405239D02*
X31347619Y30357620D01*
X31538095Y30357620D01*
X31633333Y30405239D01*
X31680952Y30500477D01*
X31680952Y30548096D01*
X31633333Y30643334D01*
X31538095Y30690953D01*
X31395238Y30690953D01*
X31300000Y30738572D01*
X31252380Y30833810D01*
X31252380Y30881429D01*
X31300000Y30976667D01*
X31395238Y31024286D01*
X31538095Y31024286D01*
X31633333Y30976667D01*
X32061904Y30405239D02*
X32157142Y30357620D01*
X32347619Y30357620D01*
X32442857Y30405239D01*
X32490476Y30500477D01*
X32490476Y30548096D01*
X32442857Y30643334D01*
X32347619Y30690953D01*
X32204761Y30690953D01*
X32109523Y30738572D01*
X32061904Y30833810D01*
X32061904Y30881429D01*
X32109523Y30976667D01*
X32204761Y31024286D01*
X32347619Y31024286D01*
X32442857Y30976667D01*
X32919047Y30357620D02*
X32919047Y31357620D01*
X33252380Y30643334D01*
X33585714Y31357620D01*
X33585714Y30357620D01*
X34204761Y30357620D02*
X34109523Y30405239D01*
X34061904Y30452858D01*
X34014285Y30548096D01*
X34014285Y30833810D01*
X34061904Y30929048D01*
X34109523Y30976667D01*
X34204761Y31024286D01*
X34347619Y31024286D01*
X34442857Y30976667D01*
X34490476Y30929048D01*
X34538095Y30833810D01*
X34538095Y30548096D01*
X34490476Y30452858D01*
X34442857Y30405239D01*
X34347619Y30357620D01*
X34204761Y30357620D01*
X34823809Y31024286D02*
X35204761Y31024286D01*
X34966666Y31357620D02*
X34966666Y30500477D01*
X35014285Y30405239D01*
X35109523Y30357620D01*
X35204761Y30357620D01*
X35680952Y30357620D02*
X35585714Y30405239D01*
X35538095Y30452858D01*
X35490476Y30548096D01*
X35490476Y30833810D01*
X35538095Y30929048D01*
X35585714Y30976667D01*
X35680952Y31024286D01*
X35823809Y31024286D01*
X35919047Y30976667D01*
X35966666Y30929048D01*
X36014285Y30833810D01*
X36014285Y30548096D01*
X35966666Y30452858D01*
X35919047Y30405239D01*
X35823809Y30357620D01*
X35680952Y30357620D01*
X36442857Y30357620D02*
X36442857Y31024286D01*
X36442857Y30833810D02*
X36490476Y30929048D01*
X36538095Y30976667D01*
X36633333Y31024286D01*
X36728571Y31024286D01*
X37061904Y30357620D02*
X37061904Y31357620D01*
X37300000Y31357620D01*
X37442857Y31310000D01*
X37538095Y31214762D01*
X37585714Y31119524D01*
X37633333Y30929048D01*
X37633333Y30786191D01*
X37585714Y30595715D01*
X37538095Y30500477D01*
X37442857Y30405239D01*
X37300000Y30357620D01*
X37061904Y30357620D01*
X38061904Y30357620D02*
X38061904Y31024286D01*
X38061904Y30833810D02*
X38109523Y30929048D01*
X38157142Y30976667D01*
X38252380Y31024286D01*
X38347619Y31024286D01*
X38680952Y30357620D02*
X38680952Y31024286D01*
X38680952Y31357620D02*
X38633333Y31310000D01*
X38680952Y31262381D01*
X38728571Y31310000D01*
X38680952Y31357620D01*
X38680952Y31262381D01*
X39061904Y31024286D02*
X39300000Y30357620D01*
X39538095Y31024286D01*
X40300000Y30405239D02*
X40204761Y30357620D01*
X40014285Y30357620D01*
X39919047Y30405239D01*
X39871428Y30500477D01*
X39871428Y30881429D01*
X39919047Y30976667D01*
X40014285Y31024286D01*
X40204761Y31024286D01*
X40300000Y30976667D01*
X40347619Y30881429D01*
X40347619Y30786191D01*
X39871428Y30690953D01*
X40776190Y30357620D02*
X40776190Y31024286D01*
X40776190Y30833810D02*
X40823809Y30929048D01*
X40871428Y30976667D01*
X40966666Y31024286D01*
X41061904Y31024286D01*
X27490476Y28747620D02*
X27490476Y29747620D01*
X27728571Y29747620D01*
X27871428Y29700000D01*
X27966666Y29604762D01*
X28014285Y29509524D01*
X28061904Y29319048D01*
X28061904Y29176191D01*
X28014285Y28985715D01*
X27966666Y28890477D01*
X27871428Y28795239D01*
X27728571Y28747620D01*
X27490476Y28747620D01*
X29061904Y28747620D02*
X28728571Y29223810D01*
X28490476Y28747620D02*
X28490476Y29747620D01*
X28871428Y29747620D01*
X28966666Y29700000D01*
X29014285Y29652381D01*
X29061904Y29557143D01*
X29061904Y29414286D01*
X29014285Y29319048D01*
X28966666Y29271429D01*
X28871428Y29223810D01*
X28490476Y29223810D01*
X29347619Y29747620D02*
X29680952Y28747620D01*
X30014285Y29747620D01*
X30490476Y29319048D02*
X30395238Y29366667D01*
X30347619Y29414286D01*
X30300000Y29509524D01*
X30300000Y29557143D01*
X30347619Y29652381D01*
X30395238Y29700000D01*
X30490476Y29747620D01*
X30680952Y29747620D01*
X30776190Y29700000D01*
X30823809Y29652381D01*
X30871428Y29557143D01*
X30871428Y29509524D01*
X30823809Y29414286D01*
X30776190Y29366667D01*
X30680952Y29319048D01*
X30490476Y29319048D01*
X30395238Y29271429D01*
X30347619Y29223810D01*
X30300000Y29128572D01*
X30300000Y28938096D01*
X30347619Y28842858D01*
X30395238Y28795239D01*
X30490476Y28747620D01*
X30680952Y28747620D01*
X30776190Y28795239D01*
X30823809Y28842858D01*
X30871428Y28938096D01*
X30871428Y29128572D01*
X30823809Y29223810D01*
X30776190Y29271429D01*
X30680952Y29319048D01*
X31204761Y29747620D02*
X31823809Y29747620D01*
X31490476Y29366667D01*
X31633333Y29366667D01*
X31728571Y29319048D01*
X31776190Y29271429D01*
X31823809Y29176191D01*
X31823809Y28938096D01*
X31776190Y28842858D01*
X31728571Y28795239D01*
X31633333Y28747620D01*
X31347619Y28747620D01*
X31252380Y28795239D01*
X31204761Y28842858D01*
X32776190Y28747620D02*
X32204761Y28747620D01*
X32490476Y28747620D02*
X32490476Y29747620D01*
X32395238Y29604762D01*
X32300000Y29509524D01*
X32204761Y29461905D01*
X33728571Y28747620D02*
X33157142Y28747620D01*
X33442857Y28747620D02*
X33442857Y29747620D01*
X33347619Y29604762D01*
X33252380Y29509524D01*
X33157142Y29461905D01*
X34157142Y28747620D02*
X34157142Y29747620D01*
X34157142Y29271429D02*
X34728571Y29271429D01*
X34728571Y28747620D02*
X34728571Y29747620D01*
X35871428Y29414286D02*
X36109523Y28747620D01*
X36347619Y29414286D01*
X36728571Y28842858D02*
X36776190Y28795239D01*
X36728571Y28747620D01*
X36680952Y28795239D01*
X36728571Y28842858D01*
X36728571Y28747620D01*
X37395238Y29747620D02*
X37490476Y29747620D01*
X37585714Y29700000D01*
X37633333Y29652381D01*
X37680952Y29557143D01*
X37728571Y29366667D01*
X37728571Y29128572D01*
X37680952Y28938096D01*
X37633333Y28842858D01*
X37585714Y28795239D01*
X37490476Y28747620D01*
X37395238Y28747620D01*
X37300000Y28795239D01*
X37252380Y28842858D01*
X37204761Y28938096D01*
X37157142Y29128572D01*
X37157142Y29366667D01*
X37204761Y29557143D01*
X37252380Y29652381D01*
X37300000Y29700000D01*
X37395238Y29747620D01*
X38157142Y28842858D02*
X38204761Y28795239D01*
X38157142Y28747620D01*
X38109523Y28795239D01*
X38157142Y28842858D01*
X38157142Y28747620D01*
X39157142Y28747620D02*
X38585714Y28747620D01*
X38871428Y28747620D02*
X38871428Y29747620D01*
X38776190Y29604762D01*
X38680952Y29509524D01*
X38585714Y29461905D01*
X30800000Y27137620D02*
X30800000Y28137620D01*
X30800000Y27756667D02*
X30895238Y27804286D01*
X31085714Y27804286D01*
X31180952Y27756667D01*
X31228571Y27709048D01*
X31276190Y27613810D01*
X31276190Y27328096D01*
X31228571Y27232858D01*
X31180952Y27185239D01*
X31085714Y27137620D01*
X30895238Y27137620D01*
X30800000Y27185239D01*
X31609523Y27804286D02*
X31847619Y27137620D01*
X32085714Y27804286D02*
X31847619Y27137620D01*
X31752380Y26899524D01*
X31704761Y26851905D01*
X31609523Y26804286D01*
X33228571Y27137620D02*
X33228571Y28137620D01*
X33800000Y27137620D01*
X33800000Y28137620D01*
X34419047Y27137620D02*
X34323809Y27185239D01*
X34276190Y27232858D01*
X34228571Y27328096D01*
X34228571Y27613810D01*
X34276190Y27709048D01*
X34323809Y27756667D01*
X34419047Y27804286D01*
X34561904Y27804286D01*
X34657142Y27756667D01*
X34704761Y27709048D01*
X34752380Y27613810D01*
X34752380Y27328096D01*
X34704761Y27232858D01*
X34657142Y27185239D01*
X34561904Y27137620D01*
X34419047Y27137620D01*
X35180952Y27137620D02*
X35180952Y27804286D01*
X35180952Y27613810D02*
X35228571Y27709048D01*
X35276190Y27756667D01*
X35371428Y27804286D01*
X35466666Y27804286D01*
X35800000Y27137620D02*
X35800000Y27804286D01*
X35800000Y28137620D02*
X35752380Y28090000D01*
X35800000Y28042381D01*
X35847619Y28090000D01*
X35800000Y28137620D01*
X35800000Y28042381D01*
X16161904Y23300000D02*
X15361904Y23300000D01*
X15361904Y23604762D01*
X15400000Y23680953D01*
X15438095Y23719048D01*
X15514285Y23757143D01*
X15628571Y23757143D01*
X15704761Y23719048D01*
X15742857Y23680953D01*
X15780952Y23604762D01*
X15780952Y23300000D01*
X16161904Y24100000D02*
X15361904Y24100000D01*
X16161904Y24442858D02*
X15742857Y24442858D01*
X15666666Y24404762D01*
X15628571Y24328572D01*
X15628571Y24214286D01*
X15666666Y24138096D01*
X15704761Y24100000D01*
X16161904Y25166667D02*
X15742857Y25166667D01*
X15666666Y25128572D01*
X15628571Y25052381D01*
X15628571Y24900000D01*
X15666666Y24823810D01*
X16123809Y25166667D02*
X16161904Y25090477D01*
X16161904Y24900000D01*
X16123809Y24823810D01*
X16047619Y24785715D01*
X15971428Y24785715D01*
X15895238Y24823810D01*
X15857142Y24900000D01*
X15857142Y25090477D01*
X15819047Y25166667D01*
X16123809Y25509524D02*
X16161904Y25585715D01*
X16161904Y25738096D01*
X16123809Y25814286D01*
X16047619Y25852381D01*
X16009523Y25852381D01*
X15933333Y25814286D01*
X15895238Y25738096D01*
X15895238Y25623810D01*
X15857142Y25547620D01*
X15780952Y25509524D01*
X15742857Y25509524D01*
X15666666Y25547620D01*
X15628571Y25623810D01*
X15628571Y25738096D01*
X15666666Y25814286D01*
X16123809Y26500000D02*
X16161904Y26423810D01*
X16161904Y26271429D01*
X16123809Y26195239D01*
X16047619Y26157143D01*
X15742857Y26157143D01*
X15666666Y26195239D01*
X15628571Y26271429D01*
X15628571Y26423810D01*
X15666666Y26500000D01*
X15742857Y26538096D01*
X15819047Y26538096D01*
X15895238Y26157143D01*
X15742857Y27147620D02*
X15780952Y27261905D01*
X15819047Y27300000D01*
X15895238Y27338096D01*
X16009523Y27338096D01*
X16085714Y27300000D01*
X16123809Y27261905D01*
X16161904Y27185715D01*
X16161904Y26880953D01*
X15361904Y26880953D01*
X15361904Y27147620D01*
X15400000Y27223810D01*
X15438095Y27261905D01*
X15514285Y27300000D01*
X15590476Y27300000D01*
X15666666Y27261905D01*
X15704761Y27223810D01*
X15742857Y27147620D01*
X15742857Y26880953D01*
X16161904Y28200000D02*
X15361904Y28200000D01*
X15361904Y28504762D01*
X15400000Y28580953D01*
X15438095Y28619048D01*
X15514285Y28657143D01*
X15628571Y28657143D01*
X15704761Y28619048D01*
X15742857Y28580953D01*
X15780952Y28504762D01*
X15780952Y28200000D01*
X16161904Y29000000D02*
X15361904Y29000000D01*
X16161904Y29342858D02*
X15742857Y29342858D01*
X15666666Y29304762D01*
X15628571Y29228572D01*
X15628571Y29114286D01*
X15666666Y29038096D01*
X15704761Y29000000D01*
X16161904Y30066667D02*
X15742857Y30066667D01*
X15666666Y30028572D01*
X15628571Y29952381D01*
X15628571Y29800000D01*
X15666666Y29723810D01*
X16123809Y30066667D02*
X16161904Y29990477D01*
X16161904Y29800000D01*
X16123809Y29723810D01*
X16047619Y29685715D01*
X15971428Y29685715D01*
X15895238Y29723810D01*
X15857142Y29800000D01*
X15857142Y29990477D01*
X15819047Y30066667D01*
X16123809Y30409524D02*
X16161904Y30485715D01*
X16161904Y30638096D01*
X16123809Y30714286D01*
X16047619Y30752381D01*
X16009523Y30752381D01*
X15933333Y30714286D01*
X15895238Y30638096D01*
X15895238Y30523810D01*
X15857142Y30447620D01*
X15780952Y30409524D01*
X15742857Y30409524D01*
X15666666Y30447620D01*
X15628571Y30523810D01*
X15628571Y30638096D01*
X15666666Y30714286D01*
X16123809Y31400000D02*
X16161904Y31323810D01*
X16161904Y31171429D01*
X16123809Y31095239D01*
X16047619Y31057143D01*
X15742857Y31057143D01*
X15666666Y31095239D01*
X15628571Y31171429D01*
X15628571Y31323810D01*
X15666666Y31400000D01*
X15742857Y31438096D01*
X15819047Y31438096D01*
X15895238Y31057143D01*
X16085714Y32238096D02*
X16123809Y32200000D01*
X16161904Y32085715D01*
X16161904Y32009524D01*
X16123809Y31895239D01*
X16047619Y31819048D01*
X15971428Y31780953D01*
X15819047Y31742858D01*
X15704761Y31742858D01*
X15552380Y31780953D01*
X15476190Y31819048D01*
X15400000Y31895239D01*
X15361904Y32009524D01*
X15361904Y32085715D01*
X15400000Y32200000D01*
X15438095Y32238096D01*
X10357142Y30538096D02*
X10357142Y31338096D01*
X10661904Y31338096D01*
X10738095Y31300000D01*
X10776190Y31261905D01*
X10814285Y31185715D01*
X10814285Y31071429D01*
X10776190Y30995239D01*
X10738095Y30957143D01*
X10661904Y30919048D01*
X10357142Y30919048D01*
X11157142Y30538096D02*
X11157142Y31338096D01*
X11500000Y30538096D02*
X11500000Y30957143D01*
X11461904Y31033334D01*
X11385714Y31071429D01*
X11271428Y31071429D01*
X11195238Y31033334D01*
X11157142Y30995239D01*
X12223809Y30538096D02*
X12223809Y30957143D01*
X12185714Y31033334D01*
X12109523Y31071429D01*
X11957142Y31071429D01*
X11880952Y31033334D01*
X12223809Y30576191D02*
X12147619Y30538096D01*
X11957142Y30538096D01*
X11880952Y30576191D01*
X11842857Y30652381D01*
X11842857Y30728572D01*
X11880952Y30804762D01*
X11957142Y30842858D01*
X12147619Y30842858D01*
X12223809Y30880953D01*
X12566666Y30576191D02*
X12642857Y30538096D01*
X12795238Y30538096D01*
X12871428Y30576191D01*
X12909523Y30652381D01*
X12909523Y30690477D01*
X12871428Y30766667D01*
X12795238Y30804762D01*
X12680952Y30804762D01*
X12604761Y30842858D01*
X12566666Y30919048D01*
X12566666Y30957143D01*
X12604761Y31033334D01*
X12680952Y31071429D01*
X12795238Y31071429D01*
X12871428Y31033334D01*
X13557142Y30576191D02*
X13480952Y30538096D01*
X13328571Y30538096D01*
X13252380Y30576191D01*
X13214285Y30652381D01*
X13214285Y30957143D01*
X13252380Y31033334D01*
X13328571Y31071429D01*
X13480952Y31071429D01*
X13557142Y31033334D01*
X13595238Y30957143D01*
X13595238Y30880953D01*
X13214285Y30804762D01*
X13900000Y30766667D02*
X14280952Y30766667D01*
X13823809Y30538096D02*
X14090476Y31338096D01*
X14357142Y30538096D01*
X9047619Y31238096D02*
X8666666Y31238096D01*
X8628571Y30857143D01*
X8666666Y30895239D01*
X8742857Y30933334D01*
X8933333Y30933334D01*
X9009523Y30895239D01*
X9047619Y30857143D01*
X9085714Y30780953D01*
X9085714Y30590477D01*
X9047619Y30514286D01*
X9009523Y30476191D01*
X8933333Y30438096D01*
X8742857Y30438096D01*
X8666666Y30476191D01*
X8628571Y30514286D01*
X9314285Y31238096D02*
X9580952Y30438096D01*
X9847619Y31238096D01*
X10790476Y24900000D02*
X10714285Y24938096D01*
X10600000Y24938096D01*
X10485714Y24900000D01*
X10409523Y24823810D01*
X10371428Y24747620D01*
X10333333Y24595239D01*
X10333333Y24480953D01*
X10371428Y24328572D01*
X10409523Y24252381D01*
X10485714Y24176191D01*
X10600000Y24138096D01*
X10676190Y24138096D01*
X10790476Y24176191D01*
X10828571Y24214286D01*
X10828571Y24480953D01*
X10676190Y24480953D01*
X11171428Y24138096D02*
X11171428Y24938096D01*
X11628571Y24138096D01*
X11628571Y24938096D01*
X12009523Y24138096D02*
X12009523Y24938096D01*
X12200000Y24938096D01*
X12314285Y24900000D01*
X12390476Y24823810D01*
X12428571Y24747620D01*
X12466666Y24595239D01*
X12466666Y24480953D01*
X12428571Y24328572D01*
X12390476Y24252381D01*
X12314285Y24176191D01*
X12200000Y24138096D01*
X12009523Y24138096D01*
X6690476Y24138096D02*
X6690476Y24938096D01*
X6690476Y24557143D02*
X7147619Y24557143D01*
X7147619Y24138096D02*
X7147619Y24938096D01*
X7871428Y24138096D02*
X7871428Y24557143D01*
X7833333Y24633334D01*
X7757142Y24671429D01*
X7604761Y24671429D01*
X7528571Y24633334D01*
X7871428Y24176191D02*
X7795238Y24138096D01*
X7604761Y24138096D01*
X7528571Y24176191D01*
X7490476Y24252381D01*
X7490476Y24328572D01*
X7528571Y24404762D01*
X7604761Y24442858D01*
X7795238Y24442858D01*
X7871428Y24480953D01*
X8366666Y24138096D02*
X8290476Y24176191D01*
X8252380Y24252381D01*
X8252380Y24938096D01*
X8785714Y24138096D02*
X8709523Y24176191D01*
X8671428Y24252381D01*
X8671428Y24938096D01*
X9547619Y24214286D02*
X9509523Y24176191D01*
X9395238Y24138096D01*
X9319047Y24138096D01*
X9204761Y24176191D01*
X9128571Y24252381D01*
X9090476Y24328572D01*
X9052380Y24480953D01*
X9052380Y24595239D01*
X9090476Y24747620D01*
X9128571Y24823810D01*
X9204761Y24900000D01*
X9319047Y24938096D01*
X9395238Y24938096D01*
X9509523Y24900000D01*
X9547619Y24861905D01*
X1790476Y28538096D02*
X1790476Y29338096D01*
X1790476Y28957143D02*
X2247619Y28957143D01*
X2247619Y28538096D02*
X2247619Y29338096D01*
X2971428Y28538096D02*
X2971428Y28957143D01*
X2933333Y29033334D01*
X2857142Y29071429D01*
X2704761Y29071429D01*
X2628571Y29033334D01*
X2971428Y28576191D02*
X2895238Y28538096D01*
X2704761Y28538096D01*
X2628571Y28576191D01*
X2590476Y28652381D01*
X2590476Y28728572D01*
X2628571Y28804762D01*
X2704761Y28842858D01*
X2895238Y28842858D01*
X2971428Y28880953D01*
X3466666Y28538096D02*
X3390476Y28576191D01*
X3352380Y28652381D01*
X3352380Y29338096D01*
X3885714Y28538096D02*
X3809523Y28576191D01*
X3771428Y28652381D01*
X3771428Y29338096D01*
X4457142Y28957143D02*
X4571428Y28919048D01*
X4609523Y28880953D01*
X4647619Y28804762D01*
X4647619Y28690477D01*
X4609523Y28614286D01*
X4571428Y28576191D01*
X4495238Y28538096D01*
X4190476Y28538096D01*
X4190476Y29338096D01*
X4457142Y29338096D01*
X4533333Y29300000D01*
X4571428Y29261905D01*
X4609523Y29185715D01*
X4609523Y29109524D01*
X4571428Y29033334D01*
X4533333Y28995239D01*
X4457142Y28957143D01*
X4190476Y28957143D01*
X1847619Y26038096D02*
X1847619Y26838096D01*
X1847619Y26457143D02*
X2304761Y26457143D01*
X2304761Y26038096D02*
X2304761Y26838096D01*
X3028571Y26038096D02*
X3028571Y26457143D01*
X2990476Y26533334D01*
X2914285Y26571429D01*
X2761904Y26571429D01*
X2685714Y26533334D01*
X3028571Y26076191D02*
X2952380Y26038096D01*
X2761904Y26038096D01*
X2685714Y26076191D01*
X2647619Y26152381D01*
X2647619Y26228572D01*
X2685714Y26304762D01*
X2761904Y26342858D01*
X2952380Y26342858D01*
X3028571Y26380953D01*
X3523809Y26038096D02*
X3447619Y26076191D01*
X3409523Y26152381D01*
X3409523Y26838096D01*
X3942857Y26038096D02*
X3866666Y26076191D01*
X3828571Y26152381D01*
X3828571Y26838096D01*
X4209523Y26266667D02*
X4590476Y26266667D01*
X4133333Y26038096D02*
X4400000Y26838096D01*
X4666666Y26038096D01*
X21947619Y34647620D02*
X21471428Y34647620D01*
X21423809Y34171429D01*
X21471428Y34219048D01*
X21566666Y34266667D01*
X21804761Y34266667D01*
X21900000Y34219048D01*
X21947619Y34171429D01*
X21995238Y34076191D01*
X21995238Y33838096D01*
X21947619Y33742858D01*
X21900000Y33695239D01*
X21804761Y33647620D01*
X21566666Y33647620D01*
X21471428Y33695239D01*
X21423809Y33742858D01*
X22423809Y33742858D02*
X22471428Y33695239D01*
X22423809Y33647620D01*
X22376190Y33695239D01*
X22423809Y33742858D01*
X22423809Y33647620D01*
X22852380Y34552381D02*
X22900000Y34600000D01*
X22995238Y34647620D01*
X23233333Y34647620D01*
X23328571Y34600000D01*
X23376190Y34552381D01*
X23423809Y34457143D01*
X23423809Y34361905D01*
X23376190Y34219048D01*
X22804761Y33647620D01*
X23423809Y33647620D01*
X24328571Y34647620D02*
X23852380Y34647620D01*
X23804761Y34171429D01*
X23852380Y34219048D01*
X23947619Y34266667D01*
X24185714Y34266667D01*
X24280952Y34219048D01*
X24328571Y34171429D01*
X24376190Y34076191D01*
X24376190Y33838096D01*
X24328571Y33742858D01*
X24280952Y33695239D01*
X24185714Y33647620D01*
X23947619Y33647620D01*
X23852380Y33695239D01*
X23804761Y33742858D01*
X24804761Y34028572D02*
X25566666Y34028572D01*
X25995238Y34552381D02*
X26042857Y34600000D01*
X26138095Y34647620D01*
X26376190Y34647620D01*
X26471428Y34600000D01*
X26519047Y34552381D01*
X26566666Y34457143D01*
X26566666Y34361905D01*
X26519047Y34219048D01*
X25947619Y33647620D01*
X26566666Y33647620D01*
X27185714Y34647620D02*
X27280952Y34647620D01*
X27376190Y34600000D01*
X27423809Y34552381D01*
X27471428Y34457143D01*
X27519047Y34266667D01*
X27519047Y34028572D01*
X27471428Y33838096D01*
X27423809Y33742858D01*
X27376190Y33695239D01*
X27280952Y33647620D01*
X27185714Y33647620D01*
X27090476Y33695239D01*
X27042857Y33742858D01*
X26995238Y33838096D01*
X26947619Y34028572D01*
X26947619Y34266667D01*
X26995238Y34457143D01*
X27042857Y34552381D01*
X27090476Y34600000D01*
X27185714Y34647620D01*
X27804761Y34647620D02*
X28138095Y33647620D01*
X28471428Y34647620D01*
X18338095Y34600000D02*
X18242857Y34647620D01*
X18100000Y34647620D01*
X17957142Y34600000D01*
X17861904Y34504762D01*
X17814285Y34409524D01*
X17766666Y34219048D01*
X17766666Y34076191D01*
X17814285Y33885715D01*
X17861904Y33790477D01*
X17957142Y33695239D01*
X18100000Y33647620D01*
X18195238Y33647620D01*
X18338095Y33695239D01*
X18385714Y33742858D01*
X18385714Y34076191D01*
X18195238Y34076191D01*
X18814285Y33647620D02*
X18814285Y34647620D01*
X19385714Y33647620D01*
X19385714Y34647620D01*
X19861904Y33647620D02*
X19861904Y34647620D01*
X20100000Y34647620D01*
X20242857Y34600000D01*
X20338095Y34504762D01*
X20385714Y34409524D01*
X20433333Y34219048D01*
X20433333Y34076191D01*
X20385714Y33885715D01*
X20338095Y33790477D01*
X20242857Y33695239D01*
X20100000Y33647620D01*
X19861904Y33647620D01*
X41423809Y3409524D02*
X41461904Y3523810D01*
X41461904Y3714286D01*
X41423809Y3790477D01*
X41385714Y3828572D01*
X41309523Y3866667D01*
X41233333Y3866667D01*
X41157142Y3828572D01*
X41119047Y3790477D01*
X41080952Y3714286D01*
X41042857Y3561905D01*
X41004761Y3485715D01*
X40966666Y3447620D01*
X40890476Y3409524D01*
X40814285Y3409524D01*
X40738095Y3447620D01*
X40700000Y3485715D01*
X40661904Y3561905D01*
X40661904Y3752381D01*
X40700000Y3866667D01*
X40661904Y4361905D02*
X40661904Y4514286D01*
X40700000Y4590477D01*
X40776190Y4666667D01*
X40928571Y4704762D01*
X41195238Y4704762D01*
X41347619Y4666667D01*
X41423809Y4590477D01*
X41461904Y4514286D01*
X41461904Y4361905D01*
X41423809Y4285715D01*
X41347619Y4209524D01*
X41195238Y4171429D01*
X40928571Y4171429D01*
X40776190Y4209524D01*
X40700000Y4285715D01*
X40661904Y4361905D01*
X41233333Y5009524D02*
X41233333Y5390477D01*
X41461904Y4933334D02*
X40661904Y5200000D01*
X41461904Y5466667D01*
X38923809Y3352381D02*
X38961904Y3466667D01*
X38961904Y3657143D01*
X38923809Y3733334D01*
X38885714Y3771429D01*
X38809523Y3809524D01*
X38733333Y3809524D01*
X38657142Y3771429D01*
X38619047Y3733334D01*
X38580952Y3657143D01*
X38542857Y3504762D01*
X38504761Y3428572D01*
X38466666Y3390477D01*
X38390476Y3352381D01*
X38314285Y3352381D01*
X38238095Y3390477D01*
X38200000Y3428572D01*
X38161904Y3504762D01*
X38161904Y3695239D01*
X38200000Y3809524D01*
X38161904Y4304762D02*
X38161904Y4457143D01*
X38200000Y4533334D01*
X38276190Y4609524D01*
X38428571Y4647620D01*
X38695238Y4647620D01*
X38847619Y4609524D01*
X38923809Y4533334D01*
X38961904Y4457143D01*
X38961904Y4304762D01*
X38923809Y4228572D01*
X38847619Y4152381D01*
X38695238Y4114286D01*
X38428571Y4114286D01*
X38276190Y4152381D01*
X38200000Y4228572D01*
X38161904Y4304762D01*
X38542857Y5257143D02*
X38580952Y5371429D01*
X38619047Y5409524D01*
X38695238Y5447620D01*
X38809523Y5447620D01*
X38885714Y5409524D01*
X38923809Y5371429D01*
X38961904Y5295239D01*
X38961904Y4990477D01*
X38161904Y4990477D01*
X38161904Y5257143D01*
X38200000Y5333334D01*
X38238095Y5371429D01*
X38314285Y5409524D01*
X38390476Y5409524D01*
X38466666Y5371429D01*
X38504761Y5333334D01*
X38542857Y5257143D01*
X38542857Y4990477D01*
X36323809Y3352381D02*
X36361904Y3466667D01*
X36361904Y3657143D01*
X36323809Y3733334D01*
X36285714Y3771429D01*
X36209523Y3809524D01*
X36133333Y3809524D01*
X36057142Y3771429D01*
X36019047Y3733334D01*
X35980952Y3657143D01*
X35942857Y3504762D01*
X35904761Y3428572D01*
X35866666Y3390477D01*
X35790476Y3352381D01*
X35714285Y3352381D01*
X35638095Y3390477D01*
X35600000Y3428572D01*
X35561904Y3504762D01*
X35561904Y3695239D01*
X35600000Y3809524D01*
X35561904Y4304762D02*
X35561904Y4457143D01*
X35600000Y4533334D01*
X35676190Y4609524D01*
X35828571Y4647620D01*
X36095238Y4647620D01*
X36247619Y4609524D01*
X36323809Y4533334D01*
X36361904Y4457143D01*
X36361904Y4304762D01*
X36323809Y4228572D01*
X36247619Y4152381D01*
X36095238Y4114286D01*
X35828571Y4114286D01*
X35676190Y4152381D01*
X35600000Y4228572D01*
X35561904Y4304762D01*
X36285714Y5447620D02*
X36323809Y5409524D01*
X36361904Y5295239D01*
X36361904Y5219048D01*
X36323809Y5104762D01*
X36247619Y5028572D01*
X36171428Y4990477D01*
X36019047Y4952381D01*
X35904761Y4952381D01*
X35752380Y4990477D01*
X35676190Y5028572D01*
X35600000Y5104762D01*
X35561904Y5219048D01*
X35561904Y5295239D01*
X35600000Y5409524D01*
X35638095Y5447620D01*
X32128571Y3395239D02*
X32661904Y3395239D01*
X32204761Y3395239D02*
X32166666Y3433334D01*
X32128571Y3509524D01*
X32128571Y3623810D01*
X32166666Y3700000D01*
X32242857Y3738096D01*
X32661904Y3738096D01*
X32242857Y4385715D02*
X32242857Y4119048D01*
X32661904Y4119048D02*
X31861904Y4119048D01*
X31861904Y4500000D01*
X32433333Y4766667D02*
X32433333Y5147620D01*
X32661904Y4690477D02*
X31861904Y4957143D01*
X32661904Y5223810D01*
X31861904Y5490477D02*
X32509523Y5490477D01*
X32585714Y5528572D01*
X32623809Y5566667D01*
X32661904Y5642858D01*
X32661904Y5795239D01*
X32623809Y5871429D01*
X32585714Y5909524D01*
X32509523Y5947620D01*
X31861904Y5947620D01*
X32661904Y6709524D02*
X32661904Y6328572D01*
X31861904Y6328572D01*
X31861904Y6861905D02*
X31861904Y7319048D01*
X32661904Y7090477D02*
X31861904Y7090477D01*
X29628571Y3400000D02*
X30161904Y3400000D01*
X29704761Y3400000D02*
X29666666Y3438096D01*
X29628571Y3514286D01*
X29628571Y3628572D01*
X29666666Y3704762D01*
X29742857Y3742858D01*
X30161904Y3742858D01*
X30123809Y4085715D02*
X30161904Y4200000D01*
X30161904Y4390477D01*
X30123809Y4466667D01*
X30085714Y4504762D01*
X30009523Y4542858D01*
X29933333Y4542858D01*
X29857142Y4504762D01*
X29819047Y4466667D01*
X29780952Y4390477D01*
X29742857Y4238096D01*
X29704761Y4161905D01*
X29666666Y4123810D01*
X29590476Y4085715D01*
X29514285Y4085715D01*
X29438095Y4123810D01*
X29400000Y4161905D01*
X29361904Y4238096D01*
X29361904Y4428572D01*
X29400000Y4542858D01*
X30161904Y5266667D02*
X30161904Y4885715D01*
X29361904Y4885715D01*
X29742857Y5533334D02*
X29742857Y5800000D01*
X30161904Y5914286D02*
X30161904Y5533334D01*
X29361904Y5533334D01*
X29361904Y5914286D01*
X29742857Y6257143D02*
X29742857Y6523810D01*
X30161904Y6638096D02*
X30161904Y6257143D01*
X29361904Y6257143D01*
X29361904Y6638096D01*
X30161904Y6980953D02*
X29361904Y6980953D01*
X29361904Y7285715D01*
X29400000Y7361905D01*
X29438095Y7400000D01*
X29514285Y7438096D01*
X29628571Y7438096D01*
X29704761Y7400000D01*
X29742857Y7361905D01*
X29780952Y7285715D01*
X29780952Y6980953D01*
X19261904Y3419048D02*
X19261904Y3914286D01*
X19566666Y3647620D01*
X19566666Y3761905D01*
X19604761Y3838096D01*
X19642857Y3876191D01*
X19719047Y3914286D01*
X19909523Y3914286D01*
X19985714Y3876191D01*
X20023809Y3838096D01*
X20061904Y3761905D01*
X20061904Y3533334D01*
X20023809Y3457143D01*
X19985714Y3419048D01*
X19985714Y4257143D02*
X20023809Y4295239D01*
X20061904Y4257143D01*
X20023809Y4219048D01*
X19985714Y4257143D01*
X20061904Y4257143D01*
X19261904Y4561905D02*
X19261904Y5057143D01*
X19566666Y4790477D01*
X19566666Y4904762D01*
X19604761Y4980953D01*
X19642857Y5019048D01*
X19719047Y5057143D01*
X19909523Y5057143D01*
X19985714Y5019048D01*
X20023809Y4980953D01*
X20061904Y4904762D01*
X20061904Y4676191D01*
X20023809Y4600000D01*
X19985714Y4561905D01*
X19261904Y5285715D02*
X20061904Y5552381D01*
X19261904Y5819048D01*
X16800000Y3890477D02*
X16761904Y3814286D01*
X16761904Y3700000D01*
X16800000Y3585715D01*
X16876190Y3509524D01*
X16952380Y3471429D01*
X17104761Y3433334D01*
X17219047Y3433334D01*
X17371428Y3471429D01*
X17447619Y3509524D01*
X17523809Y3585715D01*
X17561904Y3700000D01*
X17561904Y3776191D01*
X17523809Y3890477D01*
X17485714Y3928572D01*
X17219047Y3928572D01*
X17219047Y3776191D01*
X17561904Y4271429D02*
X16761904Y4271429D01*
X17561904Y4728572D01*
X16761904Y4728572D01*
X17561904Y5109524D02*
X16761904Y5109524D01*
X16761904Y5300000D01*
X16800000Y5414286D01*
X16876190Y5490477D01*
X16952380Y5528572D01*
X17104761Y5566667D01*
X17219047Y5566667D01*
X17371428Y5528572D01*
X17447619Y5490477D01*
X17523809Y5414286D01*
X17561904Y5300000D01*
X17561904Y5109524D01*
X27661904Y3457143D02*
X26861904Y3457143D01*
X27661904Y3838096D02*
X26861904Y3838096D01*
X27661904Y4295239D01*
X26861904Y4295239D01*
X27661904Y5057143D02*
X27661904Y4676191D01*
X26861904Y4676191D01*
X27585714Y5780953D02*
X27623809Y5742858D01*
X27661904Y5628572D01*
X27661904Y5552381D01*
X27623809Y5438096D01*
X27547619Y5361905D01*
X27471428Y5323810D01*
X27319047Y5285715D01*
X27204761Y5285715D01*
X27052380Y5323810D01*
X26976190Y5361905D01*
X26900000Y5438096D01*
X26861904Y5552381D01*
X26861904Y5628572D01*
X26900000Y5742858D01*
X26938095Y5780953D01*
X25161904Y3457143D02*
X24361904Y3457143D01*
X25161904Y3838096D02*
X24361904Y3838096D01*
X25161904Y4295239D01*
X24361904Y4295239D01*
X25161904Y5057143D02*
X25161904Y4676191D01*
X24361904Y4676191D01*
X24742857Y5590477D02*
X24780952Y5704762D01*
X24819047Y5742858D01*
X24895238Y5780953D01*
X25009523Y5780953D01*
X25085714Y5742858D01*
X25123809Y5704762D01*
X25161904Y5628572D01*
X25161904Y5323810D01*
X24361904Y5323810D01*
X24361904Y5590477D01*
X24400000Y5666667D01*
X24438095Y5704762D01*
X24514285Y5742858D01*
X24590476Y5742858D01*
X24666666Y5704762D01*
X24704761Y5666667D01*
X24742857Y5590477D01*
X24742857Y5323810D01*
X22661904Y3414286D02*
X21861904Y3414286D01*
X22661904Y3795239D02*
X21861904Y3795239D01*
X22661904Y4252381D01*
X21861904Y4252381D01*
X22661904Y5014286D02*
X22661904Y4633334D01*
X21861904Y4633334D01*
X22433333Y5242858D02*
X22433333Y5623810D01*
X22661904Y5166667D02*
X21861904Y5433334D01*
X22661904Y5700000D01*
X14961904Y3419048D02*
X14161904Y3419048D01*
X14961904Y3800000D02*
X14161904Y3800000D01*
X14961904Y4257143D01*
X14161904Y4257143D01*
X14961904Y4638096D02*
X14161904Y4638096D01*
X14542857Y4638096D02*
X14542857Y5095239D01*
X14961904Y5095239D02*
X14161904Y5095239D01*
X14733333Y5438096D02*
X14733333Y5819048D01*
X14961904Y5361905D02*
X14161904Y5628572D01*
X14961904Y5895239D01*
X12461904Y3461905D02*
X11661904Y3461905D01*
X12461904Y3842858D02*
X11661904Y3842858D01*
X12461904Y4300000D01*
X11661904Y4300000D01*
X12461904Y4680953D02*
X11661904Y4680953D01*
X12042857Y4680953D02*
X12042857Y5138096D01*
X12461904Y5138096D02*
X11661904Y5138096D01*
X12042857Y5785715D02*
X12080952Y5900000D01*
X12119047Y5938096D01*
X12195238Y5976191D01*
X12309523Y5976191D01*
X12385714Y5938096D01*
X12423809Y5900000D01*
X12461904Y5823810D01*
X12461904Y5519048D01*
X11661904Y5519048D01*
X11661904Y5785715D01*
X11700000Y5861905D01*
X11738095Y5900000D01*
X11814285Y5938096D01*
X11890476Y5938096D01*
X11966666Y5900000D01*
X12004761Y5861905D01*
X12042857Y5785715D01*
X12042857Y5519048D01*
X9961904Y3461905D02*
X9161904Y3461905D01*
X9961904Y3842858D02*
X9161904Y3842858D01*
X9961904Y4300000D01*
X9161904Y4300000D01*
X9961904Y4680953D02*
X9161904Y4680953D01*
X9542857Y4680953D02*
X9542857Y5138096D01*
X9961904Y5138096D02*
X9161904Y5138096D01*
X9885714Y5976191D02*
X9923809Y5938096D01*
X9961904Y5823810D01*
X9961904Y5747620D01*
X9923809Y5633334D01*
X9847619Y5557143D01*
X9771428Y5519048D01*
X9619047Y5480953D01*
X9504761Y5480953D01*
X9352380Y5519048D01*
X9276190Y5557143D01*
X9200000Y5633334D01*
X9161904Y5747620D01*
X9161904Y5823810D01*
X9200000Y5938096D01*
X9238095Y5976191D01*
X7361904Y3390477D02*
X6561904Y3390477D01*
X6942857Y3390477D02*
X6942857Y3847620D01*
X7361904Y3847620D02*
X6561904Y3847620D01*
X7361904Y4571429D02*
X6942857Y4571429D01*
X6866666Y4533334D01*
X6828571Y4457143D01*
X6828571Y4304762D01*
X6866666Y4228572D01*
X7323809Y4571429D02*
X7361904Y4495239D01*
X7361904Y4304762D01*
X7323809Y4228572D01*
X7247619Y4190477D01*
X7171428Y4190477D01*
X7095238Y4228572D01*
X7057142Y4304762D01*
X7057142Y4495239D01*
X7019047Y4571429D01*
X7361904Y5066667D02*
X7323809Y4990477D01*
X7247619Y4952381D01*
X6561904Y4952381D01*
X7361904Y5485715D02*
X7323809Y5409524D01*
X7247619Y5371429D01*
X6561904Y5371429D01*
X7285714Y6247620D02*
X7323809Y6209524D01*
X7361904Y6095239D01*
X7361904Y6019048D01*
X7323809Y5904762D01*
X7247619Y5828572D01*
X7171428Y5790477D01*
X7019047Y5752381D01*
X6904761Y5752381D01*
X6752380Y5790477D01*
X6676190Y5828572D01*
X6600000Y5904762D01*
X6561904Y6019048D01*
X6561904Y6095239D01*
X6600000Y6209524D01*
X6638095Y6247620D01*
X4761904Y3390477D02*
X3961904Y3390477D01*
X4342857Y3390477D02*
X4342857Y3847620D01*
X4761904Y3847620D02*
X3961904Y3847620D01*
X4761904Y4571429D02*
X4342857Y4571429D01*
X4266666Y4533334D01*
X4228571Y4457143D01*
X4228571Y4304762D01*
X4266666Y4228572D01*
X4723809Y4571429D02*
X4761904Y4495239D01*
X4761904Y4304762D01*
X4723809Y4228572D01*
X4647619Y4190477D01*
X4571428Y4190477D01*
X4495238Y4228572D01*
X4457142Y4304762D01*
X4457142Y4495239D01*
X4419047Y4571429D01*
X4761904Y5066667D02*
X4723809Y4990477D01*
X4647619Y4952381D01*
X3961904Y4952381D01*
X4761904Y5485715D02*
X4723809Y5409524D01*
X4647619Y5371429D01*
X3961904Y5371429D01*
X4342857Y6057143D02*
X4380952Y6171429D01*
X4419047Y6209524D01*
X4495238Y6247620D01*
X4609523Y6247620D01*
X4685714Y6209524D01*
X4723809Y6171429D01*
X4761904Y6095239D01*
X4761904Y5790477D01*
X3961904Y5790477D01*
X3961904Y6057143D01*
X4000000Y6133334D01*
X4038095Y6171429D01*
X4114285Y6209524D01*
X4190476Y6209524D01*
X4266666Y6171429D01*
X4304761Y6133334D01*
X4342857Y6057143D01*
X4342857Y5790477D01*
X2361904Y3447620D02*
X1561904Y3447620D01*
X1942857Y3447620D02*
X1942857Y3904762D01*
X2361904Y3904762D02*
X1561904Y3904762D01*
X2361904Y4628572D02*
X1942857Y4628572D01*
X1866666Y4590477D01*
X1828571Y4514286D01*
X1828571Y4361905D01*
X1866666Y4285715D01*
X2323809Y4628572D02*
X2361904Y4552381D01*
X2361904Y4361905D01*
X2323809Y4285715D01*
X2247619Y4247620D01*
X2171428Y4247620D01*
X2095238Y4285715D01*
X2057142Y4361905D01*
X2057142Y4552381D01*
X2019047Y4628572D01*
X2361904Y5123810D02*
X2323809Y5047620D01*
X2247619Y5009524D01*
X1561904Y5009524D01*
X2361904Y5542858D02*
X2323809Y5466667D01*
X2247619Y5428572D01*
X1561904Y5428572D01*
X2133333Y5809524D02*
X2133333Y6190477D01*
X2361904Y5733334D02*
X1561904Y6000000D01*
X2361904Y6266667D01*
X27890476Y10618820D02*
X27890476Y11618820D01*
X28223809Y10904534D01*
X28557142Y11618820D01*
X28557142Y10618820D01*
X29223809Y11618820D02*
X29414285Y11618820D01*
X29509523Y11571200D01*
X29604761Y11475962D01*
X29652380Y11285486D01*
X29652380Y10952153D01*
X29604761Y10761677D01*
X29509523Y10666439D01*
X29414285Y10618820D01*
X29223809Y10618820D01*
X29128571Y10666439D01*
X29033333Y10761677D01*
X28985714Y10952153D01*
X28985714Y11285486D01*
X29033333Y11475962D01*
X29128571Y11571200D01*
X29223809Y11618820D01*
X30080952Y10618820D02*
X30080952Y11618820D01*
X30319047Y11618820D01*
X30461904Y11571200D01*
X30557142Y11475962D01*
X30604761Y11380724D01*
X30652380Y11190248D01*
X30652380Y11047391D01*
X30604761Y10856915D01*
X30557142Y10761677D01*
X30461904Y10666439D01*
X30319047Y10618820D01*
X30080952Y10618820D01*
X31080952Y11142629D02*
X31414285Y11142629D01*
X31557142Y10618820D02*
X31080952Y10618820D01*
X31080952Y11618820D01*
X31557142Y11618820D01*
X21225714Y10666439D02*
X21368571Y10618820D01*
X21606666Y10618820D01*
X21701904Y10666439D01*
X21749523Y10714058D01*
X21797142Y10809296D01*
X21797142Y10904534D01*
X21749523Y10999772D01*
X21701904Y11047391D01*
X21606666Y11095010D01*
X21416190Y11142629D01*
X21320952Y11190248D01*
X21273333Y11237867D01*
X21225714Y11333105D01*
X21225714Y11428343D01*
X21273333Y11523581D01*
X21320952Y11571200D01*
X21416190Y11618820D01*
X21654285Y11618820D01*
X21797142Y11571200D01*
X22701904Y10618820D02*
X22225714Y10618820D01*
X22225714Y11618820D01*
X23035238Y11142629D02*
X23368571Y11142629D01*
X23511428Y10618820D02*
X23035238Y10618820D01*
X23035238Y11618820D01*
X23511428Y11618820D01*
X23844761Y11618820D02*
X24082857Y10618820D01*
X24273333Y11333105D01*
X24463809Y10618820D01*
X24701904Y11618820D01*
X15221428Y11571200D02*
X15126190Y11618820D01*
X14983333Y11618820D01*
X14840476Y11571200D01*
X14745238Y11475962D01*
X14697619Y11380724D01*
X14650000Y11190248D01*
X14650000Y11047391D01*
X14697619Y10856915D01*
X14745238Y10761677D01*
X14840476Y10666439D01*
X14983333Y10618820D01*
X15078571Y10618820D01*
X15221428Y10666439D01*
X15269047Y10714058D01*
X15269047Y11047391D01*
X15078571Y11047391D01*
X15650000Y10904534D02*
X16126190Y10904534D01*
X15554761Y10618820D02*
X15888095Y11618820D01*
X16221428Y10618820D01*
X16554761Y10618820D02*
X16554761Y11618820D01*
X17030952Y10618820D02*
X17030952Y11618820D01*
X17602380Y10618820D01*
X17602380Y11618820D01*
X18878095Y18118820D02*
X18878095Y17309296D01*
X18925714Y17214058D01*
X18973333Y17166439D01*
X19068571Y17118820D01*
X19259047Y17118820D01*
X19354285Y17166439D01*
X19401904Y17214058D01*
X19449523Y17309296D01*
X19449523Y18118820D01*
X19830476Y18118820D02*
X20449523Y18118820D01*
X20116190Y17737867D01*
X20259047Y17737867D01*
X20354285Y17690248D01*
X20401904Y17642629D01*
X20449523Y17547391D01*
X20449523Y17309296D01*
X20401904Y17214058D01*
X20354285Y17166439D01*
X20259047Y17118820D01*
X19973333Y17118820D01*
X19878095Y17166439D01*
X19830476Y17214058D01*
X21200000Y18547620D02*
X21200000Y18309524D01*
X20961904Y18404762D02*
X21200000Y18309524D01*
X21438095Y18404762D01*
X21057142Y18119048D02*
X21200000Y18309524D01*
X21342857Y18119048D01*
X8617380Y32998096D02*
X9426904Y32998096D01*
X9522142Y33045715D01*
X9569761Y33093334D01*
X9617380Y33188572D01*
X9617380Y33379048D01*
X9569761Y33474286D01*
X9522142Y33521905D01*
X9426904Y33569524D01*
X8617380Y33569524D01*
X8712619Y33998096D02*
X8665000Y34045715D01*
X8617380Y34140953D01*
X8617380Y34379048D01*
X8665000Y34474286D01*
X8712619Y34521905D01*
X8807857Y34569524D01*
X8903095Y34569524D01*
X9045952Y34521905D01*
X9617380Y33950477D01*
X9617380Y34569524D01*
X32140595Y12368820D02*
X32140595Y11559296D01*
X32188214Y11464058D01*
X32235833Y11416439D01*
X32331071Y11368820D01*
X32521547Y11368820D01*
X32616785Y11416439D01*
X32664404Y11464058D01*
X32712023Y11559296D01*
X32712023Y12368820D01*
X33712023Y11368820D02*
X33140595Y11368820D01*
X33426309Y11368820D02*
X33426309Y12368820D01*
X33331071Y12225962D01*
X33235833Y12130724D01*
X33140595Y12083105D01*
X11033333Y7047620D02*
X10700000Y7523810D01*
X10461904Y7047620D02*
X10461904Y8047620D01*
X10842857Y8047620D01*
X10938095Y8000000D01*
X10985714Y7952381D01*
X11033333Y7857143D01*
X11033333Y7714286D01*
X10985714Y7619048D01*
X10938095Y7571429D01*
X10842857Y7523810D01*
X10461904Y7523810D01*
X11890476Y7714286D02*
X11890476Y7047620D01*
X11652380Y8095239D02*
X11414285Y7380953D01*
X12033333Y7380953D01*
X17633333Y7047620D02*
X17300000Y7523810D01*
X17061904Y7047620D02*
X17061904Y8047620D01*
X17442857Y8047620D01*
X17538095Y8000000D01*
X17585714Y7952381D01*
X17633333Y7857143D01*
X17633333Y7714286D01*
X17585714Y7619048D01*
X17538095Y7571429D01*
X17442857Y7523810D01*
X17061904Y7523810D01*
X17966666Y8047620D02*
X18585714Y8047620D01*
X18252380Y7666667D01*
X18395238Y7666667D01*
X18490476Y7619048D01*
X18538095Y7571429D01*
X18585714Y7476191D01*
X18585714Y7238096D01*
X18538095Y7142858D01*
X18490476Y7095239D01*
X18395238Y7047620D01*
X18109523Y7047620D01*
X18014285Y7095239D01*
X17966666Y7142858D01*
X24233333Y7047620D02*
X23900000Y7523810D01*
X23661904Y7047620D02*
X23661904Y8047620D01*
X24042857Y8047620D01*
X24138095Y8000000D01*
X24185714Y7952381D01*
X24233333Y7857143D01*
X24233333Y7714286D01*
X24185714Y7619048D01*
X24138095Y7571429D01*
X24042857Y7523810D01*
X23661904Y7523810D01*
X24614285Y7952381D02*
X24661904Y8000000D01*
X24757142Y8047620D01*
X24995238Y8047620D01*
X25090476Y8000000D01*
X25138095Y7952381D01*
X25185714Y7857143D01*
X25185714Y7761905D01*
X25138095Y7619048D01*
X24566666Y7047620D01*
X25185714Y7047620D01*
X22373333Y16118820D02*
X22040000Y16595010D01*
X21801904Y16118820D02*
X21801904Y17118820D01*
X22182857Y17118820D01*
X22278095Y17071200D01*
X22325714Y17023581D01*
X22373333Y16928343D01*
X22373333Y16785486D01*
X22325714Y16690248D01*
X22278095Y16642629D01*
X22182857Y16595010D01*
X21801904Y16595010D01*
X23325714Y16118820D02*
X22754285Y16118820D01*
X23040000Y16118820D02*
X23040000Y17118820D01*
X22944761Y16975962D01*
X22849523Y16880724D01*
X22754285Y16833105D01*
X12316666Y14118820D02*
X12316666Y13404534D01*
X12269047Y13261677D01*
X12173809Y13166439D01*
X12030952Y13118820D01*
X11935714Y13118820D01*
X12792857Y13118820D02*
X12792857Y14118820D01*
X13173809Y14118820D01*
X13269047Y14071200D01*
X13316666Y14023581D01*
X13364285Y13928343D01*
X13364285Y13785486D01*
X13316666Y13690248D01*
X13269047Y13642629D01*
X13173809Y13595010D01*
X12792857Y13595010D01*
X14221428Y14118820D02*
X14030952Y14118820D01*
X13935714Y14071200D01*
X13888095Y14023581D01*
X13792857Y13880724D01*
X13745238Y13690248D01*
X13745238Y13309296D01*
X13792857Y13214058D01*
X13840476Y13166439D01*
X13935714Y13118820D01*
X14126190Y13118820D01*
X14221428Y13166439D01*
X14269047Y13214058D01*
X14316666Y13309296D01*
X14316666Y13547391D01*
X14269047Y13642629D01*
X14221428Y13690248D01*
X14126190Y13737867D01*
X13935714Y13737867D01*
X13840476Y13690248D01*
X13792857Y13642629D01*
X13745238Y13547391D01*
X18806666Y14118820D02*
X18806666Y13404534D01*
X18759047Y13261677D01*
X18663809Y13166439D01*
X18520952Y13118820D01*
X18425714Y13118820D01*
X19282857Y13118820D02*
X19282857Y14118820D01*
X19663809Y14118820D01*
X19759047Y14071200D01*
X19806666Y14023581D01*
X19854285Y13928343D01*
X19854285Y13785486D01*
X19806666Y13690248D01*
X19759047Y13642629D01*
X19663809Y13595010D01*
X19282857Y13595010D01*
X20759047Y14118820D02*
X20282857Y14118820D01*
X20235238Y13642629D01*
X20282857Y13690248D01*
X20378095Y13737867D01*
X20616190Y13737867D01*
X20711428Y13690248D01*
X20759047Y13642629D01*
X20806666Y13547391D01*
X20806666Y13309296D01*
X20759047Y13214058D01*
X20711428Y13166439D01*
X20616190Y13118820D01*
X20378095Y13118820D01*
X20282857Y13166439D01*
X20235238Y13214058D01*
X25516666Y14118820D02*
X25516666Y13404534D01*
X25469047Y13261677D01*
X25373809Y13166439D01*
X25230952Y13118820D01*
X25135714Y13118820D01*
X25992857Y13118820D02*
X25992857Y14118820D01*
X26373809Y14118820D01*
X26469047Y14071200D01*
X26516666Y14023581D01*
X26564285Y13928343D01*
X26564285Y13785486D01*
X26516666Y13690248D01*
X26469047Y13642629D01*
X26373809Y13595010D01*
X25992857Y13595010D01*
X27421428Y13785486D02*
X27421428Y13118820D01*
X27183333Y14166439D02*
X26945238Y13452153D01*
X27564285Y13452153D01*
X16116666Y10018820D02*
X16735714Y10018820D01*
X16402380Y9637867D01*
X16545238Y9637867D01*
X16640476Y9590248D01*
X16688095Y9542629D01*
X16735714Y9447391D01*
X16735714Y9209296D01*
X16688095Y9114058D01*
X16640476Y9066439D01*
X16545238Y9018820D01*
X16259523Y9018820D01*
X16164285Y9066439D01*
X16116666Y9114058D01*
X11535714Y9018820D02*
X10964285Y9018820D01*
X11250000Y9018820D02*
X11250000Y10018820D01*
X11154761Y9875962D01*
X11059523Y9780724D01*
X10964285Y9733105D01*
X22606666Y10018820D02*
X23225714Y10018820D01*
X22892380Y9637867D01*
X23035238Y9637867D01*
X23130476Y9590248D01*
X23178095Y9542629D01*
X23225714Y9447391D01*
X23225714Y9209296D01*
X23178095Y9114058D01*
X23130476Y9066439D01*
X23035238Y9018820D01*
X22749523Y9018820D01*
X22654285Y9066439D01*
X22606666Y9114058D01*
X18025714Y9018820D02*
X17454285Y9018820D01*
X17740000Y9018820D02*
X17740000Y10018820D01*
X17644761Y9875962D01*
X17549523Y9780724D01*
X17454285Y9733105D01*
X29316666Y10018820D02*
X29935714Y10018820D01*
X29602380Y9637867D01*
X29745238Y9637867D01*
X29840476Y9590248D01*
X29888095Y9542629D01*
X29935714Y9447391D01*
X29935714Y9209296D01*
X29888095Y9114058D01*
X29840476Y9066439D01*
X29745238Y9018820D01*
X29459523Y9018820D01*
X29364285Y9066439D01*
X29316666Y9114058D01*
X24735714Y9018820D02*
X24164285Y9018820D01*
X24450000Y9018820D02*
X24450000Y10018820D01*
X24354761Y9875962D01*
X24259523Y9780724D01*
X24164285Y9733105D01*
X252380Y3766667D02*
X966666Y3766667D01*
X1109523Y3719048D01*
X1204761Y3623810D01*
X1252380Y3480953D01*
X1252380Y3385715D01*
X252380Y4147620D02*
X252380Y4766667D01*
X633333Y4433334D01*
X633333Y4576191D01*
X680952Y4671429D01*
X728571Y4719048D01*
X823809Y4766667D01*
X1061904Y4766667D01*
X1157142Y4719048D01*
X1204761Y4671429D01*
X1252380Y4576191D01*
X1252380Y4290477D01*
X1204761Y4195239D01*
X1157142Y4147620D01*
X3966666Y24847620D02*
X3966666Y24133334D01*
X3919047Y23990477D01*
X3823809Y23895239D01*
X3680952Y23847620D01*
X3585714Y23847620D01*
X4395238Y24752381D02*
X4442857Y24800000D01*
X4538095Y24847620D01*
X4776190Y24847620D01*
X4871428Y24800000D01*
X4919047Y24752381D01*
X4966666Y24657143D01*
X4966666Y24561905D01*
X4919047Y24419048D01*
X4347619Y23847620D01*
X4966666Y23847620D01*
X17192380Y31837867D02*
X17906666Y31837867D01*
X18049523Y31790248D01*
X18144761Y31695010D01*
X18192380Y31552153D01*
X18192380Y31456915D01*
X18192380Y32837867D02*
X18192380Y32266439D01*
X18192380Y32552153D02*
X17192380Y32552153D01*
X17335238Y32456915D01*
X17430476Y32361677D01*
X17478095Y32266439D01*
X35357142Y7157143D02*
X35404761Y7109524D01*
X35452380Y6966667D01*
X35452380Y6871429D01*
X35404761Y6728572D01*
X35309523Y6633334D01*
X35214285Y6585715D01*
X35023809Y6538096D01*
X34880952Y6538096D01*
X34690476Y6585715D01*
X34595238Y6633334D01*
X34500000Y6728572D01*
X34452380Y6871429D01*
X34452380Y6966667D01*
X34500000Y7109524D01*
X34547619Y7157143D01*
X35452380Y8109524D02*
X35452380Y7538096D01*
X35452380Y7823810D02*
X34452380Y7823810D01*
X34595238Y7728572D01*
X34690476Y7633334D01*
X34738095Y7538096D01*
X34452380Y8442858D02*
X34452380Y9109524D01*
X35452380Y8680953D01*
X37857142Y7157143D02*
X37904761Y7109524D01*
X37952380Y6966667D01*
X37952380Y6871429D01*
X37904761Y6728572D01*
X37809523Y6633334D01*
X37714285Y6585715D01*
X37523809Y6538096D01*
X37380952Y6538096D01*
X37190476Y6585715D01*
X37095238Y6633334D01*
X37000000Y6728572D01*
X36952380Y6871429D01*
X36952380Y6966667D01*
X37000000Y7109524D01*
X37047619Y7157143D01*
X37952380Y8109524D02*
X37952380Y7538096D01*
X37952380Y7823810D02*
X36952380Y7823810D01*
X37095238Y7728572D01*
X37190476Y7633334D01*
X37238095Y7538096D01*
X36952380Y8966667D02*
X36952380Y8776191D01*
X37000000Y8680953D01*
X37047619Y8633334D01*
X37190476Y8538096D01*
X37380952Y8490477D01*
X37761904Y8490477D01*
X37857142Y8538096D01*
X37904761Y8585715D01*
X37952380Y8680953D01*
X37952380Y8871429D01*
X37904761Y8966667D01*
X37857142Y9014286D01*
X37761904Y9061905D01*
X37523809Y9061905D01*
X37428571Y9014286D01*
X37380952Y8966667D01*
X37333333Y8871429D01*
X37333333Y8680953D01*
X37380952Y8585715D01*
X37428571Y8538096D01*
X37523809Y8490477D01*
X40457142Y7157143D02*
X40504761Y7109524D01*
X40552380Y6966667D01*
X40552380Y6871429D01*
X40504761Y6728572D01*
X40409523Y6633334D01*
X40314285Y6585715D01*
X40123809Y6538096D01*
X39980952Y6538096D01*
X39790476Y6585715D01*
X39695238Y6633334D01*
X39600000Y6728572D01*
X39552380Y6871429D01*
X39552380Y6966667D01*
X39600000Y7109524D01*
X39647619Y7157143D01*
X40552380Y8109524D02*
X40552380Y7538096D01*
X40552380Y7823810D02*
X39552380Y7823810D01*
X39695238Y7728572D01*
X39790476Y7633334D01*
X39838095Y7538096D01*
X39552380Y9014286D02*
X39552380Y8538096D01*
X40028571Y8490477D01*
X39980952Y8538096D01*
X39933333Y8633334D01*
X39933333Y8871429D01*
X39980952Y8966667D01*
X40028571Y9014286D01*
X40123809Y9061905D01*
X40361904Y9061905D01*
X40457142Y9014286D01*
X40504761Y8966667D01*
X40552380Y8871429D01*
X40552380Y8633334D01*
X40504761Y8538096D01*
X40457142Y8490477D01*
X14957142Y18757143D02*
X15004761Y18709524D01*
X15052380Y18566667D01*
X15052380Y18471429D01*
X15004761Y18328572D01*
X14909523Y18233334D01*
X14814285Y18185715D01*
X14623809Y18138096D01*
X14480952Y18138096D01*
X14290476Y18185715D01*
X14195238Y18233334D01*
X14100000Y18328572D01*
X14052380Y18471429D01*
X14052380Y18566667D01*
X14100000Y18709524D01*
X14147619Y18757143D01*
X15052380Y19709524D02*
X15052380Y19138096D01*
X15052380Y19423810D02*
X14052380Y19423810D01*
X14195238Y19328572D01*
X14290476Y19233334D01*
X14338095Y19138096D01*
X14385714Y20566667D02*
X15052380Y20566667D01*
X14004761Y20328572D02*
X14719047Y20090477D01*
X14719047Y20709524D01*
X26497142Y23228343D02*
X26544761Y23180724D01*
X26592380Y23037867D01*
X26592380Y22942629D01*
X26544761Y22799772D01*
X26449523Y22704534D01*
X26354285Y22656915D01*
X26163809Y22609296D01*
X26020952Y22609296D01*
X25830476Y22656915D01*
X25735238Y22704534D01*
X25640000Y22799772D01*
X25592380Y22942629D01*
X25592380Y23037867D01*
X25640000Y23180724D01*
X25687619Y23228343D01*
X26592380Y24180724D02*
X26592380Y23609296D01*
X26592380Y23895010D02*
X25592380Y23895010D01*
X25735238Y23799772D01*
X25830476Y23704534D01*
X25878095Y23609296D01*
X25592380Y24514058D02*
X25592380Y25133105D01*
X25973333Y24799772D01*
X25973333Y24942629D01*
X26020952Y25037867D01*
X26068571Y25085486D01*
X26163809Y25133105D01*
X26401904Y25133105D01*
X26497142Y25085486D01*
X26544761Y25037867D01*
X26592380Y24942629D01*
X26592380Y24656915D01*
X26544761Y24561677D01*
X26497142Y24514058D01*
X24997142Y23228343D02*
X25044761Y23180724D01*
X25092380Y23037867D01*
X25092380Y22942629D01*
X25044761Y22799772D01*
X24949523Y22704534D01*
X24854285Y22656915D01*
X24663809Y22609296D01*
X24520952Y22609296D01*
X24330476Y22656915D01*
X24235238Y22704534D01*
X24140000Y22799772D01*
X24092380Y22942629D01*
X24092380Y23037867D01*
X24140000Y23180724D01*
X24187619Y23228343D01*
X25092380Y24180724D02*
X25092380Y23609296D01*
X25092380Y23895010D02*
X24092380Y23895010D01*
X24235238Y23799772D01*
X24330476Y23704534D01*
X24378095Y23609296D01*
X24187619Y24561677D02*
X24140000Y24609296D01*
X24092380Y24704534D01*
X24092380Y24942629D01*
X24140000Y25037867D01*
X24187619Y25085486D01*
X24282857Y25133105D01*
X24378095Y25133105D01*
X24520952Y25085486D01*
X25092380Y24514058D01*
X25092380Y25133105D01*
X25857142Y17942858D02*
X25809523Y17895239D01*
X25666666Y17847620D01*
X25571428Y17847620D01*
X25428571Y17895239D01*
X25333333Y17990477D01*
X25285714Y18085715D01*
X25238095Y18276191D01*
X25238095Y18419048D01*
X25285714Y18609524D01*
X25333333Y18704762D01*
X25428571Y18800000D01*
X25571428Y18847620D01*
X25666666Y18847620D01*
X25809523Y18800000D01*
X25857142Y18752381D01*
X26809523Y17847620D02*
X26238095Y17847620D01*
X26523809Y17847620D02*
X26523809Y18847620D01*
X26428571Y18704762D01*
X26333333Y18609524D01*
X26238095Y18561905D01*
X27761904Y17847620D02*
X27190476Y17847620D01*
X27476190Y17847620D02*
X27476190Y18847620D01*
X27380952Y18704762D01*
X27285714Y18609524D01*
X27190476Y18561905D01*
X17897142Y29214058D02*
X17849523Y29166439D01*
X17706666Y29118820D01*
X17611428Y29118820D01*
X17468571Y29166439D01*
X17373333Y29261677D01*
X17325714Y29356915D01*
X17278095Y29547391D01*
X17278095Y29690248D01*
X17325714Y29880724D01*
X17373333Y29975962D01*
X17468571Y30071200D01*
X17611428Y30118820D01*
X17706666Y30118820D01*
X17849523Y30071200D01*
X17897142Y30023581D01*
X18849523Y29118820D02*
X18278095Y29118820D01*
X18563809Y29118820D02*
X18563809Y30118820D01*
X18468571Y29975962D01*
X18373333Y29880724D01*
X18278095Y29833105D01*
X19468571Y30118820D02*
X19563809Y30118820D01*
X19659047Y30071200D01*
X19706666Y30023581D01*
X19754285Y29928343D01*
X19801904Y29737867D01*
X19801904Y29499772D01*
X19754285Y29309296D01*
X19706666Y29214058D01*
X19659047Y29166439D01*
X19563809Y29118820D01*
X19468571Y29118820D01*
X19373333Y29166439D01*
X19325714Y29214058D01*
X19278095Y29309296D01*
X19230476Y29499772D01*
X19230476Y29737867D01*
X19278095Y29928343D01*
X19325714Y30023581D01*
X19373333Y30071200D01*
X19468571Y30118820D01*
X18873333Y27714058D02*
X18825714Y27666439D01*
X18682857Y27618820D01*
X18587619Y27618820D01*
X18444761Y27666439D01*
X18349523Y27761677D01*
X18301904Y27856915D01*
X18254285Y28047391D01*
X18254285Y28190248D01*
X18301904Y28380724D01*
X18349523Y28475962D01*
X18444761Y28571200D01*
X18587619Y28618820D01*
X18682857Y28618820D01*
X18825714Y28571200D01*
X18873333Y28523581D01*
X19349523Y27618820D02*
X19540000Y27618820D01*
X19635238Y27666439D01*
X19682857Y27714058D01*
X19778095Y27856915D01*
X19825714Y28047391D01*
X19825714Y28428343D01*
X19778095Y28523581D01*
X19730476Y28571200D01*
X19635238Y28618820D01*
X19444761Y28618820D01*
X19349523Y28571200D01*
X19301904Y28523581D01*
X19254285Y28428343D01*
X19254285Y28190248D01*
X19301904Y28095010D01*
X19349523Y28047391D01*
X19444761Y27999772D01*
X19635238Y27999772D01*
X19730476Y28047391D01*
X19778095Y28095010D01*
X19825714Y28190248D01*
X18873333Y26214058D02*
X18825714Y26166439D01*
X18682857Y26118820D01*
X18587619Y26118820D01*
X18444761Y26166439D01*
X18349523Y26261677D01*
X18301904Y26356915D01*
X18254285Y26547391D01*
X18254285Y26690248D01*
X18301904Y26880724D01*
X18349523Y26975962D01*
X18444761Y27071200D01*
X18587619Y27118820D01*
X18682857Y27118820D01*
X18825714Y27071200D01*
X18873333Y27023581D01*
X19444761Y26690248D02*
X19349523Y26737867D01*
X19301904Y26785486D01*
X19254285Y26880724D01*
X19254285Y26928343D01*
X19301904Y27023581D01*
X19349523Y27071200D01*
X19444761Y27118820D01*
X19635238Y27118820D01*
X19730476Y27071200D01*
X19778095Y27023581D01*
X19825714Y26928343D01*
X19825714Y26880724D01*
X19778095Y26785486D01*
X19730476Y26737867D01*
X19635238Y26690248D01*
X19444761Y26690248D01*
X19349523Y26642629D01*
X19301904Y26595010D01*
X19254285Y26499772D01*
X19254285Y26309296D01*
X19301904Y26214058D01*
X19349523Y26166439D01*
X19444761Y26118820D01*
X19635238Y26118820D01*
X19730476Y26166439D01*
X19778095Y26214058D01*
X19825714Y26309296D01*
X19825714Y26499772D01*
X19778095Y26595010D01*
X19730476Y26642629D01*
X19635238Y26690248D01*
X18873333Y24714058D02*
X18825714Y24666439D01*
X18682857Y24618820D01*
X18587619Y24618820D01*
X18444761Y24666439D01*
X18349523Y24761677D01*
X18301904Y24856915D01*
X18254285Y25047391D01*
X18254285Y25190248D01*
X18301904Y25380724D01*
X18349523Y25475962D01*
X18444761Y25571200D01*
X18587619Y25618820D01*
X18682857Y25618820D01*
X18825714Y25571200D01*
X18873333Y25523581D01*
X19206666Y25618820D02*
X19873333Y25618820D01*
X19444761Y24618820D01*
X23497142Y24004534D02*
X23544761Y23956915D01*
X23592380Y23814058D01*
X23592380Y23718820D01*
X23544761Y23575962D01*
X23449523Y23480724D01*
X23354285Y23433105D01*
X23163809Y23385486D01*
X23020952Y23385486D01*
X22830476Y23433105D01*
X22735238Y23480724D01*
X22640000Y23575962D01*
X22592380Y23718820D01*
X22592380Y23814058D01*
X22640000Y23956915D01*
X22687619Y24004534D01*
X22592380Y24861677D02*
X22592380Y24671200D01*
X22640000Y24575962D01*
X22687619Y24528343D01*
X22830476Y24433105D01*
X23020952Y24385486D01*
X23401904Y24385486D01*
X23497142Y24433105D01*
X23544761Y24480724D01*
X23592380Y24575962D01*
X23592380Y24766439D01*
X23544761Y24861677D01*
X23497142Y24909296D01*
X23401904Y24956915D01*
X23163809Y24956915D01*
X23068571Y24909296D01*
X23020952Y24861677D01*
X22973333Y24766439D01*
X22973333Y24575962D01*
X23020952Y24480724D01*
X23068571Y24433105D01*
X23163809Y24385486D01*
X30735833Y17794058D02*
X30688214Y17746439D01*
X30545357Y17698820D01*
X30450119Y17698820D01*
X30307261Y17746439D01*
X30212023Y17841677D01*
X30164404Y17936915D01*
X30116785Y18127391D01*
X30116785Y18270248D01*
X30164404Y18460724D01*
X30212023Y18555962D01*
X30307261Y18651200D01*
X30450119Y18698820D01*
X30545357Y18698820D01*
X30688214Y18651200D01*
X30735833Y18603581D01*
X31640595Y18698820D02*
X31164404Y18698820D01*
X31116785Y18222629D01*
X31164404Y18270248D01*
X31259642Y18317867D01*
X31497738Y18317867D01*
X31592976Y18270248D01*
X31640595Y18222629D01*
X31688214Y18127391D01*
X31688214Y17889296D01*
X31640595Y17794058D01*
X31592976Y17746439D01*
X31497738Y17698820D01*
X31259642Y17698820D01*
X31164404Y17746439D01*
X31116785Y17794058D01*
X37257142Y13833334D02*
X37304761Y13785715D01*
X37352380Y13642858D01*
X37352380Y13547620D01*
X37304761Y13404762D01*
X37209523Y13309524D01*
X37114285Y13261905D01*
X36923809Y13214286D01*
X36780952Y13214286D01*
X36590476Y13261905D01*
X36495238Y13309524D01*
X36400000Y13404762D01*
X36352380Y13547620D01*
X36352380Y13642858D01*
X36400000Y13785715D01*
X36447619Y13833334D01*
X36685714Y14690477D02*
X37352380Y14690477D01*
X36304761Y14452381D02*
X37019047Y14214286D01*
X37019047Y14833334D01*
X3757142Y32433334D02*
X3804761Y32385715D01*
X3852380Y32242858D01*
X3852380Y32147620D01*
X3804761Y32004762D01*
X3709523Y31909524D01*
X3614285Y31861905D01*
X3423809Y31814286D01*
X3280952Y31814286D01*
X3090476Y31861905D01*
X2995238Y31909524D01*
X2900000Y32004762D01*
X2852380Y32147620D01*
X2852380Y32242858D01*
X2900000Y32385715D01*
X2947619Y32433334D01*
X2852380Y32766667D02*
X2852380Y33385715D01*
X3233333Y33052381D01*
X3233333Y33195239D01*
X3280952Y33290477D01*
X3328571Y33338096D01*
X3423809Y33385715D01*
X3661904Y33385715D01*
X3757142Y33338096D01*
X3804761Y33290477D01*
X3852380Y33195239D01*
X3852380Y32909524D01*
X3804761Y32814286D01*
X3757142Y32766667D01*
X11817142Y33033334D02*
X11864761Y32985715D01*
X11912380Y32842858D01*
X11912380Y32747620D01*
X11864761Y32604762D01*
X11769523Y32509524D01*
X11674285Y32461905D01*
X11483809Y32414286D01*
X11340952Y32414286D01*
X11150476Y32461905D01*
X11055238Y32509524D01*
X10960000Y32604762D01*
X10912380Y32747620D01*
X10912380Y32842858D01*
X10960000Y32985715D01*
X11007619Y33033334D01*
X11007619Y33414286D02*
X10960000Y33461905D01*
X10912380Y33557143D01*
X10912380Y33795239D01*
X10960000Y33890477D01*
X11007619Y33938096D01*
X11102857Y33985715D01*
X11198095Y33985715D01*
X11340952Y33938096D01*
X11912380Y33366667D01*
X11912380Y33985715D01*
X29159642Y13854534D02*
X29207261Y13806915D01*
X29254880Y13664058D01*
X29254880Y13568820D01*
X29207261Y13425962D01*
X29112023Y13330724D01*
X29016785Y13283105D01*
X28826309Y13235486D01*
X28683452Y13235486D01*
X28492976Y13283105D01*
X28397738Y13330724D01*
X28302500Y13425962D01*
X28254880Y13568820D01*
X28254880Y13664058D01*
X28302500Y13806915D01*
X28350119Y13854534D01*
X29254880Y14806915D02*
X29254880Y14235486D01*
X29254880Y14521200D02*
X28254880Y14521200D01*
X28397738Y14425962D01*
X28492976Y14330724D01*
X28540595Y14235486D01*
D11*
X21316400Y22147600D02*
X20874840Y22147600D01*
X17963600Y18794800D02*
X18405160Y18794800D01*
X20874840Y18794800D02*
X21316400Y18794800D01*
X18405160Y22147600D02*
X17963600Y22147600D01*
X8428700Y30923600D02*
X8428700Y31983260D01*
X8428700Y33216740D02*
X8428700Y34276400D01*
X8428700Y34276400D02*
X6371300Y34276400D01*
X6371300Y32933261D02*
X6371300Y32266739D01*
X6371300Y30923600D02*
X8428700Y30923600D01*
X6327000Y34100000D02*
G75*
G03*
X6327000Y34100000I-127000J0D01*
G01*
X32902500Y15781200D02*
X32102500Y15781200D01*
X32902500Y15781200D02*
X33702500Y15781200D01*
X32902500Y12661200D02*
X32102500Y12661200D01*
X32902500Y12661200D02*
X34702500Y12661200D01*
X13587258Y6948700D02*
X13112742Y6948700D01*
X13587258Y7993700D02*
X13112742Y7993700D01*
X20177258Y6948700D02*
X19702742Y6948700D01*
X20177258Y7993700D02*
X19702742Y7993700D01*
X26787258Y6948700D02*
X26312742Y6948700D01*
X26787258Y7993700D02*
X26312742Y7993700D01*
X22777258Y14848700D02*
X22302742Y14848700D01*
X22777258Y15893700D02*
X22302742Y15893700D01*
X14550000Y12271200D02*
G75*
G03*
X13850000Y12971200I-700000J0D01*
G01*
X13850000Y10971200D02*
G75*
G03*
X14550000Y11671200I0J700000D01*
G01*
X11750000Y11671200D02*
G75*
G03*
X12450000Y10971200I700000J0D01*
G01*
X12450000Y12971200D02*
G75*
G03*
X11750000Y12271200I0J-700000D01*
G01*
X11750000Y11671200D02*
X11750000Y12271200D01*
X13850000Y10971200D02*
X12450000Y10971200D01*
X14550000Y12271200D02*
X14550000Y11671200D01*
X12450000Y12971200D02*
X13850000Y12971200D01*
X21040000Y12271200D02*
G75*
G03*
X20340000Y12971200I-700000J0D01*
G01*
X20340000Y10971200D02*
G75*
G03*
X21040000Y11671200I0J700000D01*
G01*
X18240000Y11671200D02*
G75*
G03*
X18940000Y10971200I700000J0D01*
G01*
X18940000Y12971200D02*
G75*
G03*
X18240000Y12271200I0J-700000D01*
G01*
X18240000Y11671200D02*
X18240000Y12271200D01*
X20340000Y10971200D02*
X18940000Y10971200D01*
X21040000Y12271200D02*
X21040000Y11671200D01*
X18940000Y12971200D02*
X20340000Y12971200D01*
X27750000Y12271200D02*
G75*
G03*
X27050000Y12971200I-700000J0D01*
G01*
X27050000Y10971200D02*
G75*
G03*
X27750000Y11671200I0J700000D01*
G01*
X24950000Y11671200D02*
G75*
G03*
X25650000Y10971200I700000J0D01*
G01*
X25650000Y12971200D02*
G75*
G03*
X24950000Y12271200I0J-700000D01*
G01*
X24950000Y11671200D02*
X24950000Y12271200D01*
X27050000Y10971200D02*
X25650000Y10971200D01*
X27750000Y12271200D02*
X27750000Y11671200D01*
X25650000Y12971200D02*
X27050000Y12971200D01*
X11800000Y9171200D02*
X11800000Y9771200D01*
X15250000Y8471200D02*
X12450000Y8471200D01*
X15900000Y9771200D02*
X15900000Y9171200D01*
X12450000Y10471200D02*
X15250000Y10471200D01*
X15900000Y9771200D02*
G75*
G03*
X15200000Y10471200I-700000J0D01*
G01*
X15200000Y8471200D02*
G75*
G03*
X15900000Y9171200I0J700000D01*
G01*
X11800000Y9171200D02*
G75*
G03*
X12500000Y8471200I700000J0D01*
G01*
X12500000Y10471200D02*
G75*
G03*
X11800000Y9771200I0J-700000D01*
G01*
X18290000Y9171200D02*
X18290000Y9771200D01*
X21740000Y8471200D02*
X18940000Y8471200D01*
X22390000Y9771200D02*
X22390000Y9171200D01*
X18940000Y10471200D02*
X21740000Y10471200D01*
X22390000Y9771200D02*
G75*
G03*
X21690000Y10471200I-700000J0D01*
G01*
X21690000Y8471200D02*
G75*
G03*
X22390000Y9171200I0J700000D01*
G01*
X18290000Y9171200D02*
G75*
G03*
X18990000Y8471200I700000J0D01*
G01*
X18990000Y10471200D02*
G75*
G03*
X18290000Y9771200I0J-700000D01*
G01*
X25000000Y9171200D02*
X25000000Y9771200D01*
X28450000Y8471200D02*
X25650000Y8471200D01*
X29100000Y9771200D02*
X29100000Y9171200D01*
X25650000Y10471200D02*
X28450000Y10471200D01*
X29100000Y9771200D02*
G75*
G03*
X28400000Y10471200I-700000J0D01*
G01*
X28400000Y8471200D02*
G75*
G03*
X29100000Y9171200I0J700000D01*
G01*
X25000000Y9171200D02*
G75*
G03*
X25700000Y8471200I700000J0D01*
G01*
X25700000Y10471200D02*
G75*
G03*
X25000000Y9771200I0J-700000D01*
G01*
X41330000Y570000D02*
X41330000Y3230000D01*
X3170000Y570000D02*
X41330000Y570000D01*
X3170000Y3230000D02*
X41330000Y3230000D01*
X3170000Y570000D02*
X3170000Y3230000D01*
X1900000Y570000D02*
X570000Y570000D01*
X570000Y570000D02*
X570000Y1900000D01*
X15130000Y30305000D02*
X15130000Y28975000D01*
X13800000Y30305000D02*
X15130000Y30305000D01*
X15130000Y27705000D02*
X15130000Y25105000D01*
X12530000Y27705000D02*
X15130000Y27705000D01*
X12530000Y30305000D02*
X12530000Y27705000D01*
X15130000Y25105000D02*
X4850000Y25105000D01*
X12530000Y30305000D02*
X4850000Y30305000D01*
X4850000Y30305000D02*
X4850000Y25105000D01*
X18535000Y30841200D02*
X18535000Y32171200D01*
X19865000Y30841200D02*
X18535000Y30841200D01*
X21135000Y30841200D02*
X21135000Y33501200D01*
X21135000Y33501200D02*
X23735000Y33501200D01*
X21135000Y30841200D02*
X23735000Y30841200D01*
X23735000Y30841200D02*
X23735000Y33501200D01*
X35410000Y5340580D02*
X35410000Y5059420D01*
X34390000Y5340580D02*
X34390000Y5059420D01*
X38010000Y5340580D02*
X38010000Y5059420D01*
X36990000Y5340580D02*
X36990000Y5059420D01*
X40510000Y5340580D02*
X40510000Y5059420D01*
X39490000Y5340580D02*
X39490000Y5059420D01*
X16210000Y19540580D02*
X16210000Y19259420D01*
X15190000Y19540580D02*
X15190000Y19259420D01*
X25630000Y21130620D02*
X25630000Y21411780D01*
X26650000Y21130620D02*
X26650000Y21411780D01*
X24130000Y21130620D02*
X24130000Y21411780D01*
X25150000Y21130620D02*
X25150000Y21411780D01*
X24040580Y17790000D02*
X23759420Y17790000D01*
X24040580Y18810000D02*
X23759420Y18810000D01*
X20999420Y30081200D02*
X21280580Y30081200D01*
X20999420Y29061200D02*
X21280580Y29061200D01*
X20999420Y28581200D02*
X21280580Y28581200D01*
X20999420Y27561200D02*
X21280580Y27561200D01*
X20999420Y27081200D02*
X21280580Y27081200D01*
X20999420Y26061200D02*
X21280580Y26061200D01*
X20999420Y25581200D02*
X21280580Y25581200D01*
X20999420Y24561200D02*
X21280580Y24561200D01*
X22630000Y21930620D02*
X22630000Y22211780D01*
X23650000Y21930620D02*
X23650000Y22211780D01*
X30761920Y17231200D02*
X31043080Y17231200D01*
X30761920Y16211200D02*
X31043080Y16211200D01*
X36212500Y14161780D02*
X36212500Y13880620D01*
X35192500Y14161780D02*
X35192500Y13880620D01*
X5010000Y32740580D02*
X5010000Y32459420D01*
X3990000Y32740580D02*
X3990000Y32459420D01*
X10810000Y33340580D02*
X10810000Y33059420D01*
X9790000Y33340580D02*
X9790000Y33059420D01*
X30512500Y14161780D02*
X30512500Y13880620D01*
X29492500Y14161780D02*
X29492500Y13880620D01*
M02*
