G04 #@! TF.GenerationSoftware,KiCad,Pcbnew,(6.0.1)*
G04 #@! TF.CreationDate,2022-01-16T17:21:18+09:00*
G04 #@! TF.ProjectId,BrushlessMotorDriver_DRV8311,42727573-686c-4657-9373-4d6f746f7244,rev?*
G04 #@! TF.SameCoordinates,PX7270e00PY8b3c880*
G04 #@! TF.FileFunction,Copper,L2,Bot*
G04 #@! TF.FilePolarity,Positive*
%FSLAX46Y46*%
G04 Gerber Fmt 4.6, Leading zero omitted, Abs format (unit mm)*
G04 Created by KiCad (PCBNEW (6.0.1)) date 2022-01-16 17:21:18*
%MOMM*%
%LPD*%
G01*
G04 APERTURE LIST*
G04 #@! TA.AperFunction,ComponentPad*
%ADD10R,1.700000X1.700000*%
G04 #@! TD*
G04 #@! TA.AperFunction,ComponentPad*
%ADD11O,1.700000X1.700000*%
G04 #@! TD*
G04 #@! TA.AperFunction,ViaPad*
%ADD12C,0.600000*%
G04 #@! TD*
G04 #@! TA.AperFunction,ViaPad*
%ADD13C,0.900000*%
G04 #@! TD*
G04 #@! TA.AperFunction,Conductor*
%ADD14C,2.000000*%
G04 #@! TD*
G04 #@! TA.AperFunction,Conductor*
%ADD15C,1.000000*%
G04 #@! TD*
G04 #@! TA.AperFunction,Conductor*
%ADD16C,0.254000*%
G04 #@! TD*
G04 APERTURE END LIST*
D10*
X13800000Y28975000D03*
D11*
X13800000Y26435000D03*
X11260000Y28975000D03*
X11260000Y26435000D03*
X8720000Y28975000D03*
X8720000Y26435000D03*
X6180000Y28975000D03*
X6180000Y26435000D03*
D10*
X1900000Y1900000D03*
D11*
X4440000Y1900000D03*
X6980000Y1900000D03*
X9520000Y1900000D03*
X12060000Y1900000D03*
X14600000Y1900000D03*
X17140000Y1900000D03*
X19680000Y1900000D03*
X22220000Y1900000D03*
X24760000Y1900000D03*
X27300000Y1900000D03*
X29840000Y1900000D03*
X32380000Y1900000D03*
X34920000Y1900000D03*
X37460000Y1900000D03*
X40000000Y1900000D03*
X42540000Y1900000D03*
X45080000Y1900000D03*
D10*
X19865000Y32171200D03*
D11*
X22405000Y32171200D03*
D12*
X37500000Y8900000D03*
X40000000Y8900000D03*
X42500000Y8900000D03*
X20300000Y21100000D03*
X20300000Y19800000D03*
X15000000Y7500000D03*
X11400000Y34200000D03*
X12600000Y10800000D03*
X24600000Y12000000D03*
X34378800Y17202500D03*
X21600000Y7500000D03*
X25400000Y18400000D03*
X3400000Y33900000D03*
X36178800Y17102500D03*
X34978800Y10502500D03*
X19000000Y19800000D03*
X19000000Y21100000D03*
X27200000Y20500000D03*
X28100000Y7500000D03*
X19600000Y20500000D03*
X17900000Y12000000D03*
D13*
X14000000Y23200000D03*
X13100000Y23200000D03*
X13100000Y24100000D03*
X13100000Y22300000D03*
X14000000Y22300000D03*
X14000000Y24100000D03*
D14*
X15801911Y27264220D02*
X15801911Y25001911D01*
D15*
X14000000Y24100000D02*
X14000000Y22300000D01*
D14*
X14091131Y28975000D02*
X15801911Y27264220D01*
X15801911Y25001911D02*
X14000000Y23200000D01*
D15*
X13100000Y22300000D02*
X13100000Y24100000D01*
X14000000Y22300000D02*
X13100000Y22300000D01*
D14*
X13800000Y28975000D02*
X14091131Y28975000D01*
D15*
X13100000Y24100000D02*
X14000000Y24100000D01*
D16*
X45974347Y34362314D02*
X46010067Y34361878D01*
X46019064Y34363054D01*
X46081269Y34356046D01*
X46158455Y34329037D01*
X46227702Y34285526D01*
X46285526Y34227702D01*
X46329037Y34158455D01*
X46356046Y34081268D01*
X46362314Y34025641D01*
X46361878Y33989933D01*
X46366000Y33958412D01*
X46366000Y2644367D01*
X46265409Y2799857D01*
X46252810Y2816217D01*
X46102521Y2981382D01*
X46087420Y2995464D01*
X45912173Y3133865D01*
X45894975Y3145291D01*
X45699477Y3253212D01*
X45680643Y3261677D01*
X45470144Y3336219D01*
X45450180Y3341494D01*
X45252096Y3376777D01*
X45181523Y3369030D01*
X45126341Y3324359D01*
X45104000Y3252729D01*
X45104000Y1876000D01*
X45056000Y1876000D01*
X45056000Y3250927D01*
X45035998Y3319048D01*
X44982342Y3365541D01*
X44910941Y3375477D01*
X44745149Y3350107D01*
X44725063Y3345322D01*
X44512805Y3275946D01*
X44493770Y3267944D01*
X44295694Y3164832D01*
X44278221Y3153829D01*
X44099645Y3019750D01*
X44084204Y3006041D01*
X43929925Y2844597D01*
X43916931Y2828550D01*
X43809410Y2670931D01*
X43725806Y2800163D01*
X43713208Y2816523D01*
X43562864Y2981749D01*
X43547762Y2995831D01*
X43372451Y3134284D01*
X43355252Y3145711D01*
X43159682Y3253671D01*
X43140849Y3262135D01*
X42930272Y3336704D01*
X42910308Y3341978D01*
X42690380Y3381153D01*
X42669823Y3383097D01*
X42446450Y3385826D01*
X42425852Y3384385D01*
X42205032Y3350595D01*
X42184946Y3345810D01*
X41972611Y3276408D01*
X41953576Y3268406D01*
X41755427Y3165256D01*
X41737954Y3154253D01*
X41559312Y3020125D01*
X41543871Y3006416D01*
X41389535Y2844913D01*
X41376541Y2828866D01*
X41269116Y2671386D01*
X41185806Y2800163D01*
X41173208Y2816523D01*
X41022864Y2981749D01*
X41007762Y2995831D01*
X40832451Y3134284D01*
X40815252Y3145711D01*
X40619682Y3253671D01*
X40600849Y3262135D01*
X40390272Y3336704D01*
X40370308Y3341978D01*
X40150380Y3381153D01*
X40129823Y3383097D01*
X39906450Y3385826D01*
X39885852Y3384385D01*
X39665032Y3350595D01*
X39644946Y3345810D01*
X39432611Y3276408D01*
X39413576Y3268406D01*
X39215427Y3165256D01*
X39197954Y3154253D01*
X39019312Y3020125D01*
X39003871Y3006416D01*
X38849535Y2844913D01*
X38836541Y2828866D01*
X38729116Y2671386D01*
X38645806Y2800163D01*
X38633208Y2816523D01*
X38482864Y2981749D01*
X38467762Y2995831D01*
X38292451Y3134284D01*
X38275252Y3145711D01*
X38079682Y3253671D01*
X38060849Y3262135D01*
X37850272Y3336704D01*
X37830308Y3341978D01*
X37610380Y3381153D01*
X37589823Y3383097D01*
X37366450Y3385826D01*
X37345852Y3384385D01*
X37125032Y3350595D01*
X37104946Y3345810D01*
X36892611Y3276408D01*
X36873576Y3268406D01*
X36675427Y3165256D01*
X36657954Y3154253D01*
X36479312Y3020125D01*
X36463871Y3006416D01*
X36309535Y2844913D01*
X36296541Y2828866D01*
X36189116Y2671386D01*
X36105806Y2800163D01*
X36093208Y2816523D01*
X35942864Y2981749D01*
X35927762Y2995831D01*
X35752451Y3134284D01*
X35735252Y3145711D01*
X35539682Y3253671D01*
X35520849Y3262135D01*
X35310272Y3336704D01*
X35290308Y3341978D01*
X35070380Y3381153D01*
X35049823Y3383097D01*
X34826450Y3385826D01*
X34805852Y3384385D01*
X34585032Y3350595D01*
X34564946Y3345810D01*
X34352611Y3276408D01*
X34333576Y3268406D01*
X34135427Y3165256D01*
X34117954Y3154253D01*
X33939312Y3020125D01*
X33923871Y3006416D01*
X33769535Y2844913D01*
X33756541Y2828866D01*
X33649116Y2671386D01*
X33565806Y2800163D01*
X33553208Y2816523D01*
X33402864Y2981749D01*
X33387762Y2995831D01*
X33212451Y3134284D01*
X33195252Y3145711D01*
X32999682Y3253671D01*
X32980849Y3262135D01*
X32770272Y3336704D01*
X32750308Y3341978D01*
X32530380Y3381153D01*
X32509823Y3383097D01*
X32286450Y3385826D01*
X32265852Y3384385D01*
X32045032Y3350595D01*
X32024946Y3345810D01*
X31812611Y3276408D01*
X31793576Y3268406D01*
X31595427Y3165256D01*
X31577954Y3154253D01*
X31399312Y3020125D01*
X31383871Y3006416D01*
X31229535Y2844913D01*
X31216541Y2828866D01*
X31109116Y2671386D01*
X31025806Y2800163D01*
X31013208Y2816523D01*
X30862864Y2981749D01*
X30847762Y2995831D01*
X30672451Y3134284D01*
X30655252Y3145711D01*
X30459682Y3253671D01*
X30440849Y3262135D01*
X30230272Y3336704D01*
X30210308Y3341978D01*
X29990380Y3381153D01*
X29969823Y3383097D01*
X29746450Y3385826D01*
X29725852Y3384385D01*
X29505032Y3350595D01*
X29484946Y3345810D01*
X29272611Y3276408D01*
X29253576Y3268406D01*
X29055427Y3165256D01*
X29037954Y3154253D01*
X28859312Y3020125D01*
X28843871Y3006416D01*
X28689535Y2844913D01*
X28676541Y2828866D01*
X28569116Y2671386D01*
X28485806Y2800163D01*
X28473208Y2816523D01*
X28322864Y2981749D01*
X28307762Y2995831D01*
X28132451Y3134284D01*
X28115252Y3145711D01*
X27919682Y3253671D01*
X27900849Y3262135D01*
X27690272Y3336704D01*
X27670308Y3341978D01*
X27450380Y3381153D01*
X27429823Y3383097D01*
X27206450Y3385826D01*
X27185852Y3384385D01*
X26965032Y3350595D01*
X26944946Y3345810D01*
X26732611Y3276408D01*
X26713576Y3268406D01*
X26515427Y3165256D01*
X26497954Y3154253D01*
X26319312Y3020125D01*
X26303871Y3006416D01*
X26149535Y2844913D01*
X26136541Y2828866D01*
X26029116Y2671386D01*
X25945806Y2800163D01*
X25933208Y2816523D01*
X25782864Y2981749D01*
X25767762Y2995831D01*
X25592451Y3134284D01*
X25575252Y3145711D01*
X25379682Y3253671D01*
X25360849Y3262135D01*
X25150272Y3336704D01*
X25130308Y3341978D01*
X24910380Y3381153D01*
X24889823Y3383097D01*
X24666450Y3385826D01*
X24645852Y3384385D01*
X24425032Y3350595D01*
X24404946Y3345810D01*
X24192611Y3276408D01*
X24173576Y3268406D01*
X23975427Y3165256D01*
X23957954Y3154253D01*
X23779312Y3020125D01*
X23763871Y3006416D01*
X23609535Y2844913D01*
X23596541Y2828866D01*
X23489116Y2671386D01*
X23405806Y2800163D01*
X23393208Y2816523D01*
X23242864Y2981749D01*
X23227762Y2995831D01*
X23052451Y3134284D01*
X23035252Y3145711D01*
X22839682Y3253671D01*
X22820849Y3262135D01*
X22610272Y3336704D01*
X22590308Y3341978D01*
X22370380Y3381153D01*
X22349823Y3383097D01*
X22126450Y3385826D01*
X22105852Y3384385D01*
X21885032Y3350595D01*
X21864946Y3345810D01*
X21652611Y3276408D01*
X21633576Y3268406D01*
X21435427Y3165256D01*
X21417954Y3154253D01*
X21239312Y3020125D01*
X21223871Y3006416D01*
X21069535Y2844913D01*
X21056541Y2828866D01*
X20949116Y2671386D01*
X20865806Y2800163D01*
X20853208Y2816523D01*
X20702864Y2981749D01*
X20687762Y2995831D01*
X20512451Y3134284D01*
X20495252Y3145711D01*
X20299682Y3253671D01*
X20280849Y3262135D01*
X20070272Y3336704D01*
X20050308Y3341978D01*
X19830380Y3381153D01*
X19809823Y3383097D01*
X19586450Y3385826D01*
X19565852Y3384385D01*
X19345032Y3350595D01*
X19324946Y3345810D01*
X19112611Y3276408D01*
X19093576Y3268406D01*
X18895427Y3165256D01*
X18877954Y3154253D01*
X18699312Y3020125D01*
X18683871Y3006416D01*
X18529535Y2844913D01*
X18516541Y2828866D01*
X18408810Y2670938D01*
X18325409Y2799857D01*
X18312810Y2816217D01*
X18162521Y2981382D01*
X18147420Y2995464D01*
X17972173Y3133865D01*
X17954975Y3145291D01*
X17759477Y3253212D01*
X17740643Y3261677D01*
X17530144Y3336219D01*
X17510180Y3341494D01*
X17312096Y3376777D01*
X17241523Y3369030D01*
X17186341Y3324359D01*
X17164000Y3252729D01*
X17164000Y1876000D01*
X17116000Y1876000D01*
X17116000Y3250927D01*
X17095998Y3319048D01*
X17042342Y3365541D01*
X16970941Y3375477D01*
X16805149Y3350107D01*
X16785063Y3345322D01*
X16572805Y3275946D01*
X16553770Y3267944D01*
X16355694Y3164832D01*
X16338221Y3153829D01*
X16159645Y3019750D01*
X16144204Y3006041D01*
X15989925Y2844597D01*
X15976931Y2828550D01*
X15869410Y2670931D01*
X15785806Y2800163D01*
X15773208Y2816523D01*
X15622864Y2981749D01*
X15607762Y2995831D01*
X15432451Y3134284D01*
X15415252Y3145711D01*
X15219682Y3253671D01*
X15200849Y3262135D01*
X14990272Y3336704D01*
X14970308Y3341978D01*
X14750380Y3381153D01*
X14729823Y3383097D01*
X14506450Y3385826D01*
X14485852Y3384385D01*
X14265032Y3350595D01*
X14244946Y3345810D01*
X14032611Y3276408D01*
X14013576Y3268406D01*
X13815427Y3165256D01*
X13797954Y3154253D01*
X13619312Y3020125D01*
X13603871Y3006416D01*
X13449535Y2844913D01*
X13436541Y2828866D01*
X13329116Y2671386D01*
X13245806Y2800163D01*
X13233208Y2816523D01*
X13082864Y2981749D01*
X13067762Y2995831D01*
X12892451Y3134284D01*
X12875252Y3145711D01*
X12679682Y3253671D01*
X12660849Y3262135D01*
X12450272Y3336704D01*
X12430308Y3341978D01*
X12210380Y3381153D01*
X12189823Y3383097D01*
X11966450Y3385826D01*
X11945852Y3384385D01*
X11725032Y3350595D01*
X11704946Y3345810D01*
X11492611Y3276408D01*
X11473576Y3268406D01*
X11275427Y3165256D01*
X11257954Y3154253D01*
X11079312Y3020125D01*
X11063871Y3006416D01*
X10909535Y2844913D01*
X10896541Y2828866D01*
X10789116Y2671386D01*
X10705806Y2800163D01*
X10693208Y2816523D01*
X10542864Y2981749D01*
X10527762Y2995831D01*
X10352451Y3134284D01*
X10335252Y3145711D01*
X10139682Y3253671D01*
X10120849Y3262135D01*
X9910272Y3336704D01*
X9890308Y3341978D01*
X9670380Y3381153D01*
X9649823Y3383097D01*
X9426450Y3385826D01*
X9405852Y3384385D01*
X9185032Y3350595D01*
X9164946Y3345810D01*
X8952611Y3276408D01*
X8933576Y3268406D01*
X8735427Y3165256D01*
X8717954Y3154253D01*
X8539312Y3020125D01*
X8523871Y3006416D01*
X8369535Y2844913D01*
X8356541Y2828866D01*
X8249116Y2671386D01*
X8165806Y2800163D01*
X8153208Y2816523D01*
X8002864Y2981749D01*
X7987762Y2995831D01*
X7812451Y3134284D01*
X7795252Y3145711D01*
X7599682Y3253671D01*
X7580849Y3262135D01*
X7370272Y3336704D01*
X7350308Y3341978D01*
X7130380Y3381153D01*
X7109823Y3383097D01*
X6886450Y3385826D01*
X6865852Y3384385D01*
X6645032Y3350595D01*
X6624946Y3345810D01*
X6412611Y3276408D01*
X6393576Y3268406D01*
X6195427Y3165256D01*
X6177954Y3154253D01*
X5999312Y3020125D01*
X5983871Y3006416D01*
X5829535Y2844913D01*
X5816541Y2828866D01*
X5709116Y2671386D01*
X5625806Y2800163D01*
X5613208Y2816523D01*
X5462864Y2981749D01*
X5447762Y2995831D01*
X5272451Y3134284D01*
X5255252Y3145711D01*
X5059682Y3253671D01*
X5040849Y3262135D01*
X4830272Y3336704D01*
X4810308Y3341978D01*
X4590380Y3381153D01*
X4569823Y3383097D01*
X4346450Y3385826D01*
X4325852Y3384385D01*
X4105032Y3350595D01*
X4084946Y3345810D01*
X3872611Y3276408D01*
X3853576Y3268406D01*
X3655427Y3165256D01*
X3637954Y3154253D01*
X3459312Y3020125D01*
X3443871Y3006416D01*
X3363189Y2921987D01*
X3318597Y3040935D01*
X3301441Y3072270D01*
X3214087Y3188826D01*
X3188826Y3214087D01*
X3072270Y3301441D01*
X3040935Y3318597D01*
X2904546Y3369727D01*
X2873924Y3377008D01*
X2811742Y3383763D01*
X2798134Y3384500D01*
X1001866Y3384500D01*
X988258Y3383763D01*
X926076Y3377008D01*
X895454Y3369727D01*
X759065Y3318597D01*
X727730Y3301441D01*
X634000Y3231194D01*
X634000Y26461052D01*
X4691460Y26461052D01*
X4704319Y26238032D01*
X4707193Y26217584D01*
X4756305Y25999660D01*
X4762479Y25979957D01*
X4846523Y25772980D01*
X4855833Y25754549D01*
X4972554Y25564077D01*
X4984750Y25547414D01*
X5131013Y25378564D01*
X5145765Y25364118D01*
X5317641Y25221424D01*
X5334556Y25209580D01*
X5527430Y25096874D01*
X5546051Y25087952D01*
X5754743Y25008260D01*
X5774571Y25002500D01*
X5993476Y24957963D01*
X6013980Y24955518D01*
X6237220Y24947332D01*
X6257847Y24948268D01*
X6479426Y24976653D01*
X6499624Y24980946D01*
X6713592Y25045140D01*
X6732816Y25052675D01*
X6933426Y25150953D01*
X6951162Y25161525D01*
X7133028Y25291248D01*
X7148800Y25304576D01*
X7307036Y25462260D01*
X7320419Y25477985D01*
X7450776Y25659397D01*
X7452442Y25662171D01*
X7512554Y25564077D01*
X7524750Y25547414D01*
X7671013Y25378564D01*
X7685765Y25364118D01*
X7857641Y25221424D01*
X7874556Y25209580D01*
X8067430Y25096874D01*
X8086051Y25087952D01*
X8294743Y25008260D01*
X8314571Y25002500D01*
X8533476Y24957963D01*
X8553980Y24955518D01*
X8777220Y24947332D01*
X8797847Y24948268D01*
X9019426Y24976653D01*
X9039624Y24980946D01*
X9253592Y25045140D01*
X9272816Y25052675D01*
X9473426Y25150953D01*
X9491162Y25161525D01*
X9673028Y25291248D01*
X9688800Y25304576D01*
X9847036Y25462260D01*
X9860419Y25477985D01*
X9990776Y25659397D01*
X9992733Y25662654D01*
X10052959Y25564374D01*
X10065155Y25547712D01*
X10211364Y25378924D01*
X10226116Y25364477D01*
X10397929Y25221835D01*
X10414844Y25209991D01*
X10607647Y25097326D01*
X10626268Y25088404D01*
X10834883Y25008742D01*
X10854712Y25002981D01*
X11073536Y24958461D01*
X11094039Y24956017D01*
X11105383Y24955601D01*
X11174191Y24973093D01*
X11222618Y25025009D01*
X11236000Y25081516D01*
X11236000Y26459000D01*
X11284000Y26459000D01*
X11284000Y25085046D01*
X11304002Y25016925D01*
X11357658Y24970432D01*
X11426010Y24960067D01*
X11559322Y24977144D01*
X11579520Y24981437D01*
X11793409Y25045607D01*
X11812634Y25053142D01*
X12013170Y25151384D01*
X12030905Y25161956D01*
X12212704Y25291631D01*
X12228476Y25304960D01*
X12386653Y25462587D01*
X12400035Y25478311D01*
X12530344Y25659655D01*
X12532146Y25662654D01*
X12592554Y25564077D01*
X12604750Y25547414D01*
X12751013Y25378564D01*
X12765765Y25364118D01*
X12934350Y25224156D01*
X12898692Y25220911D01*
X12891512Y25219542D01*
X12890861Y25219478D01*
X12882690Y25217860D01*
X12874548Y25216307D01*
X12873923Y25216123D01*
X12866748Y25214702D01*
X12775951Y25187288D01*
X12684807Y25160464D01*
X12678009Y25157718D01*
X12677400Y25157534D01*
X12669864Y25154428D01*
X12662015Y25151257D01*
X12661429Y25150951D01*
X12654678Y25148168D01*
X12570825Y25103583D01*
X12486734Y25059621D01*
X12480614Y25055617D01*
X12480037Y25055310D01*
X12473114Y25050710D01*
X12466169Y25046166D01*
X12465661Y25045757D01*
X12459568Y25041709D01*
X12385992Y24981702D01*
X12312023Y24922229D01*
X12306799Y24917113D01*
X12306305Y24916710D01*
X12300386Y24910833D01*
X12294450Y24905019D01*
X12294042Y24904533D01*
X12288853Y24899380D01*
X12228356Y24826251D01*
X12167325Y24753518D01*
X12163193Y24747483D01*
X12162796Y24747003D01*
X12158173Y24740150D01*
X12153424Y24733214D01*
X12153119Y24732659D01*
X12149034Y24726604D01*
X12103864Y24643064D01*
X12058152Y24559914D01*
X12055272Y24553195D01*
X12054969Y24552634D01*
X12051740Y24544954D01*
X12048463Y24537307D01*
X12048271Y24536700D01*
X12045437Y24529960D01*
X12017360Y24439257D01*
X11988663Y24348793D01*
X11987142Y24341638D01*
X11986954Y24341030D01*
X11985283Y24332890D01*
X11983550Y24324737D01*
X11983479Y24324102D01*
X11982008Y24316938D01*
X11972086Y24222532D01*
X11966285Y24170818D01*
X11965870Y24163394D01*
X11961335Y24120245D01*
X11961164Y24095655D01*
X11965500Y24048010D01*
X11965500Y22359873D01*
X11961335Y22320245D01*
X11961164Y22295655D01*
X11965735Y22245433D01*
X11966101Y22237936D01*
X11970496Y22193109D01*
X11979089Y22098692D01*
X11980458Y22091512D01*
X11980522Y22090861D01*
X11982140Y22082690D01*
X11983693Y22074548D01*
X11983877Y22073923D01*
X11985298Y22066748D01*
X12012712Y21975951D01*
X12039536Y21884807D01*
X12042282Y21878009D01*
X12042466Y21877400D01*
X12045572Y21869864D01*
X12048743Y21862015D01*
X12049049Y21861429D01*
X12051832Y21854678D01*
X12096417Y21770825D01*
X12140379Y21686734D01*
X12144383Y21680614D01*
X12144690Y21680037D01*
X12149290Y21673114D01*
X12153834Y21666169D01*
X12154243Y21665661D01*
X12158291Y21659568D01*
X12218298Y21585992D01*
X12277771Y21512023D01*
X12282887Y21506799D01*
X12283290Y21506305D01*
X12289167Y21500386D01*
X12294981Y21494450D01*
X12295467Y21494042D01*
X12300620Y21488853D01*
X12373749Y21428356D01*
X12446482Y21367325D01*
X12452517Y21363193D01*
X12452997Y21362796D01*
X12459850Y21358173D01*
X12466786Y21353424D01*
X12467341Y21353119D01*
X12473396Y21349034D01*
X12556936Y21303864D01*
X12640086Y21258152D01*
X12646805Y21255272D01*
X12647366Y21254969D01*
X12655046Y21251740D01*
X12662693Y21248463D01*
X12663300Y21248271D01*
X12670040Y21245437D01*
X12760743Y21217360D01*
X12851207Y21188663D01*
X12858362Y21187142D01*
X12858970Y21186954D01*
X12867110Y21185283D01*
X12875263Y21183550D01*
X12875898Y21183479D01*
X12883062Y21182008D01*
X12977468Y21172086D01*
X13029182Y21166285D01*
X13036606Y21165870D01*
X13079755Y21161335D01*
X13104345Y21161164D01*
X13151990Y21165500D01*
X13940127Y21165500D01*
X13979755Y21161335D01*
X14004345Y21161164D01*
X14054567Y21165735D01*
X14062064Y21166101D01*
X14106891Y21170496D01*
X14201308Y21179089D01*
X14208488Y21180458D01*
X14209139Y21180522D01*
X14217310Y21182140D01*
X14225452Y21183693D01*
X14226077Y21183877D01*
X14233252Y21185298D01*
X14324049Y21212712D01*
X14415193Y21239536D01*
X14421991Y21242282D01*
X14422600Y21242466D01*
X14430136Y21245572D01*
X14437985Y21248743D01*
X14438571Y21249049D01*
X14445322Y21251832D01*
X14529175Y21296417D01*
X14613266Y21340379D01*
X14619386Y21344383D01*
X14619963Y21344690D01*
X14626886Y21349290D01*
X14633831Y21353834D01*
X14634339Y21354243D01*
X14640432Y21358291D01*
X14714008Y21418298D01*
X14787977Y21477771D01*
X14793201Y21482887D01*
X14793695Y21483290D01*
X14799614Y21489167D01*
X14805550Y21494981D01*
X14805958Y21495467D01*
X14811147Y21500620D01*
X14871644Y21573749D01*
X14932675Y21646482D01*
X14936807Y21652517D01*
X14937204Y21652997D01*
X14941827Y21659850D01*
X14946576Y21666786D01*
X14946881Y21667341D01*
X14950966Y21673396D01*
X14996136Y21756936D01*
X15041848Y21840086D01*
X15044728Y21846805D01*
X15045031Y21847366D01*
X15048260Y21855046D01*
X15051537Y21862693D01*
X15051729Y21863300D01*
X15054563Y21870040D01*
X15082640Y21960743D01*
X15087456Y21975925D01*
X16940672Y23829141D01*
X17013165Y23897694D01*
X17026689Y23912714D01*
X17074416Y23975139D01*
X17125335Y24034968D01*
X17137157Y24051359D01*
X17154178Y24079464D01*
X17174127Y24105556D01*
X17185075Y24122544D01*
X17222194Y24191771D01*
X17262908Y24258997D01*
X17271957Y24277069D01*
X17284263Y24307528D01*
X17299786Y24336478D01*
X17307877Y24354998D01*
X17333458Y24429290D01*
X17362891Y24502140D01*
X17368935Y24521426D01*
X17376212Y24553458D01*
X17386908Y24584520D01*
X17391934Y24604096D01*
X17405306Y24681514D01*
X17422715Y24758140D01*
X17425597Y24778144D01*
X17427659Y24810930D01*
X17433251Y24843300D01*
X17434960Y24859031D01*
X17436281Y24888120D01*
X17436411Y24893836D01*
X17436411Y24950019D01*
X17440840Y25020412D01*
X17440488Y25040620D01*
X17436411Y25082199D01*
X17436411Y27240218D01*
X17439196Y27339906D01*
X17438138Y27360090D01*
X17427746Y27437971D01*
X17421445Y27516290D01*
X17418214Y27536240D01*
X17410377Y27568146D01*
X17406033Y27600704D01*
X17401762Y27620458D01*
X17379055Y27695667D01*
X17360311Y27771980D01*
X17353932Y27791157D01*
X17341094Y27821402D01*
X17331600Y27852847D01*
X17324226Y27871663D01*
X17289788Y27942272D01*
X17259083Y28014608D01*
X17249719Y28032520D01*
X17232212Y28060320D01*
X17217814Y28089841D01*
X17207525Y28107239D01*
X17162230Y28171448D01*
X17120364Y28237930D01*
X17108258Y28254113D01*
X17086527Y28278762D01*
X17067597Y28305597D01*
X17057682Y28317929D01*
X17038047Y28339432D01*
X17034097Y28343565D01*
X16994381Y28383281D01*
X16947727Y28436200D01*
X16933189Y28450240D01*
X16900898Y28476764D01*
X15263901Y30113761D01*
X15195348Y30186254D01*
X15180329Y30199777D01*
X15137614Y30232436D01*
X15114087Y30263827D01*
X15088826Y30289087D01*
X14972270Y30376441D01*
X14940935Y30393597D01*
X14844136Y30429886D01*
X14834043Y30435998D01*
X14815973Y30445046D01*
X14785514Y30457352D01*
X14756564Y30472875D01*
X14738044Y30480966D01*
X14663752Y30506547D01*
X14590902Y30535980D01*
X14571616Y30542024D01*
X14539584Y30549301D01*
X14508522Y30559997D01*
X14488946Y30565023D01*
X14411528Y30578395D01*
X14334902Y30595804D01*
X14314898Y30598686D01*
X14282112Y30600748D01*
X14249742Y30606340D01*
X14234011Y30608049D01*
X14204922Y30609370D01*
X14199206Y30609500D01*
X14143023Y30609500D01*
X14072630Y30613929D01*
X14052422Y30613577D01*
X14010843Y30609500D01*
X13738999Y30609500D01*
X13728894Y30609094D01*
X13547930Y30594534D01*
X13527980Y30591303D01*
X13292239Y30533400D01*
X13273062Y30527021D01*
X13113992Y30459500D01*
X12901866Y30459500D01*
X12888258Y30458763D01*
X12826076Y30452008D01*
X12795454Y30444727D01*
X12659065Y30393597D01*
X12627730Y30376441D01*
X12511174Y30289087D01*
X12485913Y30263826D01*
X12398559Y30147270D01*
X12381403Y30115935D01*
X12336937Y29997323D01*
X12282864Y30056749D01*
X12267762Y30070831D01*
X12092451Y30209284D01*
X12075252Y30220711D01*
X11879682Y30328671D01*
X11860849Y30337135D01*
X11650272Y30411704D01*
X11630308Y30416978D01*
X11410380Y30456153D01*
X11389823Y30458097D01*
X11166450Y30460826D01*
X11145852Y30459385D01*
X10925032Y30425595D01*
X10904946Y30420810D01*
X10692611Y30351408D01*
X10673576Y30343406D01*
X10475427Y30240256D01*
X10457954Y30229253D01*
X10279312Y30095125D01*
X10263871Y30081416D01*
X10109535Y29919913D01*
X10096541Y29903866D01*
X9989116Y29746386D01*
X9905806Y29875163D01*
X9893208Y29891523D01*
X9742864Y30056749D01*
X9727762Y30070831D01*
X9552451Y30209284D01*
X9535252Y30220711D01*
X9339682Y30328671D01*
X9320849Y30337135D01*
X9110272Y30411704D01*
X9090308Y30416978D01*
X8870380Y30456153D01*
X8849823Y30458097D01*
X8626450Y30460826D01*
X8605852Y30459385D01*
X8385032Y30425595D01*
X8364946Y30420810D01*
X8152611Y30351408D01*
X8133576Y30343406D01*
X7935427Y30240256D01*
X7917954Y30229253D01*
X7739312Y30095125D01*
X7723871Y30081416D01*
X7569535Y29919913D01*
X7556541Y29903866D01*
X7449116Y29746386D01*
X7365806Y29875163D01*
X7353208Y29891523D01*
X7202864Y30056749D01*
X7187762Y30070831D01*
X7012451Y30209284D01*
X6995252Y30220711D01*
X6799682Y30328671D01*
X6780849Y30337135D01*
X6570272Y30411704D01*
X6550308Y30416978D01*
X6330380Y30456153D01*
X6309823Y30458097D01*
X6086450Y30460826D01*
X6065852Y30459385D01*
X5845032Y30425595D01*
X5824946Y30420810D01*
X5612611Y30351408D01*
X5593576Y30343406D01*
X5395427Y30240256D01*
X5377954Y30229253D01*
X5199312Y30095125D01*
X5183871Y30081416D01*
X5029535Y29919913D01*
X5016541Y29903866D01*
X4890655Y29719324D01*
X4880455Y29701370D01*
X4786400Y29498745D01*
X4779271Y29479367D01*
X4719572Y29264102D01*
X4715702Y29243819D01*
X4691964Y29021694D01*
X4691460Y29001052D01*
X4704319Y28778032D01*
X4707193Y28757584D01*
X4756305Y28539660D01*
X4762479Y28519957D01*
X4846523Y28312980D01*
X4855833Y28294549D01*
X4972554Y28104077D01*
X4984750Y28087414D01*
X5131013Y27918564D01*
X5145765Y27904118D01*
X5317641Y27761424D01*
X5334556Y27749580D01*
X5407875Y27706736D01*
X5395427Y27700256D01*
X5377954Y27689253D01*
X5199312Y27555125D01*
X5183871Y27541416D01*
X5029535Y27379913D01*
X5016541Y27363866D01*
X4890655Y27179324D01*
X4880455Y27161370D01*
X4786400Y26958745D01*
X4779271Y26939367D01*
X4719572Y26724102D01*
X4715702Y26703819D01*
X4691964Y26481694D01*
X4691460Y26461052D01*
X634000Y26461052D01*
X634000Y31273112D01*
X18381001Y31273112D01*
X18381738Y31259507D01*
X18388485Y31197388D01*
X18395766Y31166763D01*
X18446846Y31030508D01*
X18464002Y30999173D01*
X18551270Y30882731D01*
X18576531Y30857470D01*
X18692973Y30770202D01*
X18724308Y30753046D01*
X18860563Y30701966D01*
X18891185Y30694685D01*
X18953303Y30687937D01*
X18966911Y30687200D01*
X19715000Y30687200D01*
X19783121Y30707202D01*
X19829614Y30760858D01*
X19841000Y30813200D01*
X19841000Y30813201D01*
X19889000Y30813201D01*
X19909002Y30745080D01*
X19962658Y30698587D01*
X20015000Y30687201D01*
X20763088Y30687201D01*
X20776693Y30687938D01*
X20838812Y30694685D01*
X20869437Y30701966D01*
X21005692Y30753046D01*
X21037027Y30770202D01*
X21153469Y30857470D01*
X21178730Y30882731D01*
X21265998Y30999173D01*
X21283154Y31030508D01*
X21327207Y31148018D01*
X21356013Y31114764D01*
X21370765Y31100318D01*
X21542641Y30957624D01*
X21559556Y30945780D01*
X21752430Y30833074D01*
X21771051Y30824152D01*
X21979743Y30744460D01*
X21999571Y30738700D01*
X22218476Y30694163D01*
X22238980Y30691718D01*
X22462220Y30683532D01*
X22482847Y30684468D01*
X22704426Y30712853D01*
X22724624Y30717146D01*
X22938592Y30781340D01*
X22957816Y30788875D01*
X23158426Y30887153D01*
X23176162Y30897725D01*
X23358028Y31027448D01*
X23373800Y31040776D01*
X23532036Y31198460D01*
X23545419Y31214185D01*
X23675776Y31395597D01*
X23686410Y31413296D01*
X23785387Y31613562D01*
X23792988Y31632760D01*
X23857928Y31846502D01*
X23862292Y31866684D01*
X23891451Y32088163D01*
X23892491Y32101532D01*
X23894118Y32168122D01*
X23893732Y32181524D01*
X23875428Y32404163D01*
X23872056Y32424535D01*
X23817635Y32641194D01*
X23810980Y32660741D01*
X23721903Y32865603D01*
X23712146Y32883800D01*
X23590806Y33071363D01*
X23578208Y33087723D01*
X23427864Y33252949D01*
X23412762Y33267031D01*
X23237451Y33405484D01*
X23220252Y33416911D01*
X23024682Y33524871D01*
X23005849Y33533335D01*
X22795272Y33607904D01*
X22775308Y33613178D01*
X22555380Y33652353D01*
X22534823Y33654297D01*
X22311450Y33657026D01*
X22290852Y33655585D01*
X22070032Y33621795D01*
X22049946Y33617010D01*
X21837611Y33547608D01*
X21818576Y33539606D01*
X21620427Y33436456D01*
X21602954Y33425453D01*
X21424312Y33291325D01*
X21408871Y33277616D01*
X21327805Y33192786D01*
X21283154Y33311892D01*
X21265998Y33343227D01*
X21178730Y33459669D01*
X21153469Y33484930D01*
X21037027Y33572198D01*
X21005692Y33589354D01*
X20869437Y33640434D01*
X20838815Y33647715D01*
X20776697Y33654463D01*
X20763089Y33655200D01*
X20015000Y33655200D01*
X19946879Y33635198D01*
X19900386Y33581542D01*
X19889000Y33529200D01*
X19889000Y30813201D01*
X19841000Y30813201D01*
X19841000Y32021200D01*
X19820998Y32089321D01*
X19767342Y32135814D01*
X19715000Y32147200D01*
X18507001Y32147200D01*
X18438880Y32127198D01*
X18392387Y32073542D01*
X18381001Y32021200D01*
X18381001Y31273112D01*
X634000Y31273112D01*
X634000Y32321200D01*
X18381000Y32321200D01*
X18401002Y32253079D01*
X18454658Y32206586D01*
X18507000Y32195200D01*
X19715000Y32195200D01*
X19783121Y32215202D01*
X19829614Y32268858D01*
X19841000Y32321200D01*
X19841000Y33529199D01*
X19820998Y33597320D01*
X19767342Y33643813D01*
X19715000Y33655199D01*
X18966912Y33655199D01*
X18953307Y33654462D01*
X18891188Y33647715D01*
X18860563Y33640434D01*
X18724308Y33589354D01*
X18692973Y33572198D01*
X18576531Y33484930D01*
X18551270Y33459669D01*
X18464002Y33343227D01*
X18446846Y33311892D01*
X18395766Y33175637D01*
X18388485Y33145015D01*
X18381737Y33082897D01*
X18381000Y33069289D01*
X18381000Y32321200D01*
X634000Y32321200D01*
X634000Y33950673D01*
X637686Y33974347D01*
X638122Y34010067D01*
X636946Y34019064D01*
X643954Y34081269D01*
X670963Y34158455D01*
X714474Y34227702D01*
X772298Y34285526D01*
X841545Y34329037D01*
X918732Y34356046D01*
X974359Y34362314D01*
X1010067Y34361878D01*
X1041588Y34366000D01*
X45950673Y34366000D01*
X45974347Y34362314D02*
X45950673Y34366000D01*
G04 #@! TA.AperFunction,Conductor*
G36*
X45974347Y34362314D02*
G01*
X46010067Y34361878D01*
X46019064Y34363054D01*
X46081269Y34356046D01*
X46158455Y34329037D01*
X46227702Y34285526D01*
X46285526Y34227702D01*
X46329037Y34158455D01*
X46356046Y34081268D01*
X46362314Y34025641D01*
X46361878Y33989933D01*
X46366000Y33958412D01*
X46366000Y2644367D01*
X46265409Y2799857D01*
X46252810Y2816217D01*
X46102521Y2981382D01*
X46087420Y2995464D01*
X45912173Y3133865D01*
X45894975Y3145291D01*
X45699477Y3253212D01*
X45680643Y3261677D01*
X45470144Y3336219D01*
X45450180Y3341494D01*
X45252096Y3376777D01*
X45181523Y3369030D01*
X45126341Y3324359D01*
X45104000Y3252729D01*
X45104000Y1876000D01*
X45056000Y1876000D01*
X45056000Y3250927D01*
X45035998Y3319048D01*
X44982342Y3365541D01*
X44910941Y3375477D01*
X44745149Y3350107D01*
X44725063Y3345322D01*
X44512805Y3275946D01*
X44493770Y3267944D01*
X44295694Y3164832D01*
X44278221Y3153829D01*
X44099645Y3019750D01*
X44084204Y3006041D01*
X43929925Y2844597D01*
X43916931Y2828550D01*
X43809410Y2670931D01*
X43725806Y2800163D01*
X43713208Y2816523D01*
X43562864Y2981749D01*
X43547762Y2995831D01*
X43372451Y3134284D01*
X43355252Y3145711D01*
X43159682Y3253671D01*
X43140849Y3262135D01*
X42930272Y3336704D01*
X42910308Y3341978D01*
X42690380Y3381153D01*
X42669823Y3383097D01*
X42446450Y3385826D01*
X42425852Y3384385D01*
X42205032Y3350595D01*
X42184946Y3345810D01*
X41972611Y3276408D01*
X41953576Y3268406D01*
X41755427Y3165256D01*
X41737954Y3154253D01*
X41559312Y3020125D01*
X41543871Y3006416D01*
X41389535Y2844913D01*
X41376541Y2828866D01*
X41269116Y2671386D01*
X41185806Y2800163D01*
X41173208Y2816523D01*
X41022864Y2981749D01*
X41007762Y2995831D01*
X40832451Y3134284D01*
X40815252Y3145711D01*
X40619682Y3253671D01*
X40600849Y3262135D01*
X40390272Y3336704D01*
X40370308Y3341978D01*
X40150380Y3381153D01*
X40129823Y3383097D01*
X39906450Y3385826D01*
X39885852Y3384385D01*
X39665032Y3350595D01*
X39644946Y3345810D01*
X39432611Y3276408D01*
X39413576Y3268406D01*
X39215427Y3165256D01*
X39197954Y3154253D01*
X39019312Y3020125D01*
X39003871Y3006416D01*
X38849535Y2844913D01*
X38836541Y2828866D01*
X38729116Y2671386D01*
X38645806Y2800163D01*
X38633208Y2816523D01*
X38482864Y2981749D01*
X38467762Y2995831D01*
X38292451Y3134284D01*
X38275252Y3145711D01*
X38079682Y3253671D01*
X38060849Y3262135D01*
X37850272Y3336704D01*
X37830308Y3341978D01*
X37610380Y3381153D01*
X37589823Y3383097D01*
X37366450Y3385826D01*
X37345852Y3384385D01*
X37125032Y3350595D01*
X37104946Y3345810D01*
X36892611Y3276408D01*
X36873576Y3268406D01*
X36675427Y3165256D01*
X36657954Y3154253D01*
X36479312Y3020125D01*
X36463871Y3006416D01*
X36309535Y2844913D01*
X36296541Y2828866D01*
X36189116Y2671386D01*
X36105806Y2800163D01*
X36093208Y2816523D01*
X35942864Y2981749D01*
X35927762Y2995831D01*
X35752451Y3134284D01*
X35735252Y3145711D01*
X35539682Y3253671D01*
X35520849Y3262135D01*
X35310272Y3336704D01*
X35290308Y3341978D01*
X35070380Y3381153D01*
X35049823Y3383097D01*
X34826450Y3385826D01*
X34805852Y3384385D01*
X34585032Y3350595D01*
X34564946Y3345810D01*
X34352611Y3276408D01*
X34333576Y3268406D01*
X34135427Y3165256D01*
X34117954Y3154253D01*
X33939312Y3020125D01*
X33923871Y3006416D01*
X33769535Y2844913D01*
X33756541Y2828866D01*
X33649116Y2671386D01*
X33565806Y2800163D01*
X33553208Y2816523D01*
X33402864Y2981749D01*
X33387762Y2995831D01*
X33212451Y3134284D01*
X33195252Y3145711D01*
X32999682Y3253671D01*
X32980849Y3262135D01*
X32770272Y3336704D01*
X32750308Y3341978D01*
X32530380Y3381153D01*
X32509823Y3383097D01*
X32286450Y3385826D01*
X32265852Y3384385D01*
X32045032Y3350595D01*
X32024946Y3345810D01*
X31812611Y3276408D01*
X31793576Y3268406D01*
X31595427Y3165256D01*
X31577954Y3154253D01*
X31399312Y3020125D01*
X31383871Y3006416D01*
X31229535Y2844913D01*
X31216541Y2828866D01*
X31109116Y2671386D01*
X31025806Y2800163D01*
X31013208Y2816523D01*
X30862864Y2981749D01*
X30847762Y2995831D01*
X30672451Y3134284D01*
X30655252Y3145711D01*
X30459682Y3253671D01*
X30440849Y3262135D01*
X30230272Y3336704D01*
X30210308Y3341978D01*
X29990380Y3381153D01*
X29969823Y3383097D01*
X29746450Y3385826D01*
X29725852Y3384385D01*
X29505032Y3350595D01*
X29484946Y3345810D01*
X29272611Y3276408D01*
X29253576Y3268406D01*
X29055427Y3165256D01*
X29037954Y3154253D01*
X28859312Y3020125D01*
X28843871Y3006416D01*
X28689535Y2844913D01*
X28676541Y2828866D01*
X28569116Y2671386D01*
X28485806Y2800163D01*
X28473208Y2816523D01*
X28322864Y2981749D01*
X28307762Y2995831D01*
X28132451Y3134284D01*
X28115252Y3145711D01*
X27919682Y3253671D01*
X27900849Y3262135D01*
X27690272Y3336704D01*
X27670308Y3341978D01*
X27450380Y3381153D01*
X27429823Y3383097D01*
X27206450Y3385826D01*
X27185852Y3384385D01*
X26965032Y3350595D01*
X26944946Y3345810D01*
X26732611Y3276408D01*
X26713576Y3268406D01*
X26515427Y3165256D01*
X26497954Y3154253D01*
X26319312Y3020125D01*
X26303871Y3006416D01*
X26149535Y2844913D01*
X26136541Y2828866D01*
X26029116Y2671386D01*
X25945806Y2800163D01*
X25933208Y2816523D01*
X25782864Y2981749D01*
X25767762Y2995831D01*
X25592451Y3134284D01*
X25575252Y3145711D01*
X25379682Y3253671D01*
X25360849Y3262135D01*
X25150272Y3336704D01*
X25130308Y3341978D01*
X24910380Y3381153D01*
X24889823Y3383097D01*
X24666450Y3385826D01*
X24645852Y3384385D01*
X24425032Y3350595D01*
X24404946Y3345810D01*
X24192611Y3276408D01*
X24173576Y3268406D01*
X23975427Y3165256D01*
X23957954Y3154253D01*
X23779312Y3020125D01*
X23763871Y3006416D01*
X23609535Y2844913D01*
X23596541Y2828866D01*
X23489116Y2671386D01*
X23405806Y2800163D01*
X23393208Y2816523D01*
X23242864Y2981749D01*
X23227762Y2995831D01*
X23052451Y3134284D01*
X23035252Y3145711D01*
X22839682Y3253671D01*
X22820849Y3262135D01*
X22610272Y3336704D01*
X22590308Y3341978D01*
X22370380Y3381153D01*
X22349823Y3383097D01*
X22126450Y3385826D01*
X22105852Y3384385D01*
X21885032Y3350595D01*
X21864946Y3345810D01*
X21652611Y3276408D01*
X21633576Y3268406D01*
X21435427Y3165256D01*
X21417954Y3154253D01*
X21239312Y3020125D01*
X21223871Y3006416D01*
X21069535Y2844913D01*
X21056541Y2828866D01*
X20949116Y2671386D01*
X20865806Y2800163D01*
X20853208Y2816523D01*
X20702864Y2981749D01*
X20687762Y2995831D01*
X20512451Y3134284D01*
X20495252Y3145711D01*
X20299682Y3253671D01*
X20280849Y3262135D01*
X20070272Y3336704D01*
X20050308Y3341978D01*
X19830380Y3381153D01*
X19809823Y3383097D01*
X19586450Y3385826D01*
X19565852Y3384385D01*
X19345032Y3350595D01*
X19324946Y3345810D01*
X19112611Y3276408D01*
X19093576Y3268406D01*
X18895427Y3165256D01*
X18877954Y3154253D01*
X18699312Y3020125D01*
X18683871Y3006416D01*
X18529535Y2844913D01*
X18516541Y2828866D01*
X18408810Y2670938D01*
X18325409Y2799857D01*
X18312810Y2816217D01*
X18162521Y2981382D01*
X18147420Y2995464D01*
X17972173Y3133865D01*
X17954975Y3145291D01*
X17759477Y3253212D01*
X17740643Y3261677D01*
X17530144Y3336219D01*
X17510180Y3341494D01*
X17312096Y3376777D01*
X17241523Y3369030D01*
X17186341Y3324359D01*
X17164000Y3252729D01*
X17164000Y1876000D01*
X17116000Y1876000D01*
X17116000Y3250927D01*
X17095998Y3319048D01*
X17042342Y3365541D01*
X16970941Y3375477D01*
X16805149Y3350107D01*
X16785063Y3345322D01*
X16572805Y3275946D01*
X16553770Y3267944D01*
X16355694Y3164832D01*
X16338221Y3153829D01*
X16159645Y3019750D01*
X16144204Y3006041D01*
X15989925Y2844597D01*
X15976931Y2828550D01*
X15869410Y2670931D01*
X15785806Y2800163D01*
X15773208Y2816523D01*
X15622864Y2981749D01*
X15607762Y2995831D01*
X15432451Y3134284D01*
X15415252Y3145711D01*
X15219682Y3253671D01*
X15200849Y3262135D01*
X14990272Y3336704D01*
X14970308Y3341978D01*
X14750380Y3381153D01*
X14729823Y3383097D01*
X14506450Y3385826D01*
X14485852Y3384385D01*
X14265032Y3350595D01*
X14244946Y3345810D01*
X14032611Y3276408D01*
X14013576Y3268406D01*
X13815427Y3165256D01*
X13797954Y3154253D01*
X13619312Y3020125D01*
X13603871Y3006416D01*
X13449535Y2844913D01*
X13436541Y2828866D01*
X13329116Y2671386D01*
X13245806Y2800163D01*
X13233208Y2816523D01*
X13082864Y2981749D01*
X13067762Y2995831D01*
X12892451Y3134284D01*
X12875252Y3145711D01*
X12679682Y3253671D01*
X12660849Y3262135D01*
X12450272Y3336704D01*
X12430308Y3341978D01*
X12210380Y3381153D01*
X12189823Y3383097D01*
X11966450Y3385826D01*
X11945852Y3384385D01*
X11725032Y3350595D01*
X11704946Y3345810D01*
X11492611Y3276408D01*
X11473576Y3268406D01*
X11275427Y3165256D01*
X11257954Y3154253D01*
X11079312Y3020125D01*
X11063871Y3006416D01*
X10909535Y2844913D01*
X10896541Y2828866D01*
X10789116Y2671386D01*
X10705806Y2800163D01*
X10693208Y2816523D01*
X10542864Y2981749D01*
X10527762Y2995831D01*
X10352451Y3134284D01*
X10335252Y3145711D01*
X10139682Y3253671D01*
X10120849Y3262135D01*
X9910272Y3336704D01*
X9890308Y3341978D01*
X9670380Y3381153D01*
X9649823Y3383097D01*
X9426450Y3385826D01*
X9405852Y3384385D01*
X9185032Y3350595D01*
X9164946Y3345810D01*
X8952611Y3276408D01*
X8933576Y3268406D01*
X8735427Y3165256D01*
X8717954Y3154253D01*
X8539312Y3020125D01*
X8523871Y3006416D01*
X8369535Y2844913D01*
X8356541Y2828866D01*
X8249116Y2671386D01*
X8165806Y2800163D01*
X8153208Y2816523D01*
X8002864Y2981749D01*
X7987762Y2995831D01*
X7812451Y3134284D01*
X7795252Y3145711D01*
X7599682Y3253671D01*
X7580849Y3262135D01*
X7370272Y3336704D01*
X7350308Y3341978D01*
X7130380Y3381153D01*
X7109823Y3383097D01*
X6886450Y3385826D01*
X6865852Y3384385D01*
X6645032Y3350595D01*
X6624946Y3345810D01*
X6412611Y3276408D01*
X6393576Y3268406D01*
X6195427Y3165256D01*
X6177954Y3154253D01*
X5999312Y3020125D01*
X5983871Y3006416D01*
X5829535Y2844913D01*
X5816541Y2828866D01*
X5709116Y2671386D01*
X5625806Y2800163D01*
X5613208Y2816523D01*
X5462864Y2981749D01*
X5447762Y2995831D01*
X5272451Y3134284D01*
X5255252Y3145711D01*
X5059682Y3253671D01*
X5040849Y3262135D01*
X4830272Y3336704D01*
X4810308Y3341978D01*
X4590380Y3381153D01*
X4569823Y3383097D01*
X4346450Y3385826D01*
X4325852Y3384385D01*
X4105032Y3350595D01*
X4084946Y3345810D01*
X3872611Y3276408D01*
X3853576Y3268406D01*
X3655427Y3165256D01*
X3637954Y3154253D01*
X3459312Y3020125D01*
X3443871Y3006416D01*
X3363189Y2921987D01*
X3318597Y3040935D01*
X3301441Y3072270D01*
X3214087Y3188826D01*
X3188826Y3214087D01*
X3072270Y3301441D01*
X3040935Y3318597D01*
X2904546Y3369727D01*
X2873924Y3377008D01*
X2811742Y3383763D01*
X2798134Y3384500D01*
X1001866Y3384500D01*
X988258Y3383763D01*
X926076Y3377008D01*
X895454Y3369727D01*
X759065Y3318597D01*
X727730Y3301441D01*
X634000Y3231194D01*
X634000Y26461052D01*
X4691460Y26461052D01*
X4704319Y26238032D01*
X4707193Y26217584D01*
X4756305Y25999660D01*
X4762479Y25979957D01*
X4846523Y25772980D01*
X4855833Y25754549D01*
X4972554Y25564077D01*
X4984750Y25547414D01*
X5131013Y25378564D01*
X5145765Y25364118D01*
X5317641Y25221424D01*
X5334556Y25209580D01*
X5527430Y25096874D01*
X5546051Y25087952D01*
X5754743Y25008260D01*
X5774571Y25002500D01*
X5993476Y24957963D01*
X6013980Y24955518D01*
X6237220Y24947332D01*
X6257847Y24948268D01*
X6479426Y24976653D01*
X6499624Y24980946D01*
X6713592Y25045140D01*
X6732816Y25052675D01*
X6933426Y25150953D01*
X6951162Y25161525D01*
X7133028Y25291248D01*
X7148800Y25304576D01*
X7307036Y25462260D01*
X7320419Y25477985D01*
X7450776Y25659397D01*
X7452442Y25662171D01*
X7512554Y25564077D01*
X7524750Y25547414D01*
X7671013Y25378564D01*
X7685765Y25364118D01*
X7857641Y25221424D01*
X7874556Y25209580D01*
X8067430Y25096874D01*
X8086051Y25087952D01*
X8294743Y25008260D01*
X8314571Y25002500D01*
X8533476Y24957963D01*
X8553980Y24955518D01*
X8777220Y24947332D01*
X8797847Y24948268D01*
X9019426Y24976653D01*
X9039624Y24980946D01*
X9253592Y25045140D01*
X9272816Y25052675D01*
X9473426Y25150953D01*
X9491162Y25161525D01*
X9673028Y25291248D01*
X9688800Y25304576D01*
X9847036Y25462260D01*
X9860419Y25477985D01*
X9990776Y25659397D01*
X9992733Y25662654D01*
X10052959Y25564374D01*
X10065155Y25547712D01*
X10211364Y25378924D01*
X10226116Y25364477D01*
X10397929Y25221835D01*
X10414844Y25209991D01*
X10607647Y25097326D01*
X10626268Y25088404D01*
X10834883Y25008742D01*
X10854712Y25002981D01*
X11073536Y24958461D01*
X11094039Y24956017D01*
X11105383Y24955601D01*
X11174191Y24973093D01*
X11222618Y25025009D01*
X11236000Y25081516D01*
X11236000Y26459000D01*
X11284000Y26459000D01*
X11284000Y25085046D01*
X11304002Y25016925D01*
X11357658Y24970432D01*
X11426010Y24960067D01*
X11559322Y24977144D01*
X11579520Y24981437D01*
X11793409Y25045607D01*
X11812634Y25053142D01*
X12013170Y25151384D01*
X12030905Y25161956D01*
X12212704Y25291631D01*
X12228476Y25304960D01*
X12386653Y25462587D01*
X12400035Y25478311D01*
X12530344Y25659655D01*
X12532146Y25662654D01*
X12592554Y25564077D01*
X12604750Y25547414D01*
X12751013Y25378564D01*
X12765765Y25364118D01*
X12934350Y25224156D01*
X12898692Y25220911D01*
X12891512Y25219542D01*
X12890861Y25219478D01*
X12882690Y25217860D01*
X12874548Y25216307D01*
X12873923Y25216123D01*
X12866748Y25214702D01*
X12775951Y25187288D01*
X12684807Y25160464D01*
X12678009Y25157718D01*
X12677400Y25157534D01*
X12669864Y25154428D01*
X12662015Y25151257D01*
X12661429Y25150951D01*
X12654678Y25148168D01*
X12570825Y25103583D01*
X12486734Y25059621D01*
X12480614Y25055617D01*
X12480037Y25055310D01*
X12473114Y25050710D01*
X12466169Y25046166D01*
X12465661Y25045757D01*
X12459568Y25041709D01*
X12385992Y24981702D01*
X12312023Y24922229D01*
X12306799Y24917113D01*
X12306305Y24916710D01*
X12300386Y24910833D01*
X12294450Y24905019D01*
X12294042Y24904533D01*
X12288853Y24899380D01*
X12228356Y24826251D01*
X12167325Y24753518D01*
X12163193Y24747483D01*
X12162796Y24747003D01*
X12158173Y24740150D01*
X12153424Y24733214D01*
X12153119Y24732659D01*
X12149034Y24726604D01*
X12103864Y24643064D01*
X12058152Y24559914D01*
X12055272Y24553195D01*
X12054969Y24552634D01*
X12051740Y24544954D01*
X12048463Y24537307D01*
X12048271Y24536700D01*
X12045437Y24529960D01*
X12017360Y24439257D01*
X11988663Y24348793D01*
X11987142Y24341638D01*
X11986954Y24341030D01*
X11985283Y24332890D01*
X11983550Y24324737D01*
X11983479Y24324102D01*
X11982008Y24316938D01*
X11972086Y24222532D01*
X11966285Y24170818D01*
X11965870Y24163394D01*
X11961335Y24120245D01*
X11961164Y24095655D01*
X11965500Y24048010D01*
X11965500Y22359873D01*
X11961335Y22320245D01*
X11961164Y22295655D01*
X11965735Y22245433D01*
X11966101Y22237936D01*
X11970496Y22193109D01*
X11979089Y22098692D01*
X11980458Y22091512D01*
X11980522Y22090861D01*
X11982140Y22082690D01*
X11983693Y22074548D01*
X11983877Y22073923D01*
X11985298Y22066748D01*
X12012712Y21975951D01*
X12039536Y21884807D01*
X12042282Y21878009D01*
X12042466Y21877400D01*
X12045572Y21869864D01*
X12048743Y21862015D01*
X12049049Y21861429D01*
X12051832Y21854678D01*
X12096417Y21770825D01*
X12140379Y21686734D01*
X12144383Y21680614D01*
X12144690Y21680037D01*
X12149290Y21673114D01*
X12153834Y21666169D01*
X12154243Y21665661D01*
X12158291Y21659568D01*
X12218298Y21585992D01*
X12277771Y21512023D01*
X12282887Y21506799D01*
X12283290Y21506305D01*
X12289167Y21500386D01*
X12294981Y21494450D01*
X12295467Y21494042D01*
X12300620Y21488853D01*
X12373749Y21428356D01*
X12446482Y21367325D01*
X12452517Y21363193D01*
X12452997Y21362796D01*
X12459850Y21358173D01*
X12466786Y21353424D01*
X12467341Y21353119D01*
X12473396Y21349034D01*
X12556936Y21303864D01*
X12640086Y21258152D01*
X12646805Y21255272D01*
X12647366Y21254969D01*
X12655046Y21251740D01*
X12662693Y21248463D01*
X12663300Y21248271D01*
X12670040Y21245437D01*
X12760743Y21217360D01*
X12851207Y21188663D01*
X12858362Y21187142D01*
X12858970Y21186954D01*
X12867110Y21185283D01*
X12875263Y21183550D01*
X12875898Y21183479D01*
X12883062Y21182008D01*
X12977468Y21172086D01*
X13029182Y21166285D01*
X13036606Y21165870D01*
X13079755Y21161335D01*
X13104345Y21161164D01*
X13151990Y21165500D01*
X13940127Y21165500D01*
X13979755Y21161335D01*
X14004345Y21161164D01*
X14054567Y21165735D01*
X14062064Y21166101D01*
X14106891Y21170496D01*
X14201308Y21179089D01*
X14208488Y21180458D01*
X14209139Y21180522D01*
X14217310Y21182140D01*
X14225452Y21183693D01*
X14226077Y21183877D01*
X14233252Y21185298D01*
X14324049Y21212712D01*
X14415193Y21239536D01*
X14421991Y21242282D01*
X14422600Y21242466D01*
X14430136Y21245572D01*
X14437985Y21248743D01*
X14438571Y21249049D01*
X14445322Y21251832D01*
X14529175Y21296417D01*
X14613266Y21340379D01*
X14619386Y21344383D01*
X14619963Y21344690D01*
X14626886Y21349290D01*
X14633831Y21353834D01*
X14634339Y21354243D01*
X14640432Y21358291D01*
X14714008Y21418298D01*
X14787977Y21477771D01*
X14793201Y21482887D01*
X14793695Y21483290D01*
X14799614Y21489167D01*
X14805550Y21494981D01*
X14805958Y21495467D01*
X14811147Y21500620D01*
X14871644Y21573749D01*
X14932675Y21646482D01*
X14936807Y21652517D01*
X14937204Y21652997D01*
X14941827Y21659850D01*
X14946576Y21666786D01*
X14946881Y21667341D01*
X14950966Y21673396D01*
X14996136Y21756936D01*
X15041848Y21840086D01*
X15044728Y21846805D01*
X15045031Y21847366D01*
X15048260Y21855046D01*
X15051537Y21862693D01*
X15051729Y21863300D01*
X15054563Y21870040D01*
X15082640Y21960743D01*
X15087456Y21975925D01*
X16940672Y23829141D01*
X17013165Y23897694D01*
X17026689Y23912714D01*
X17074416Y23975139D01*
X17125335Y24034968D01*
X17137157Y24051359D01*
X17154178Y24079464D01*
X17174127Y24105556D01*
X17185075Y24122544D01*
X17222194Y24191771D01*
X17262908Y24258997D01*
X17271957Y24277069D01*
X17284263Y24307528D01*
X17299786Y24336478D01*
X17307877Y24354998D01*
X17333458Y24429290D01*
X17362891Y24502140D01*
X17368935Y24521426D01*
X17376212Y24553458D01*
X17386908Y24584520D01*
X17391934Y24604096D01*
X17405306Y24681514D01*
X17422715Y24758140D01*
X17425597Y24778144D01*
X17427659Y24810930D01*
X17433251Y24843300D01*
X17434960Y24859031D01*
X17436281Y24888120D01*
X17436411Y24893836D01*
X17436411Y24950019D01*
X17440840Y25020412D01*
X17440488Y25040620D01*
X17436411Y25082199D01*
X17436411Y27240218D01*
X17439196Y27339906D01*
X17438138Y27360090D01*
X17427746Y27437971D01*
X17421445Y27516290D01*
X17418214Y27536240D01*
X17410377Y27568146D01*
X17406033Y27600704D01*
X17401762Y27620458D01*
X17379055Y27695667D01*
X17360311Y27771980D01*
X17353932Y27791157D01*
X17341094Y27821402D01*
X17331600Y27852847D01*
X17324226Y27871663D01*
X17289788Y27942272D01*
X17259083Y28014608D01*
X17249719Y28032520D01*
X17232212Y28060320D01*
X17217814Y28089841D01*
X17207525Y28107239D01*
X17162230Y28171448D01*
X17120364Y28237930D01*
X17108258Y28254113D01*
X17086527Y28278762D01*
X17067597Y28305597D01*
X17057682Y28317929D01*
X17038047Y28339432D01*
X17034097Y28343565D01*
X16994381Y28383281D01*
X16947727Y28436200D01*
X16933189Y28450240D01*
X16900898Y28476764D01*
X15263901Y30113761D01*
X15195348Y30186254D01*
X15180329Y30199777D01*
X15137614Y30232436D01*
X15114087Y30263827D01*
X15088826Y30289087D01*
X14972270Y30376441D01*
X14940935Y30393597D01*
X14844136Y30429886D01*
X14834043Y30435998D01*
X14815973Y30445046D01*
X14785514Y30457352D01*
X14756564Y30472875D01*
X14738044Y30480966D01*
X14663752Y30506547D01*
X14590902Y30535980D01*
X14571616Y30542024D01*
X14539584Y30549301D01*
X14508522Y30559997D01*
X14488946Y30565023D01*
X14411528Y30578395D01*
X14334902Y30595804D01*
X14314898Y30598686D01*
X14282112Y30600748D01*
X14249742Y30606340D01*
X14234011Y30608049D01*
X14204922Y30609370D01*
X14199206Y30609500D01*
X14143023Y30609500D01*
X14072630Y30613929D01*
X14052422Y30613577D01*
X14010843Y30609500D01*
X13738999Y30609500D01*
X13728894Y30609094D01*
X13547930Y30594534D01*
X13527980Y30591303D01*
X13292239Y30533400D01*
X13273062Y30527021D01*
X13113992Y30459500D01*
X12901866Y30459500D01*
X12888258Y30458763D01*
X12826076Y30452008D01*
X12795454Y30444727D01*
X12659065Y30393597D01*
X12627730Y30376441D01*
X12511174Y30289087D01*
X12485913Y30263826D01*
X12398559Y30147270D01*
X12381403Y30115935D01*
X12336937Y29997323D01*
X12282864Y30056749D01*
X12267762Y30070831D01*
X12092451Y30209284D01*
X12075252Y30220711D01*
X11879682Y30328671D01*
X11860849Y30337135D01*
X11650272Y30411704D01*
X11630308Y30416978D01*
X11410380Y30456153D01*
X11389823Y30458097D01*
X11166450Y30460826D01*
X11145852Y30459385D01*
X10925032Y30425595D01*
X10904946Y30420810D01*
X10692611Y30351408D01*
X10673576Y30343406D01*
X10475427Y30240256D01*
X10457954Y30229253D01*
X10279312Y30095125D01*
X10263871Y30081416D01*
X10109535Y29919913D01*
X10096541Y29903866D01*
X9989116Y29746386D01*
X9905806Y29875163D01*
X9893208Y29891523D01*
X9742864Y30056749D01*
X9727762Y30070831D01*
X9552451Y30209284D01*
X9535252Y30220711D01*
X9339682Y30328671D01*
X9320849Y30337135D01*
X9110272Y30411704D01*
X9090308Y30416978D01*
X8870380Y30456153D01*
X8849823Y30458097D01*
X8626450Y30460826D01*
X8605852Y30459385D01*
X8385032Y30425595D01*
X8364946Y30420810D01*
X8152611Y30351408D01*
X8133576Y30343406D01*
X7935427Y30240256D01*
X7917954Y30229253D01*
X7739312Y30095125D01*
X7723871Y30081416D01*
X7569535Y29919913D01*
X7556541Y29903866D01*
X7449116Y29746386D01*
X7365806Y29875163D01*
X7353208Y29891523D01*
X7202864Y30056749D01*
X7187762Y30070831D01*
X7012451Y30209284D01*
X6995252Y30220711D01*
X6799682Y30328671D01*
X6780849Y30337135D01*
X6570272Y30411704D01*
X6550308Y30416978D01*
X6330380Y30456153D01*
X6309823Y30458097D01*
X6086450Y30460826D01*
X6065852Y30459385D01*
X5845032Y30425595D01*
X5824946Y30420810D01*
X5612611Y30351408D01*
X5593576Y30343406D01*
X5395427Y30240256D01*
X5377954Y30229253D01*
X5199312Y30095125D01*
X5183871Y30081416D01*
X5029535Y29919913D01*
X5016541Y29903866D01*
X4890655Y29719324D01*
X4880455Y29701370D01*
X4786400Y29498745D01*
X4779271Y29479367D01*
X4719572Y29264102D01*
X4715702Y29243819D01*
X4691964Y29021694D01*
X4691460Y29001052D01*
X4704319Y28778032D01*
X4707193Y28757584D01*
X4756305Y28539660D01*
X4762479Y28519957D01*
X4846523Y28312980D01*
X4855833Y28294549D01*
X4972554Y28104077D01*
X4984750Y28087414D01*
X5131013Y27918564D01*
X5145765Y27904118D01*
X5317641Y27761424D01*
X5334556Y27749580D01*
X5407875Y27706736D01*
X5395427Y27700256D01*
X5377954Y27689253D01*
X5199312Y27555125D01*
X5183871Y27541416D01*
X5029535Y27379913D01*
X5016541Y27363866D01*
X4890655Y27179324D01*
X4880455Y27161370D01*
X4786400Y26958745D01*
X4779271Y26939367D01*
X4719572Y26724102D01*
X4715702Y26703819D01*
X4691964Y26481694D01*
X4691460Y26461052D01*
X634000Y26461052D01*
X634000Y31273112D01*
X18381001Y31273112D01*
X18381738Y31259507D01*
X18388485Y31197388D01*
X18395766Y31166763D01*
X18446846Y31030508D01*
X18464002Y30999173D01*
X18551270Y30882731D01*
X18576531Y30857470D01*
X18692973Y30770202D01*
X18724308Y30753046D01*
X18860563Y30701966D01*
X18891185Y30694685D01*
X18953303Y30687937D01*
X18966911Y30687200D01*
X19715000Y30687200D01*
X19783121Y30707202D01*
X19829614Y30760858D01*
X19841000Y30813200D01*
X19841000Y30813201D01*
X19889000Y30813201D01*
X19909002Y30745080D01*
X19962658Y30698587D01*
X20015000Y30687201D01*
X20763088Y30687201D01*
X20776693Y30687938D01*
X20838812Y30694685D01*
X20869437Y30701966D01*
X21005692Y30753046D01*
X21037027Y30770202D01*
X21153469Y30857470D01*
X21178730Y30882731D01*
X21265998Y30999173D01*
X21283154Y31030508D01*
X21327207Y31148018D01*
X21356013Y31114764D01*
X21370765Y31100318D01*
X21542641Y30957624D01*
X21559556Y30945780D01*
X21752430Y30833074D01*
X21771051Y30824152D01*
X21979743Y30744460D01*
X21999571Y30738700D01*
X22218476Y30694163D01*
X22238980Y30691718D01*
X22462220Y30683532D01*
X22482847Y30684468D01*
X22704426Y30712853D01*
X22724624Y30717146D01*
X22938592Y30781340D01*
X22957816Y30788875D01*
X23158426Y30887153D01*
X23176162Y30897725D01*
X23358028Y31027448D01*
X23373800Y31040776D01*
X23532036Y31198460D01*
X23545419Y31214185D01*
X23675776Y31395597D01*
X23686410Y31413296D01*
X23785387Y31613562D01*
X23792988Y31632760D01*
X23857928Y31846502D01*
X23862292Y31866684D01*
X23891451Y32088163D01*
X23892491Y32101532D01*
X23894118Y32168122D01*
X23893732Y32181524D01*
X23875428Y32404163D01*
X23872056Y32424535D01*
X23817635Y32641194D01*
X23810980Y32660741D01*
X23721903Y32865603D01*
X23712146Y32883800D01*
X23590806Y33071363D01*
X23578208Y33087723D01*
X23427864Y33252949D01*
X23412762Y33267031D01*
X23237451Y33405484D01*
X23220252Y33416911D01*
X23024682Y33524871D01*
X23005849Y33533335D01*
X22795272Y33607904D01*
X22775308Y33613178D01*
X22555380Y33652353D01*
X22534823Y33654297D01*
X22311450Y33657026D01*
X22290852Y33655585D01*
X22070032Y33621795D01*
X22049946Y33617010D01*
X21837611Y33547608D01*
X21818576Y33539606D01*
X21620427Y33436456D01*
X21602954Y33425453D01*
X21424312Y33291325D01*
X21408871Y33277616D01*
X21327805Y33192786D01*
X21283154Y33311892D01*
X21265998Y33343227D01*
X21178730Y33459669D01*
X21153469Y33484930D01*
X21037027Y33572198D01*
X21005692Y33589354D01*
X20869437Y33640434D01*
X20838815Y33647715D01*
X20776697Y33654463D01*
X20763089Y33655200D01*
X20015000Y33655200D01*
X19946879Y33635198D01*
X19900386Y33581542D01*
X19889000Y33529200D01*
X19889000Y30813201D01*
X19841000Y30813201D01*
X19841000Y32021200D01*
X19820998Y32089321D01*
X19767342Y32135814D01*
X19715000Y32147200D01*
X18507001Y32147200D01*
X18438880Y32127198D01*
X18392387Y32073542D01*
X18381001Y32021200D01*
X18381001Y31273112D01*
X634000Y31273112D01*
X634000Y32321200D01*
X18381000Y32321200D01*
X18401002Y32253079D01*
X18454658Y32206586D01*
X18507000Y32195200D01*
X19715000Y32195200D01*
X19783121Y32215202D01*
X19829614Y32268858D01*
X19841000Y32321200D01*
X19841000Y33529199D01*
X19820998Y33597320D01*
X19767342Y33643813D01*
X19715000Y33655199D01*
X18966912Y33655199D01*
X18953307Y33654462D01*
X18891188Y33647715D01*
X18860563Y33640434D01*
X18724308Y33589354D01*
X18692973Y33572198D01*
X18576531Y33484930D01*
X18551270Y33459669D01*
X18464002Y33343227D01*
X18446846Y33311892D01*
X18395766Y33175637D01*
X18388485Y33145015D01*
X18381737Y33082897D01*
X18381000Y33069289D01*
X18381000Y32321200D01*
X634000Y32321200D01*
X634000Y33950673D01*
X637686Y33974347D01*
X638122Y34010067D01*
X636946Y34019064D01*
X643954Y34081269D01*
X670963Y34158455D01*
X714474Y34227702D01*
X772298Y34285526D01*
X841545Y34329037D01*
X918732Y34356046D01*
X974359Y34362314D01*
X1010067Y34361878D01*
X1041588Y34366000D01*
X45950673Y34366000D01*
X45974347Y34362314D01*
G37*
G04 #@! TD.AperFunction*
M02*
