G04 #@! TF.GenerationSoftware,KiCad,Pcbnew,(6.0.1)*
G04 #@! TF.CreationDate,2022-01-16T17:21:19+09:00*
G04 #@! TF.ProjectId,BrushlessMotorDriver_DRV8311,42727573-686c-4657-9373-4d6f746f7244,rev?*
G04 #@! TF.SameCoordinates,PX7270e00PY8b3c880*
G04 #@! TF.FileFunction,Legend,Top*
G04 #@! TF.FilePolarity,Positive*
%FSLAX46Y46*%
G04 Gerber Fmt 4.6, Leading zero omitted, Abs format (unit mm)*
G04 Created by KiCad (PCBNEW (6.0.1)) date 2022-01-16 17:21:19*
%MOMM*%
%LPD*%
G01*
G04 APERTURE LIST*
%ADD10C,0.150000*%
%ADD11C,0.120000*%
G04 APERTURE END LIST*
D10*
X19261904Y3419048D02*
X19261904Y3914286D01*
X19566666Y3647620D01*
X19566666Y3761905D01*
X19604761Y3838096D01*
X19642857Y3876191D01*
X19719047Y3914286D01*
X19909523Y3914286D01*
X19985714Y3876191D01*
X20023809Y3838096D01*
X20061904Y3761905D01*
X20061904Y3533334D01*
X20023809Y3457143D01*
X19985714Y3419048D01*
X19985714Y4257143D02*
X20023809Y4295239D01*
X20061904Y4257143D01*
X20023809Y4219048D01*
X19985714Y4257143D01*
X20061904Y4257143D01*
X19261904Y4561905D02*
X19261904Y5057143D01*
X19566666Y4790477D01*
X19566666Y4904762D01*
X19604761Y4980953D01*
X19642857Y5019048D01*
X19719047Y5057143D01*
X19909523Y5057143D01*
X19985714Y5019048D01*
X20023809Y4980953D01*
X20061904Y4904762D01*
X20061904Y4676191D01*
X20023809Y4600000D01*
X19985714Y4561905D01*
X19261904Y5285715D02*
X20061904Y5552381D01*
X19261904Y5819048D01*
X32128571Y3395239D02*
X32661904Y3395239D01*
X32204761Y3395239D02*
X32166666Y3433334D01*
X32128571Y3509524D01*
X32128571Y3623810D01*
X32166666Y3700000D01*
X32242857Y3738096D01*
X32661904Y3738096D01*
X32242857Y4385715D02*
X32242857Y4119048D01*
X32661904Y4119048D02*
X31861904Y4119048D01*
X31861904Y4500000D01*
X32433333Y4766667D02*
X32433333Y5147620D01*
X32661904Y4690477D02*
X31861904Y4957143D01*
X32661904Y5223810D01*
X31861904Y5490477D02*
X32509523Y5490477D01*
X32585714Y5528572D01*
X32623809Y5566667D01*
X32661904Y5642858D01*
X32661904Y5795239D01*
X32623809Y5871429D01*
X32585714Y5909524D01*
X32509523Y5947620D01*
X31861904Y5947620D01*
X32661904Y6709524D02*
X32661904Y6328572D01*
X31861904Y6328572D01*
X31861904Y6861905D02*
X31861904Y7319048D01*
X32661904Y7090477D02*
X31861904Y7090477D01*
X2361904Y3390477D02*
X1561904Y3390477D01*
X1942857Y3390477D02*
X1942857Y3847619D01*
X2361904Y3847619D02*
X1561904Y3847619D01*
X2361904Y4571429D02*
X1942857Y4571429D01*
X1866666Y4533334D01*
X1828571Y4457143D01*
X1828571Y4304762D01*
X1866666Y4228572D01*
X2323809Y4571429D02*
X2361904Y4495238D01*
X2361904Y4304762D01*
X2323809Y4228572D01*
X2247619Y4190477D01*
X2171428Y4190477D01*
X2095238Y4228572D01*
X2057142Y4304762D01*
X2057142Y4495238D01*
X2019047Y4571429D01*
X2361904Y5066667D02*
X2323809Y4990477D01*
X2247619Y4952381D01*
X1561904Y4952381D01*
X2361904Y5485715D02*
X2323809Y5409524D01*
X2247619Y5371429D01*
X1561904Y5371429D01*
X2133333Y5752381D02*
X2133333Y6133334D01*
X2361904Y5676191D02*
X1561904Y5942857D01*
X2361904Y6209524D01*
X9047619Y31238096D02*
X8666666Y31238096D01*
X8628571Y30857143D01*
X8666666Y30895239D01*
X8742857Y30933334D01*
X8933333Y30933334D01*
X9009523Y30895239D01*
X9047619Y30857143D01*
X9085714Y30780953D01*
X9085714Y30590477D01*
X9047619Y30514286D01*
X9009523Y30476191D01*
X8933333Y30438096D01*
X8742857Y30438096D01*
X8666666Y30476191D01*
X8628571Y30514286D01*
X9314285Y31238096D02*
X9580952Y30438096D01*
X9847619Y31238096D01*
X10900000Y23190477D02*
X10861904Y23114286D01*
X10861904Y23000000D01*
X10900000Y22885715D01*
X10976190Y22809524D01*
X11052380Y22771429D01*
X11204761Y22733334D01*
X11319047Y22733334D01*
X11471428Y22771429D01*
X11547619Y22809524D01*
X11623809Y22885715D01*
X11661904Y23000000D01*
X11661904Y23076191D01*
X11623809Y23190477D01*
X11585714Y23228572D01*
X11319047Y23228572D01*
X11319047Y23076191D01*
X11661904Y23571429D02*
X10861904Y23571429D01*
X11661904Y24028572D01*
X10861904Y24028572D01*
X11661904Y24409524D02*
X10861904Y24409524D01*
X10861904Y24600000D01*
X10900000Y24714286D01*
X10976190Y24790477D01*
X11052380Y24828572D01*
X11204761Y24866667D01*
X11319047Y24866667D01*
X11471428Y24828572D01*
X11547619Y24790477D01*
X11623809Y24714286D01*
X11661904Y24600000D01*
X11661904Y24409524D01*
X27890476Y10618820D02*
X27890476Y11618820D01*
X28223809Y10904534D01*
X28557142Y11618820D01*
X28557142Y10618820D01*
X29223809Y11618820D02*
X29414285Y11618820D01*
X29509523Y11571200D01*
X29604761Y11475962D01*
X29652380Y11285486D01*
X29652380Y10952153D01*
X29604761Y10761677D01*
X29509523Y10666439D01*
X29414285Y10618820D01*
X29223809Y10618820D01*
X29128571Y10666439D01*
X29033333Y10761677D01*
X28985714Y10952153D01*
X28985714Y11285486D01*
X29033333Y11475962D01*
X29128571Y11571200D01*
X29223809Y11618820D01*
X30080952Y10618820D02*
X30080952Y11618820D01*
X30319047Y11618820D01*
X30461904Y11571200D01*
X30557142Y11475962D01*
X30604761Y11380724D01*
X30652380Y11190248D01*
X30652380Y11047391D01*
X30604761Y10856915D01*
X30557142Y10761677D01*
X30461904Y10666439D01*
X30319047Y10618820D01*
X30080952Y10618820D01*
X31080952Y11142629D02*
X31414285Y11142629D01*
X31557142Y10618820D02*
X31080952Y10618820D01*
X31080952Y11618820D01*
X31557142Y11618820D01*
X37823809Y3428572D02*
X37861904Y3542858D01*
X37861904Y3733334D01*
X37823809Y3809525D01*
X37785714Y3847620D01*
X37709523Y3885715D01*
X37633333Y3885715D01*
X37557142Y3847620D01*
X37519047Y3809525D01*
X37480952Y3733334D01*
X37442857Y3580953D01*
X37404761Y3504763D01*
X37366666Y3466668D01*
X37290476Y3428572D01*
X37214285Y3428572D01*
X37138095Y3466668D01*
X37100000Y3504763D01*
X37061904Y3580953D01*
X37061904Y3771430D01*
X37100000Y3885715D01*
X37061904Y4380953D02*
X37061904Y4533334D01*
X37100000Y4609525D01*
X37176190Y4685715D01*
X37328571Y4723811D01*
X37595238Y4723811D01*
X37747619Y4685715D01*
X37823809Y4609525D01*
X37861904Y4533334D01*
X37861904Y4380953D01*
X37823809Y4304763D01*
X37747619Y4228572D01*
X37595238Y4190477D01*
X37328571Y4190477D01*
X37176190Y4228572D01*
X37100000Y4304763D01*
X37061904Y4380953D01*
X37785714Y5523811D02*
X37823809Y5485715D01*
X37861904Y5371430D01*
X37861904Y5295239D01*
X37823809Y5180953D01*
X37747619Y5104763D01*
X37671428Y5066668D01*
X37519047Y5028572D01*
X37404761Y5028572D01*
X37252380Y5066668D01*
X37176190Y5104763D01*
X37100000Y5180953D01*
X37061904Y5295239D01*
X37061904Y5371430D01*
X37100000Y5485715D01*
X37138095Y5523811D01*
X44700000Y3885715D02*
X44661904Y3809524D01*
X44661904Y3695238D01*
X44700000Y3580953D01*
X44776190Y3504762D01*
X44852380Y3466667D01*
X45004761Y3428572D01*
X45119047Y3428572D01*
X45271428Y3466667D01*
X45347619Y3504762D01*
X45423809Y3580953D01*
X45461904Y3695238D01*
X45461904Y3771429D01*
X45423809Y3885715D01*
X45385714Y3923810D01*
X45119047Y3923810D01*
X45119047Y3771429D01*
X45461904Y4266667D02*
X44661904Y4266667D01*
X45461904Y4723810D01*
X44661904Y4723810D01*
X45461904Y5104762D02*
X44661904Y5104762D01*
X44661904Y5295238D01*
X44700000Y5409524D01*
X44776190Y5485715D01*
X44852380Y5523810D01*
X45004761Y5561905D01*
X45119047Y5561905D01*
X45271428Y5523810D01*
X45347619Y5485715D01*
X45423809Y5409524D01*
X45461904Y5295238D01*
X45461904Y5104762D01*
X9961904Y3419048D02*
X9161904Y3419048D01*
X9961904Y3800001D02*
X9161904Y3800001D01*
X9961904Y4257143D01*
X9161904Y4257143D01*
X9961904Y4638096D02*
X9161904Y4638096D01*
X9542857Y4638096D02*
X9542857Y5095239D01*
X9961904Y5095239D02*
X9161904Y5095239D01*
X9885714Y5933334D02*
X9923809Y5895239D01*
X9961904Y5780953D01*
X9961904Y5704763D01*
X9923809Y5590477D01*
X9847619Y5514286D01*
X9771428Y5476191D01*
X9619047Y5438096D01*
X9504761Y5438096D01*
X9352380Y5476191D01*
X9276190Y5514286D01*
X9200000Y5590477D01*
X9161904Y5704763D01*
X9161904Y5780953D01*
X9200000Y5895239D01*
X9238095Y5933334D01*
X25161904Y3457143D02*
X24361904Y3457143D01*
X25161904Y3838096D02*
X24361904Y3838096D01*
X25161904Y4295239D01*
X24361904Y4295239D01*
X25161904Y5057143D02*
X25161904Y4676191D01*
X24361904Y4676191D01*
X24742857Y5590477D02*
X24780952Y5704762D01*
X24819047Y5742858D01*
X24895238Y5780953D01*
X25009523Y5780953D01*
X25085714Y5742858D01*
X25123809Y5704762D01*
X25161904Y5628572D01*
X25161904Y5323810D01*
X24361904Y5323810D01*
X24361904Y5590477D01*
X24400000Y5666667D01*
X24438095Y5704762D01*
X24514285Y5742858D01*
X24590476Y5742858D01*
X24666666Y5704762D01*
X24704761Y5666667D01*
X24742857Y5590477D01*
X24742857Y5323810D01*
X4761904Y3390477D02*
X3961904Y3390477D01*
X4342857Y3390477D02*
X4342857Y3847620D01*
X4761904Y3847620D02*
X3961904Y3847620D01*
X4761904Y4571429D02*
X4342857Y4571429D01*
X4266666Y4533334D01*
X4228571Y4457143D01*
X4228571Y4304762D01*
X4266666Y4228572D01*
X4723809Y4571429D02*
X4761904Y4495239D01*
X4761904Y4304762D01*
X4723809Y4228572D01*
X4647619Y4190477D01*
X4571428Y4190477D01*
X4495238Y4228572D01*
X4457142Y4304762D01*
X4457142Y4495239D01*
X4419047Y4571429D01*
X4761904Y5066667D02*
X4723809Y4990477D01*
X4647619Y4952381D01*
X3961904Y4952381D01*
X4761904Y5485715D02*
X4723809Y5409524D01*
X4647619Y5371429D01*
X3961904Y5371429D01*
X4342857Y6057143D02*
X4380952Y6171429D01*
X4419047Y6209524D01*
X4495238Y6247620D01*
X4609523Y6247620D01*
X4685714Y6209524D01*
X4723809Y6171429D01*
X4761904Y6095239D01*
X4761904Y5790477D01*
X3961904Y5790477D01*
X3961904Y6057143D01*
X4000000Y6133334D01*
X4038095Y6171429D01*
X4114285Y6209524D01*
X4190476Y6209524D01*
X4266666Y6171429D01*
X4304761Y6133334D01*
X4342857Y6057143D01*
X4342857Y5790477D01*
X29714285Y29681429D02*
X29857142Y29633810D01*
X29904761Y29586191D01*
X29952380Y29490953D01*
X29952380Y29348096D01*
X29904761Y29252858D01*
X29857142Y29205239D01*
X29761904Y29157620D01*
X29380952Y29157620D01*
X29380952Y30157620D01*
X29714285Y30157620D01*
X29809523Y30110000D01*
X29857142Y30062381D01*
X29904761Y29967143D01*
X29904761Y29871905D01*
X29857142Y29776667D01*
X29809523Y29729048D01*
X29714285Y29681429D01*
X29380952Y29681429D01*
X30380952Y29157620D02*
X30380952Y29824286D01*
X30380952Y29633810D02*
X30428571Y29729048D01*
X30476190Y29776667D01*
X30571428Y29824286D01*
X30666666Y29824286D01*
X31428571Y29824286D02*
X31428571Y29157620D01*
X31000000Y29824286D02*
X31000000Y29300477D01*
X31047619Y29205239D01*
X31142857Y29157620D01*
X31285714Y29157620D01*
X31380952Y29205239D01*
X31428571Y29252858D01*
X31857142Y29205239D02*
X31952380Y29157620D01*
X32142857Y29157620D01*
X32238095Y29205239D01*
X32285714Y29300477D01*
X32285714Y29348096D01*
X32238095Y29443334D01*
X32142857Y29490953D01*
X32000000Y29490953D01*
X31904761Y29538572D01*
X31857142Y29633810D01*
X31857142Y29681429D01*
X31904761Y29776667D01*
X32000000Y29824286D01*
X32142857Y29824286D01*
X32238095Y29776667D01*
X32714285Y29157620D02*
X32714285Y30157620D01*
X33142857Y29157620D02*
X33142857Y29681429D01*
X33095238Y29776667D01*
X33000000Y29824286D01*
X32857142Y29824286D01*
X32761904Y29776667D01*
X32714285Y29729048D01*
X33761904Y29157620D02*
X33666666Y29205239D01*
X33619047Y29300477D01*
X33619047Y30157620D01*
X34523809Y29205239D02*
X34428571Y29157620D01*
X34238095Y29157620D01*
X34142857Y29205239D01*
X34095238Y29300477D01*
X34095238Y29681429D01*
X34142857Y29776667D01*
X34238095Y29824286D01*
X34428571Y29824286D01*
X34523809Y29776667D01*
X34571428Y29681429D01*
X34571428Y29586191D01*
X34095238Y29490953D01*
X34952380Y29205239D02*
X35047619Y29157620D01*
X35238095Y29157620D01*
X35333333Y29205239D01*
X35380952Y29300477D01*
X35380952Y29348096D01*
X35333333Y29443334D01*
X35238095Y29490953D01*
X35095238Y29490953D01*
X35000000Y29538572D01*
X34952380Y29633810D01*
X34952380Y29681429D01*
X35000000Y29776667D01*
X35095238Y29824286D01*
X35238095Y29824286D01*
X35333333Y29776667D01*
X35761904Y29205239D02*
X35857142Y29157620D01*
X36047619Y29157620D01*
X36142857Y29205239D01*
X36190476Y29300477D01*
X36190476Y29348096D01*
X36142857Y29443334D01*
X36047619Y29490953D01*
X35904761Y29490953D01*
X35809523Y29538572D01*
X35761904Y29633810D01*
X35761904Y29681429D01*
X35809523Y29776667D01*
X35904761Y29824286D01*
X36047619Y29824286D01*
X36142857Y29776667D01*
X36619047Y29157620D02*
X36619047Y30157620D01*
X36952380Y29443334D01*
X37285714Y30157620D01*
X37285714Y29157620D01*
X37904761Y29157620D02*
X37809523Y29205239D01*
X37761904Y29252858D01*
X37714285Y29348096D01*
X37714285Y29633810D01*
X37761904Y29729048D01*
X37809523Y29776667D01*
X37904761Y29824286D01*
X38047619Y29824286D01*
X38142857Y29776667D01*
X38190476Y29729048D01*
X38238095Y29633810D01*
X38238095Y29348096D01*
X38190476Y29252858D01*
X38142857Y29205239D01*
X38047619Y29157620D01*
X37904761Y29157620D01*
X38523809Y29824286D02*
X38904761Y29824286D01*
X38666666Y30157620D02*
X38666666Y29300477D01*
X38714285Y29205239D01*
X38809523Y29157620D01*
X38904761Y29157620D01*
X39380952Y29157620D02*
X39285714Y29205239D01*
X39238095Y29252858D01*
X39190476Y29348096D01*
X39190476Y29633810D01*
X39238095Y29729048D01*
X39285714Y29776667D01*
X39380952Y29824286D01*
X39523809Y29824286D01*
X39619047Y29776667D01*
X39666666Y29729048D01*
X39714285Y29633810D01*
X39714285Y29348096D01*
X39666666Y29252858D01*
X39619047Y29205239D01*
X39523809Y29157620D01*
X39380952Y29157620D01*
X40142857Y29157620D02*
X40142857Y29824286D01*
X40142857Y29633810D02*
X40190476Y29729048D01*
X40238095Y29776667D01*
X40333333Y29824286D01*
X40428571Y29824286D01*
X40761904Y29157620D02*
X40761904Y30157620D01*
X41000000Y30157620D01*
X41142857Y30110000D01*
X41238095Y30014762D01*
X41285714Y29919524D01*
X41333333Y29729048D01*
X41333333Y29586191D01*
X41285714Y29395715D01*
X41238095Y29300477D01*
X41142857Y29205239D01*
X41000000Y29157620D01*
X40761904Y29157620D01*
X41761904Y29157620D02*
X41761904Y29824286D01*
X41761904Y29633810D02*
X41809523Y29729048D01*
X41857142Y29776667D01*
X41952380Y29824286D01*
X42047619Y29824286D01*
X42380952Y29157620D02*
X42380952Y29824286D01*
X42380952Y30157620D02*
X42333333Y30110000D01*
X42380952Y30062381D01*
X42428571Y30110000D01*
X42380952Y30157620D01*
X42380952Y30062381D01*
X42761904Y29824286D02*
X43000000Y29157620D01*
X43238095Y29824286D01*
X44000000Y29205239D02*
X43904761Y29157620D01*
X43714285Y29157620D01*
X43619047Y29205239D01*
X43571428Y29300477D01*
X43571428Y29681429D01*
X43619047Y29776667D01*
X43714285Y29824286D01*
X43904761Y29824286D01*
X44000000Y29776667D01*
X44047619Y29681429D01*
X44047619Y29586191D01*
X43571428Y29490953D01*
X44476190Y29157620D02*
X44476190Y29824286D01*
X44476190Y29633810D02*
X44523809Y29729048D01*
X44571428Y29776667D01*
X44666666Y29824286D01*
X44761904Y29824286D01*
X31190476Y27547620D02*
X31190476Y28547620D01*
X31428571Y28547620D01*
X31571428Y28500000D01*
X31666666Y28404762D01*
X31714285Y28309524D01*
X31761904Y28119048D01*
X31761904Y27976191D01*
X31714285Y27785715D01*
X31666666Y27690477D01*
X31571428Y27595239D01*
X31428571Y27547620D01*
X31190476Y27547620D01*
X32761904Y27547620D02*
X32428571Y28023810D01*
X32190476Y27547620D02*
X32190476Y28547620D01*
X32571428Y28547620D01*
X32666666Y28500000D01*
X32714285Y28452381D01*
X32761904Y28357143D01*
X32761904Y28214286D01*
X32714285Y28119048D01*
X32666666Y28071429D01*
X32571428Y28023810D01*
X32190476Y28023810D01*
X33047619Y28547620D02*
X33380952Y27547620D01*
X33714285Y28547620D01*
X34190476Y28119048D02*
X34095238Y28166667D01*
X34047619Y28214286D01*
X34000000Y28309524D01*
X34000000Y28357143D01*
X34047619Y28452381D01*
X34095238Y28500000D01*
X34190476Y28547620D01*
X34380952Y28547620D01*
X34476190Y28500000D01*
X34523809Y28452381D01*
X34571428Y28357143D01*
X34571428Y28309524D01*
X34523809Y28214286D01*
X34476190Y28166667D01*
X34380952Y28119048D01*
X34190476Y28119048D01*
X34095238Y28071429D01*
X34047619Y28023810D01*
X34000000Y27928572D01*
X34000000Y27738096D01*
X34047619Y27642858D01*
X34095238Y27595239D01*
X34190476Y27547620D01*
X34380952Y27547620D01*
X34476190Y27595239D01*
X34523809Y27642858D01*
X34571428Y27738096D01*
X34571428Y27928572D01*
X34523809Y28023810D01*
X34476190Y28071429D01*
X34380952Y28119048D01*
X34904761Y28547620D02*
X35523809Y28547620D01*
X35190476Y28166667D01*
X35333333Y28166667D01*
X35428571Y28119048D01*
X35476190Y28071429D01*
X35523809Y27976191D01*
X35523809Y27738096D01*
X35476190Y27642858D01*
X35428571Y27595239D01*
X35333333Y27547620D01*
X35047619Y27547620D01*
X34952380Y27595239D01*
X34904761Y27642858D01*
X36476190Y27547620D02*
X35904761Y27547620D01*
X36190476Y27547620D02*
X36190476Y28547620D01*
X36095238Y28404762D01*
X36000000Y28309524D01*
X35904761Y28261905D01*
X37428571Y27547620D02*
X36857142Y27547620D01*
X37142857Y27547620D02*
X37142857Y28547620D01*
X37047619Y28404762D01*
X36952380Y28309524D01*
X36857142Y28261905D01*
X37857142Y27547620D02*
X37857142Y28547620D01*
X37857142Y28071429D02*
X38428571Y28071429D01*
X38428571Y27547620D02*
X38428571Y28547620D01*
X39571428Y28214286D02*
X39809523Y27547620D01*
X40047619Y28214286D01*
X40428571Y27642858D02*
X40476190Y27595239D01*
X40428571Y27547620D01*
X40380952Y27595239D01*
X40428571Y27642858D01*
X40428571Y27547620D01*
X41095238Y28547620D02*
X41190476Y28547620D01*
X41285714Y28500000D01*
X41333333Y28452381D01*
X41380952Y28357143D01*
X41428571Y28166667D01*
X41428571Y27928572D01*
X41380952Y27738096D01*
X41333333Y27642858D01*
X41285714Y27595239D01*
X41190476Y27547620D01*
X41095238Y27547620D01*
X41000000Y27595239D01*
X40952380Y27642858D01*
X40904761Y27738096D01*
X40857142Y27928572D01*
X40857142Y28166667D01*
X40904761Y28357143D01*
X40952380Y28452381D01*
X41000000Y28500000D01*
X41095238Y28547620D01*
X41857142Y27642858D02*
X41904761Y27595239D01*
X41857142Y27547620D01*
X41809523Y27595239D01*
X41857142Y27642858D01*
X41857142Y27547620D01*
X42285714Y28452381D02*
X42333333Y28500000D01*
X42428571Y28547620D01*
X42666666Y28547620D01*
X42761904Y28500000D01*
X42809523Y28452381D01*
X42857142Y28357143D01*
X42857142Y28261905D01*
X42809523Y28119048D01*
X42238095Y27547620D01*
X42857142Y27547620D01*
X34500000Y25937620D02*
X34500000Y26937620D01*
X34500000Y26556667D02*
X34595238Y26604286D01*
X34785714Y26604286D01*
X34880952Y26556667D01*
X34928571Y26509048D01*
X34976190Y26413810D01*
X34976190Y26128096D01*
X34928571Y26032858D01*
X34880952Y25985239D01*
X34785714Y25937620D01*
X34595238Y25937620D01*
X34500000Y25985239D01*
X35309523Y26604286D02*
X35547619Y25937620D01*
X35785714Y26604286D02*
X35547619Y25937620D01*
X35452380Y25699524D01*
X35404761Y25651905D01*
X35309523Y25604286D01*
X36928571Y25937620D02*
X36928571Y26937620D01*
X37500000Y25937620D01*
X37500000Y26937620D01*
X38119047Y25937620D02*
X38023809Y25985239D01*
X37976190Y26032858D01*
X37928571Y26128096D01*
X37928571Y26413810D01*
X37976190Y26509048D01*
X38023809Y26556667D01*
X38119047Y26604286D01*
X38261904Y26604286D01*
X38357142Y26556667D01*
X38404761Y26509048D01*
X38452380Y26413810D01*
X38452380Y26128096D01*
X38404761Y26032858D01*
X38357142Y25985239D01*
X38261904Y25937620D01*
X38119047Y25937620D01*
X38880952Y25937620D02*
X38880952Y26604286D01*
X38880952Y26413810D02*
X38928571Y26509048D01*
X38976190Y26556667D01*
X39071428Y26604286D01*
X39166666Y26604286D01*
X39500000Y25937620D02*
X39500000Y26604286D01*
X39500000Y26937620D02*
X39452380Y26890000D01*
X39500000Y26842381D01*
X39547619Y26890000D01*
X39500000Y26937620D01*
X39500000Y26842381D01*
X1790476Y28538096D02*
X1790476Y29338096D01*
X1790476Y28957143D02*
X2247619Y28957143D01*
X2247619Y28538096D02*
X2247619Y29338096D01*
X2971428Y28538096D02*
X2971428Y28957143D01*
X2933333Y29033334D01*
X2857142Y29071429D01*
X2704761Y29071429D01*
X2628571Y29033334D01*
X2971428Y28576191D02*
X2895238Y28538096D01*
X2704761Y28538096D01*
X2628571Y28576191D01*
X2590476Y28652381D01*
X2590476Y28728572D01*
X2628571Y28804762D01*
X2704761Y28842858D01*
X2895238Y28842858D01*
X2971428Y28880953D01*
X3466666Y28538096D02*
X3390476Y28576191D01*
X3352380Y28652381D01*
X3352380Y29338096D01*
X3885714Y28538096D02*
X3809523Y28576191D01*
X3771428Y28652381D01*
X3771428Y29338096D01*
X4457142Y28957143D02*
X4571428Y28919048D01*
X4609523Y28880953D01*
X4647619Y28804762D01*
X4647619Y28690477D01*
X4609523Y28614286D01*
X4571428Y28576191D01*
X4495238Y28538096D01*
X4190476Y28538096D01*
X4190476Y29338096D01*
X4457142Y29338096D01*
X4533333Y29300000D01*
X4571428Y29261905D01*
X4609523Y29185715D01*
X4609523Y29109524D01*
X4571428Y29033334D01*
X4533333Y28995239D01*
X4457142Y28957143D01*
X4190476Y28957143D01*
X21947619Y34647620D02*
X21471428Y34647620D01*
X21423809Y34171429D01*
X21471428Y34219048D01*
X21566666Y34266667D01*
X21804761Y34266667D01*
X21900000Y34219048D01*
X21947619Y34171429D01*
X21995238Y34076191D01*
X21995238Y33838096D01*
X21947619Y33742858D01*
X21900000Y33695239D01*
X21804761Y33647620D01*
X21566666Y33647620D01*
X21471428Y33695239D01*
X21423809Y33742858D01*
X22423809Y33742858D02*
X22471428Y33695239D01*
X22423809Y33647620D01*
X22376190Y33695239D01*
X22423809Y33742858D01*
X22423809Y33647620D01*
X22852380Y34552381D02*
X22900000Y34600000D01*
X22995238Y34647620D01*
X23233333Y34647620D01*
X23328571Y34600000D01*
X23376190Y34552381D01*
X23423809Y34457143D01*
X23423809Y34361905D01*
X23376190Y34219048D01*
X22804761Y33647620D01*
X23423809Y33647620D01*
X24328571Y34647620D02*
X23852380Y34647620D01*
X23804761Y34171429D01*
X23852380Y34219048D01*
X23947619Y34266667D01*
X24185714Y34266667D01*
X24280952Y34219048D01*
X24328571Y34171429D01*
X24376190Y34076191D01*
X24376190Y33838096D01*
X24328571Y33742858D01*
X24280952Y33695239D01*
X24185714Y33647620D01*
X23947619Y33647620D01*
X23852380Y33695239D01*
X23804761Y33742858D01*
X24804761Y34028572D02*
X25566666Y34028572D01*
X25995238Y34552381D02*
X26042857Y34600000D01*
X26138095Y34647620D01*
X26376190Y34647620D01*
X26471428Y34600000D01*
X26519047Y34552381D01*
X26566666Y34457143D01*
X26566666Y34361905D01*
X26519047Y34219048D01*
X25947619Y33647620D01*
X26566666Y33647620D01*
X27185714Y34647620D02*
X27280952Y34647620D01*
X27376190Y34600000D01*
X27423809Y34552381D01*
X27471428Y34457143D01*
X27519047Y34266667D01*
X27519047Y34028572D01*
X27471428Y33838096D01*
X27423809Y33742858D01*
X27376190Y33695239D01*
X27280952Y33647620D01*
X27185714Y33647620D01*
X27090476Y33695239D01*
X27042857Y33742858D01*
X26995238Y33838096D01*
X26947619Y34028572D01*
X26947619Y34266667D01*
X26995238Y34457143D01*
X27042857Y34552381D01*
X27090476Y34600000D01*
X27185714Y34647620D01*
X27804761Y34647620D02*
X28138095Y33647620D01*
X28471428Y34647620D01*
X1847619Y26038096D02*
X1847619Y26838096D01*
X1847619Y26457143D02*
X2304761Y26457143D01*
X2304761Y26038096D02*
X2304761Y26838096D01*
X3028571Y26038096D02*
X3028571Y26457143D01*
X2990476Y26533334D01*
X2914285Y26571429D01*
X2761904Y26571429D01*
X2685714Y26533334D01*
X3028571Y26076191D02*
X2952380Y26038096D01*
X2761904Y26038096D01*
X2685714Y26076191D01*
X2647619Y26152381D01*
X2647619Y26228572D01*
X2685714Y26304762D01*
X2761904Y26342858D01*
X2952380Y26342858D01*
X3028571Y26380953D01*
X3523809Y26038096D02*
X3447619Y26076191D01*
X3409523Y26152381D01*
X3409523Y26838096D01*
X3942857Y26038096D02*
X3866666Y26076191D01*
X3828571Y26152381D01*
X3828571Y26838096D01*
X4209523Y26266667D02*
X4590476Y26266667D01*
X4133333Y26038096D02*
X4400000Y26838096D01*
X4666666Y26038096D01*
X18338095Y34600000D02*
X18242857Y34647620D01*
X18100000Y34647620D01*
X17957142Y34600000D01*
X17861904Y34504762D01*
X17814285Y34409524D01*
X17766666Y34219048D01*
X17766666Y34076191D01*
X17814285Y33885715D01*
X17861904Y33790477D01*
X17957142Y33695239D01*
X18100000Y33647620D01*
X18195238Y33647620D01*
X18338095Y33695239D01*
X18385714Y33742858D01*
X18385714Y34076191D01*
X18195238Y34076191D01*
X18814285Y33647620D02*
X18814285Y34647620D01*
X19385714Y33647620D01*
X19385714Y34647620D01*
X19861904Y33647620D02*
X19861904Y34647620D01*
X20100000Y34647620D01*
X20242857Y34600000D01*
X20338095Y34504762D01*
X20385714Y34409524D01*
X20433333Y34219048D01*
X20433333Y34076191D01*
X20385714Y33885715D01*
X20338095Y33790477D01*
X20242857Y33695239D01*
X20100000Y33647620D01*
X19861904Y33647620D01*
X22661904Y3457143D02*
X21861904Y3457143D01*
X22661904Y3838096D02*
X21861904Y3838096D01*
X22661904Y4295238D01*
X21861904Y4295238D01*
X22661904Y5057143D02*
X22661904Y4676191D01*
X21861904Y4676191D01*
X22433333Y5285715D02*
X22433333Y5666667D01*
X22661904Y5209524D02*
X21861904Y5476191D01*
X22661904Y5742857D01*
X21225714Y10666439D02*
X21368571Y10618820D01*
X21606666Y10618820D01*
X21701904Y10666439D01*
X21749523Y10714058D01*
X21797142Y10809296D01*
X21797142Y10904534D01*
X21749523Y10999772D01*
X21701904Y11047391D01*
X21606666Y11095010D01*
X21416190Y11142629D01*
X21320952Y11190248D01*
X21273333Y11237867D01*
X21225714Y11333105D01*
X21225714Y11428343D01*
X21273333Y11523581D01*
X21320952Y11571200D01*
X21416190Y11618820D01*
X21654285Y11618820D01*
X21797142Y11571200D01*
X22701904Y10618820D02*
X22225714Y10618820D01*
X22225714Y11618820D01*
X23035238Y11142629D02*
X23368571Y11142629D01*
X23511428Y10618820D02*
X23035238Y10618820D01*
X23035238Y11618820D01*
X23511428Y11618820D01*
X23844761Y11618820D02*
X24082857Y10618820D01*
X24273333Y11333105D01*
X24463809Y10618820D01*
X24701904Y11618820D01*
X34561904Y3390477D02*
X34561904Y3885715D01*
X34866666Y3619048D01*
X34866666Y3733334D01*
X34904761Y3809524D01*
X34942857Y3847620D01*
X35019047Y3885715D01*
X35209523Y3885715D01*
X35285714Y3847620D01*
X35323809Y3809524D01*
X35361904Y3733334D01*
X35361904Y3504762D01*
X35323809Y3428572D01*
X35285714Y3390477D01*
X34561904Y4114286D02*
X35361904Y4380953D01*
X34561904Y4647620D01*
X29628571Y3395238D02*
X30161904Y3395238D01*
X29704761Y3395238D02*
X29666666Y3433334D01*
X29628571Y3509524D01*
X29628571Y3623810D01*
X29666666Y3700000D01*
X29742857Y3738096D01*
X30161904Y3738096D01*
X30123809Y4080953D02*
X30161904Y4195238D01*
X30161904Y4385715D01*
X30123809Y4461905D01*
X30085714Y4500000D01*
X30009523Y4538096D01*
X29933333Y4538096D01*
X29857142Y4500000D01*
X29819047Y4461905D01*
X29780952Y4385715D01*
X29742857Y4233334D01*
X29704761Y4157143D01*
X29666666Y4119048D01*
X29590476Y4080953D01*
X29514285Y4080953D01*
X29438095Y4119048D01*
X29400000Y4157143D01*
X29361904Y4233334D01*
X29361904Y4423810D01*
X29400000Y4538096D01*
X30161904Y5261905D02*
X30161904Y4880953D01*
X29361904Y4880953D01*
X29742857Y5528572D02*
X29742857Y5795238D01*
X30161904Y5909524D02*
X30161904Y5528572D01*
X29361904Y5528572D01*
X29361904Y5909524D01*
X29742857Y6252381D02*
X29742857Y6519048D01*
X30161904Y6633334D02*
X30161904Y6252381D01*
X29361904Y6252381D01*
X29361904Y6633334D01*
X30161904Y6976191D02*
X29361904Y6976191D01*
X29361904Y7280953D01*
X29400000Y7357143D01*
X29438095Y7395238D01*
X29514285Y7433334D01*
X29628571Y7433334D01*
X29704761Y7395238D01*
X29742857Y7357143D01*
X29780952Y7280953D01*
X29780952Y6976191D01*
X16161904Y24866667D02*
X15361904Y24866667D01*
X15361904Y25171429D01*
X15400000Y25247620D01*
X15438095Y25285715D01*
X15514285Y25323810D01*
X15628571Y25323810D01*
X15704761Y25285715D01*
X15742857Y25247620D01*
X15780952Y25171429D01*
X15780952Y24866667D01*
X16161904Y25666667D02*
X15361904Y25666667D01*
X16161904Y26009524D02*
X15742857Y26009524D01*
X15666666Y25971429D01*
X15628571Y25895239D01*
X15628571Y25780953D01*
X15666666Y25704762D01*
X15704761Y25666667D01*
X16161904Y26733334D02*
X15742857Y26733334D01*
X15666666Y26695239D01*
X15628571Y26619048D01*
X15628571Y26466667D01*
X15666666Y26390477D01*
X16123809Y26733334D02*
X16161904Y26657143D01*
X16161904Y26466667D01*
X16123809Y26390477D01*
X16047619Y26352381D01*
X15971428Y26352381D01*
X15895238Y26390477D01*
X15857142Y26466667D01*
X15857142Y26657143D01*
X15819047Y26733334D01*
X15742857Y27380953D02*
X15780952Y27495239D01*
X15819047Y27533334D01*
X15895238Y27571429D01*
X16009523Y27571429D01*
X16085714Y27533334D01*
X16123809Y27495239D01*
X16161904Y27419048D01*
X16161904Y27114286D01*
X15361904Y27114286D01*
X15361904Y27380953D01*
X15400000Y27457143D01*
X15438095Y27495239D01*
X15514285Y27533334D01*
X15590476Y27533334D01*
X15666666Y27495239D01*
X15704761Y27457143D01*
X15742857Y27380953D01*
X15742857Y27114286D01*
X7361904Y3390477D02*
X6561904Y3390477D01*
X6942857Y3390477D02*
X6942857Y3847620D01*
X7361904Y3847620D02*
X6561904Y3847620D01*
X7361904Y4571429D02*
X6942857Y4571429D01*
X6866666Y4533334D01*
X6828571Y4457143D01*
X6828571Y4304762D01*
X6866666Y4228572D01*
X7323809Y4571429D02*
X7361904Y4495239D01*
X7361904Y4304762D01*
X7323809Y4228572D01*
X7247619Y4190477D01*
X7171428Y4190477D01*
X7095238Y4228572D01*
X7057142Y4304762D01*
X7057142Y4495239D01*
X7019047Y4571429D01*
X7361904Y5066667D02*
X7323809Y4990477D01*
X7247619Y4952381D01*
X6561904Y4952381D01*
X7361904Y5485715D02*
X7323809Y5409524D01*
X7247619Y5371429D01*
X6561904Y5371429D01*
X7285714Y6247620D02*
X7323809Y6209524D01*
X7361904Y6095239D01*
X7361904Y6019048D01*
X7323809Y5904762D01*
X7247619Y5828572D01*
X7171428Y5790477D01*
X7019047Y5752381D01*
X6904761Y5752381D01*
X6752380Y5790477D01*
X6676190Y5828572D01*
X6600000Y5904762D01*
X6561904Y6019048D01*
X6561904Y6095239D01*
X6600000Y6209524D01*
X6638095Y6247620D01*
X14961904Y3419048D02*
X14161904Y3419048D01*
X14961904Y3800000D02*
X14161904Y3800000D01*
X14961904Y4257143D01*
X14161904Y4257143D01*
X14961904Y4638096D02*
X14161904Y4638096D01*
X14542857Y4638096D02*
X14542857Y5095239D01*
X14961904Y5095239D02*
X14161904Y5095239D01*
X14733333Y5438096D02*
X14733333Y5819048D01*
X14961904Y5361905D02*
X14161904Y5628572D01*
X14961904Y5895239D01*
X12461904Y3419048D02*
X11661904Y3419048D01*
X12461904Y3800001D02*
X11661904Y3800001D01*
X12461904Y4257143D01*
X11661904Y4257143D01*
X12461904Y4638096D02*
X11661904Y4638096D01*
X12042857Y4638096D02*
X12042857Y5095239D01*
X12461904Y5095239D02*
X11661904Y5095239D01*
X12042857Y5742858D02*
X12080952Y5857143D01*
X12119047Y5895239D01*
X12195238Y5933334D01*
X12309523Y5933334D01*
X12385714Y5895239D01*
X12423809Y5857143D01*
X12461904Y5780953D01*
X12461904Y5476191D01*
X11661904Y5476191D01*
X11661904Y5742858D01*
X11700000Y5819048D01*
X11738095Y5857143D01*
X11814285Y5895239D01*
X11890476Y5895239D01*
X11966666Y5857143D01*
X12004761Y5819048D01*
X12042857Y5742858D01*
X12042857Y5476191D01*
X16161904Y27966667D02*
X15361904Y27966667D01*
X15361904Y28271429D01*
X15400000Y28347620D01*
X15438095Y28385715D01*
X15514285Y28423810D01*
X15628571Y28423810D01*
X15704761Y28385715D01*
X15742857Y28347620D01*
X15780952Y28271429D01*
X15780952Y27966667D01*
X16161904Y28766667D02*
X15361904Y28766667D01*
X16161904Y29109524D02*
X15742857Y29109524D01*
X15666666Y29071429D01*
X15628571Y28995239D01*
X15628571Y28880953D01*
X15666666Y28804762D01*
X15704761Y28766667D01*
X16161904Y29833334D02*
X15742857Y29833334D01*
X15666666Y29795239D01*
X15628571Y29719048D01*
X15628571Y29566667D01*
X15666666Y29490477D01*
X16123809Y29833334D02*
X16161904Y29757143D01*
X16161904Y29566667D01*
X16123809Y29490477D01*
X16047619Y29452381D01*
X15971428Y29452381D01*
X15895238Y29490477D01*
X15857142Y29566667D01*
X15857142Y29757143D01*
X15819047Y29833334D01*
X16085714Y30671429D02*
X16123809Y30633334D01*
X16161904Y30519048D01*
X16161904Y30442858D01*
X16123809Y30328572D01*
X16047619Y30252381D01*
X15971428Y30214286D01*
X15819047Y30176191D01*
X15704761Y30176191D01*
X15552380Y30214286D01*
X15476190Y30252381D01*
X15400000Y30328572D01*
X15361904Y30442858D01*
X15361904Y30519048D01*
X15400000Y30633334D01*
X15438095Y30671429D01*
X10523809Y30538096D02*
X10523809Y31338096D01*
X10828571Y31338096D01*
X10904761Y31300000D01*
X10942857Y31261905D01*
X10980952Y31185715D01*
X10980952Y31071429D01*
X10942857Y30995239D01*
X10904761Y30957143D01*
X10828571Y30919048D01*
X10523809Y30919048D01*
X11323809Y30538096D02*
X11323809Y31338096D01*
X11666666Y30538096D02*
X11666666Y30957143D01*
X11628571Y31033334D01*
X11552380Y31071429D01*
X11438095Y31071429D01*
X11361904Y31033334D01*
X11323809Y30995239D01*
X12390476Y30538096D02*
X12390476Y30957143D01*
X12352380Y31033334D01*
X12276190Y31071429D01*
X12123809Y31071429D01*
X12047619Y31033334D01*
X12390476Y30576191D02*
X12314285Y30538096D01*
X12123809Y30538096D01*
X12047619Y30576191D01*
X12009523Y30652381D01*
X12009523Y30728572D01*
X12047619Y30804762D01*
X12123809Y30842858D01*
X12314285Y30842858D01*
X12390476Y30880953D01*
X12733333Y30766667D02*
X13114285Y30766667D01*
X12657142Y30538096D02*
X12923809Y31338096D01*
X13190476Y30538096D01*
X16800000Y3914286D02*
X16761904Y3838095D01*
X16761904Y3723809D01*
X16800000Y3609524D01*
X16876190Y3533333D01*
X16952380Y3495238D01*
X17104761Y3457143D01*
X17219047Y3457143D01*
X17371428Y3495238D01*
X17447619Y3533333D01*
X17523809Y3609524D01*
X17561904Y3723809D01*
X17561904Y3800000D01*
X17523809Y3914286D01*
X17485714Y3952381D01*
X17219047Y3952381D01*
X17219047Y3800000D01*
X17561904Y4295238D02*
X16761904Y4295238D01*
X17561904Y4752381D01*
X16761904Y4752381D01*
X17561904Y5133333D02*
X16761904Y5133333D01*
X16761904Y5323809D01*
X16800000Y5438095D01*
X16876190Y5514286D01*
X16952380Y5552381D01*
X17104761Y5590476D01*
X17219047Y5590476D01*
X17371428Y5552381D01*
X17447619Y5514286D01*
X17523809Y5438095D01*
X17561904Y5323809D01*
X17561904Y5133333D01*
X42923809Y3428572D02*
X42961904Y3542858D01*
X42961904Y3733334D01*
X42923809Y3809525D01*
X42885714Y3847620D01*
X42809523Y3885715D01*
X42733333Y3885715D01*
X42657142Y3847620D01*
X42619047Y3809525D01*
X42580952Y3733334D01*
X42542857Y3580953D01*
X42504761Y3504763D01*
X42466666Y3466668D01*
X42390476Y3428572D01*
X42314285Y3428572D01*
X42238095Y3466668D01*
X42200000Y3504763D01*
X42161904Y3580953D01*
X42161904Y3771429D01*
X42200000Y3885715D01*
X42161904Y4380953D02*
X42161904Y4533334D01*
X42200000Y4609525D01*
X42276190Y4685715D01*
X42428571Y4723810D01*
X42695238Y4723810D01*
X42847619Y4685715D01*
X42923809Y4609525D01*
X42961904Y4533334D01*
X42961904Y4380953D01*
X42923809Y4304763D01*
X42847619Y4228572D01*
X42695238Y4190477D01*
X42428571Y4190477D01*
X42276190Y4228572D01*
X42200000Y4304763D01*
X42161904Y4380953D01*
X42733333Y5028572D02*
X42733333Y5409525D01*
X42961904Y4952382D02*
X42161904Y5219048D01*
X42961904Y5485715D01*
X40323809Y3428572D02*
X40361904Y3542858D01*
X40361904Y3733334D01*
X40323809Y3809525D01*
X40285714Y3847620D01*
X40209523Y3885715D01*
X40133333Y3885715D01*
X40057142Y3847620D01*
X40019047Y3809525D01*
X39980952Y3733334D01*
X39942857Y3580953D01*
X39904761Y3504763D01*
X39866666Y3466668D01*
X39790476Y3428572D01*
X39714285Y3428572D01*
X39638095Y3466668D01*
X39600000Y3504763D01*
X39561904Y3580953D01*
X39561904Y3771430D01*
X39600000Y3885715D01*
X39561904Y4380953D02*
X39561904Y4533334D01*
X39600000Y4609525D01*
X39676190Y4685715D01*
X39828571Y4723811D01*
X40095238Y4723811D01*
X40247619Y4685715D01*
X40323809Y4609525D01*
X40361904Y4533334D01*
X40361904Y4380953D01*
X40323809Y4304763D01*
X40247619Y4228572D01*
X40095238Y4190477D01*
X39828571Y4190477D01*
X39676190Y4228572D01*
X39600000Y4304763D01*
X39561904Y4380953D01*
X39942857Y5333334D02*
X39980952Y5447620D01*
X40019047Y5485715D01*
X40095238Y5523811D01*
X40209523Y5523811D01*
X40285714Y5485715D01*
X40323809Y5447620D01*
X40361904Y5371430D01*
X40361904Y5066668D01*
X39561904Y5066668D01*
X39561904Y5333334D01*
X39600000Y5409525D01*
X39638095Y5447620D01*
X39714285Y5485715D01*
X39790476Y5485715D01*
X39866666Y5447620D01*
X39904761Y5409525D01*
X39942857Y5333334D01*
X39942857Y5066668D01*
X15221428Y11571200D02*
X15126190Y11618820D01*
X14983333Y11618820D01*
X14840476Y11571200D01*
X14745238Y11475962D01*
X14697619Y11380724D01*
X14650000Y11190248D01*
X14650000Y11047391D01*
X14697619Y10856915D01*
X14745238Y10761677D01*
X14840476Y10666439D01*
X14983333Y10618820D01*
X15078571Y10618820D01*
X15221428Y10666439D01*
X15269047Y10714058D01*
X15269047Y11047391D01*
X15078571Y11047391D01*
X15650000Y10904534D02*
X16126190Y10904534D01*
X15554761Y10618820D02*
X15888095Y11618820D01*
X16221428Y10618820D01*
X16554761Y10618820D02*
X16554761Y11618820D01*
X17030952Y10618820D02*
X17030952Y11618820D01*
X17602380Y10618820D01*
X17602380Y11618820D01*
X27661904Y3457143D02*
X26861904Y3457143D01*
X27661904Y3838096D02*
X26861904Y3838096D01*
X27661904Y4295239D01*
X26861904Y4295239D01*
X27661904Y5057143D02*
X27661904Y4676191D01*
X26861904Y4676191D01*
X27585714Y5780953D02*
X27623809Y5742858D01*
X27661904Y5628572D01*
X27661904Y5552381D01*
X27623809Y5438096D01*
X27547619Y5361905D01*
X27471428Y5323810D01*
X27319047Y5285715D01*
X27204761Y5285715D01*
X27052380Y5323810D01*
X26976190Y5361905D01*
X26900000Y5438096D01*
X26861904Y5552381D01*
X26861904Y5628572D01*
X26900000Y5742858D01*
X26938095Y5780953D01*
X9061904Y21990477D02*
X8261904Y21990477D01*
X8642857Y21990477D02*
X8642857Y22447620D01*
X9061904Y22447620D02*
X8261904Y22447620D01*
X9061904Y23171429D02*
X8642857Y23171429D01*
X8566666Y23133334D01*
X8528571Y23057143D01*
X8528571Y22904762D01*
X8566666Y22828572D01*
X9023809Y23171429D02*
X9061904Y23095239D01*
X9061904Y22904762D01*
X9023809Y22828572D01*
X8947619Y22790477D01*
X8871428Y22790477D01*
X8795238Y22828572D01*
X8757142Y22904762D01*
X8757142Y23095239D01*
X8719047Y23171429D01*
X9061904Y23666667D02*
X9023809Y23590477D01*
X8947619Y23552381D01*
X8261904Y23552381D01*
X9061904Y24085715D02*
X9023809Y24009524D01*
X8947619Y23971429D01*
X8261904Y23971429D01*
X8985714Y24847620D02*
X9023809Y24809524D01*
X9061904Y24695239D01*
X9061904Y24619048D01*
X9023809Y24504762D01*
X8947619Y24428572D01*
X8871428Y24390477D01*
X8719047Y24352381D01*
X8604761Y24352381D01*
X8452380Y24390477D01*
X8376190Y24428572D01*
X8300000Y24504762D01*
X8261904Y24619048D01*
X8261904Y24695239D01*
X8300000Y24809524D01*
X8338095Y24847620D01*
X18873333Y27714058D02*
X18825714Y27666439D01*
X18682857Y27618820D01*
X18587619Y27618820D01*
X18444761Y27666439D01*
X18349523Y27761677D01*
X18301904Y27856915D01*
X18254285Y28047391D01*
X18254285Y28190248D01*
X18301904Y28380724D01*
X18349523Y28475962D01*
X18444761Y28571200D01*
X18587619Y28618820D01*
X18682857Y28618820D01*
X18825714Y28571200D01*
X18873333Y28523581D01*
X19349523Y27618820D02*
X19540000Y27618820D01*
X19635238Y27666439D01*
X19682857Y27714058D01*
X19778095Y27856915D01*
X19825714Y28047391D01*
X19825714Y28428343D01*
X19778095Y28523581D01*
X19730476Y28571200D01*
X19635238Y28618820D01*
X19444761Y28618820D01*
X19349523Y28571200D01*
X19301904Y28523581D01*
X19254285Y28428343D01*
X19254285Y28190248D01*
X19301904Y28095010D01*
X19349523Y28047391D01*
X19444761Y27999772D01*
X19635238Y27999772D01*
X19730476Y28047391D01*
X19778095Y28095010D01*
X19825714Y28190248D01*
X23497142Y24004534D02*
X23544761Y23956915D01*
X23592380Y23814058D01*
X23592380Y23718820D01*
X23544761Y23575962D01*
X23449523Y23480724D01*
X23354285Y23433105D01*
X23163809Y23385486D01*
X23020952Y23385486D01*
X22830476Y23433105D01*
X22735238Y23480724D01*
X22640000Y23575962D01*
X22592380Y23718820D01*
X22592380Y23814058D01*
X22640000Y23956915D01*
X22687619Y24004534D01*
X22592380Y24861677D02*
X22592380Y24671200D01*
X22640000Y24575962D01*
X22687619Y24528343D01*
X22830476Y24433105D01*
X23020952Y24385486D01*
X23401904Y24385486D01*
X23497142Y24433105D01*
X23544761Y24480724D01*
X23592380Y24575962D01*
X23592380Y24766439D01*
X23544761Y24861677D01*
X23497142Y24909296D01*
X23401904Y24956915D01*
X23163809Y24956915D01*
X23068571Y24909296D01*
X23020952Y24861677D01*
X22973333Y24766439D01*
X22973333Y24575962D01*
X23020952Y24480724D01*
X23068571Y24433105D01*
X23163809Y24385486D01*
X24997142Y23228343D02*
X25044761Y23180724D01*
X25092380Y23037867D01*
X25092380Y22942629D01*
X25044761Y22799772D01*
X24949523Y22704534D01*
X24854285Y22656915D01*
X24663809Y22609296D01*
X24520952Y22609296D01*
X24330476Y22656915D01*
X24235238Y22704534D01*
X24140000Y22799772D01*
X24092380Y22942629D01*
X24092380Y23037867D01*
X24140000Y23180724D01*
X24187619Y23228343D01*
X25092380Y24180724D02*
X25092380Y23609296D01*
X25092380Y23895010D02*
X24092380Y23895010D01*
X24235238Y23799772D01*
X24330476Y23704534D01*
X24378095Y23609296D01*
X24187619Y24561677D02*
X24140000Y24609296D01*
X24092380Y24704534D01*
X24092380Y24942629D01*
X24140000Y25037867D01*
X24187619Y25085486D01*
X24282857Y25133105D01*
X24378095Y25133105D01*
X24520952Y25085486D01*
X25092380Y24514058D01*
X25092380Y25133105D01*
X11033333Y7047620D02*
X10700000Y7523810D01*
X10461904Y7047620D02*
X10461904Y8047620D01*
X10842857Y8047620D01*
X10938095Y8000000D01*
X10985714Y7952381D01*
X11033333Y7857143D01*
X11033333Y7714286D01*
X10985714Y7619048D01*
X10938095Y7571429D01*
X10842857Y7523810D01*
X10461904Y7523810D01*
X11890476Y7714286D02*
X11890476Y7047620D01*
X11652380Y8095239D02*
X11414285Y7380953D01*
X12033333Y7380953D01*
X37957142Y9157143D02*
X38004761Y9109524D01*
X38052380Y8966667D01*
X38052380Y8871429D01*
X38004761Y8728572D01*
X37909523Y8633334D01*
X37814285Y8585715D01*
X37623809Y8538096D01*
X37480952Y8538096D01*
X37290476Y8585715D01*
X37195238Y8633334D01*
X37100000Y8728572D01*
X37052380Y8871429D01*
X37052380Y8966667D01*
X37100000Y9109524D01*
X37147619Y9157143D01*
X38052380Y10109524D02*
X38052380Y9538096D01*
X38052380Y9823810D02*
X37052380Y9823810D01*
X37195238Y9728572D01*
X37290476Y9633334D01*
X37338095Y9538096D01*
X37052380Y10442858D02*
X37052380Y11109524D01*
X38052380Y10680953D01*
X24233333Y7047620D02*
X23900000Y7523810D01*
X23661904Y7047620D02*
X23661904Y8047620D01*
X24042857Y8047620D01*
X24138095Y8000000D01*
X24185714Y7952381D01*
X24233333Y7857143D01*
X24233333Y7714286D01*
X24185714Y7619048D01*
X24138095Y7571429D01*
X24042857Y7523810D01*
X23661904Y7523810D01*
X24614285Y7952381D02*
X24661904Y8000000D01*
X24757142Y8047620D01*
X24995238Y8047620D01*
X25090476Y8000000D01*
X25138095Y7952381D01*
X25185714Y7857143D01*
X25185714Y7761905D01*
X25138095Y7619048D01*
X24566666Y7047620D01*
X25185714Y7047620D01*
X42957142Y9157143D02*
X43004761Y9109524D01*
X43052380Y8966667D01*
X43052380Y8871429D01*
X43004761Y8728572D01*
X42909523Y8633334D01*
X42814285Y8585715D01*
X42623809Y8538096D01*
X42480952Y8538096D01*
X42290476Y8585715D01*
X42195238Y8633334D01*
X42100000Y8728572D01*
X42052380Y8871429D01*
X42052380Y8966667D01*
X42100000Y9109524D01*
X42147619Y9157143D01*
X43052380Y10109524D02*
X43052380Y9538096D01*
X43052380Y9823810D02*
X42052380Y9823810D01*
X42195238Y9728572D01*
X42290476Y9633334D01*
X42338095Y9538096D01*
X42052380Y11014286D02*
X42052380Y10538096D01*
X42528571Y10490477D01*
X42480952Y10538096D01*
X42433333Y10633334D01*
X42433333Y10871429D01*
X42480952Y10966667D01*
X42528571Y11014286D01*
X42623809Y11061905D01*
X42861904Y11061905D01*
X42957142Y11014286D01*
X43004761Y10966667D01*
X43052380Y10871429D01*
X43052380Y10633334D01*
X43004761Y10538096D01*
X42957142Y10490477D01*
X17633333Y7047620D02*
X17300000Y7523810D01*
X17061904Y7047620D02*
X17061904Y8047620D01*
X17442857Y8047620D01*
X17538095Y8000000D01*
X17585714Y7952381D01*
X17633333Y7857143D01*
X17633333Y7714286D01*
X17585714Y7619048D01*
X17538095Y7571429D01*
X17442857Y7523810D01*
X17061904Y7523810D01*
X17966666Y8047620D02*
X18585714Y8047620D01*
X18252380Y7666667D01*
X18395238Y7666667D01*
X18490476Y7619048D01*
X18538095Y7571429D01*
X18585714Y7476191D01*
X18585714Y7238096D01*
X18538095Y7142858D01*
X18490476Y7095239D01*
X18395238Y7047620D01*
X18109523Y7047620D01*
X18014285Y7095239D01*
X17966666Y7142858D01*
X37887142Y15133334D02*
X37934761Y15085715D01*
X37982380Y14942858D01*
X37982380Y14847620D01*
X37934761Y14704762D01*
X37839523Y14609524D01*
X37744285Y14561905D01*
X37553809Y14514286D01*
X37410952Y14514286D01*
X37220476Y14561905D01*
X37125238Y14609524D01*
X37030000Y14704762D01*
X36982380Y14847620D01*
X36982380Y14942858D01*
X37030000Y15085715D01*
X37077619Y15133334D01*
X36982380Y16038096D02*
X36982380Y15561905D01*
X37458571Y15514286D01*
X37410952Y15561905D01*
X37363333Y15657143D01*
X37363333Y15895239D01*
X37410952Y15990477D01*
X37458571Y16038096D01*
X37553809Y16085715D01*
X37791904Y16085715D01*
X37887142Y16038096D01*
X37934761Y15990477D01*
X37982380Y15895239D01*
X37982380Y15657143D01*
X37934761Y15561905D01*
X37887142Y15514286D01*
X24735714Y9018820D02*
X24164285Y9018820D01*
X24450000Y9018820D02*
X24450000Y10018820D01*
X24354761Y9875962D01*
X24259523Y9780724D01*
X24164285Y9733105D01*
X29316666Y10018820D02*
X29935714Y10018820D01*
X29602380Y9637867D01*
X29745238Y9637867D01*
X29840476Y9590248D01*
X29888095Y9542629D01*
X29935714Y9447391D01*
X29935714Y9209296D01*
X29888095Y9114058D01*
X29840476Y9066439D01*
X29745238Y9018820D01*
X29459523Y9018820D01*
X29364285Y9066439D01*
X29316666Y9114058D01*
X8617380Y32998096D02*
X9426904Y32998096D01*
X9522142Y33045715D01*
X9569761Y33093334D01*
X9617380Y33188572D01*
X9617380Y33379048D01*
X9569761Y33474286D01*
X9522142Y33521905D01*
X9426904Y33569524D01*
X8617380Y33569524D01*
X8712619Y33998096D02*
X8665000Y34045715D01*
X8617380Y34140953D01*
X8617380Y34379048D01*
X8665000Y34474286D01*
X8712619Y34521905D01*
X8807857Y34569524D01*
X8903095Y34569524D01*
X9045952Y34521905D01*
X9617380Y33950477D01*
X9617380Y34569524D01*
X5366666Y24847620D02*
X5366666Y24133334D01*
X5319047Y23990477D01*
X5223809Y23895239D01*
X5080952Y23847620D01*
X4985714Y23847620D01*
X5795238Y24752381D02*
X5842857Y24800000D01*
X5938095Y24847620D01*
X6176190Y24847620D01*
X6271428Y24800000D01*
X6319047Y24752381D01*
X6366666Y24657143D01*
X6366666Y24561905D01*
X6319047Y24419048D01*
X5747619Y23847620D01*
X6366666Y23847620D01*
X25516666Y14118820D02*
X25516666Y13404534D01*
X25469047Y13261677D01*
X25373809Y13166439D01*
X25230952Y13118820D01*
X25135714Y13118820D01*
X25992857Y13118820D02*
X25992857Y14118820D01*
X26373809Y14118820D01*
X26469047Y14071200D01*
X26516666Y14023581D01*
X26564285Y13928343D01*
X26564285Y13785486D01*
X26516666Y13690248D01*
X26469047Y13642629D01*
X26373809Y13595010D01*
X25992857Y13595010D01*
X27421428Y13785486D02*
X27421428Y13118820D01*
X27183333Y14166439D02*
X26945238Y13452153D01*
X27564285Y13452153D01*
X11535714Y9018820D02*
X10964285Y9018820D01*
X11250000Y9018820D02*
X11250000Y10018820D01*
X11154761Y9875962D01*
X11059523Y9780724D01*
X10964285Y9733105D01*
X16116666Y10018820D02*
X16735714Y10018820D01*
X16402380Y9637867D01*
X16545238Y9637867D01*
X16640476Y9590248D01*
X16688095Y9542629D01*
X16735714Y9447391D01*
X16735714Y9209296D01*
X16688095Y9114058D01*
X16640476Y9066439D01*
X16545238Y9018820D01*
X16259523Y9018820D01*
X16164285Y9066439D01*
X16116666Y9114058D01*
X18878095Y18118820D02*
X18878095Y17309296D01*
X18925714Y17214058D01*
X18973333Y17166439D01*
X19068571Y17118820D01*
X19259047Y17118820D01*
X19354285Y17166439D01*
X19401904Y17214058D01*
X19449523Y17309296D01*
X19449523Y18118820D01*
X19830476Y18118820D02*
X20449523Y18118820D01*
X20116190Y17737867D01*
X20259047Y17737867D01*
X20354285Y17690248D01*
X20401904Y17642629D01*
X20449523Y17547391D01*
X20449523Y17309296D01*
X20401904Y17214058D01*
X20354285Y17166439D01*
X20259047Y17118820D01*
X19973333Y17118820D01*
X19878095Y17166439D01*
X19830476Y17214058D01*
X21200000Y18547620D02*
X21200000Y18309524D01*
X20961904Y18404762D02*
X21200000Y18309524D01*
X21438095Y18404762D01*
X21057142Y18119048D02*
X21200000Y18309524D01*
X21342857Y18119048D01*
X18025714Y9018820D02*
X17454285Y9018820D01*
X17740000Y9018820D02*
X17740000Y10018820D01*
X17644761Y9875962D01*
X17549523Y9780724D01*
X17454285Y9733105D01*
X22606666Y10018820D02*
X23225714Y10018820D01*
X22892380Y9637867D01*
X23035238Y9637867D01*
X23130476Y9590248D01*
X23178095Y9542629D01*
X23225714Y9447391D01*
X23225714Y9209296D01*
X23178095Y9114058D01*
X23130476Y9066439D01*
X23035238Y9018820D01*
X22749523Y9018820D01*
X22654285Y9066439D01*
X22606666Y9114058D01*
X18873333Y26214058D02*
X18825714Y26166439D01*
X18682857Y26118820D01*
X18587619Y26118820D01*
X18444761Y26166439D01*
X18349523Y26261677D01*
X18301904Y26356915D01*
X18254285Y26547391D01*
X18254285Y26690248D01*
X18301904Y26880724D01*
X18349523Y26975962D01*
X18444761Y27071200D01*
X18587619Y27118820D01*
X18682857Y27118820D01*
X18825714Y27071200D01*
X18873333Y27023581D01*
X19444761Y26690248D02*
X19349523Y26737867D01*
X19301904Y26785486D01*
X19254285Y26880724D01*
X19254285Y26928343D01*
X19301904Y27023581D01*
X19349523Y27071200D01*
X19444761Y27118820D01*
X19635238Y27118820D01*
X19730476Y27071200D01*
X19778095Y27023581D01*
X19825714Y26928343D01*
X19825714Y26880724D01*
X19778095Y26785486D01*
X19730476Y26737867D01*
X19635238Y26690248D01*
X19444761Y26690248D01*
X19349523Y26642629D01*
X19301904Y26595010D01*
X19254285Y26499772D01*
X19254285Y26309296D01*
X19301904Y26214058D01*
X19349523Y26166439D01*
X19444761Y26118820D01*
X19635238Y26118820D01*
X19730476Y26166439D01*
X19778095Y26214058D01*
X19825714Y26309296D01*
X19825714Y26499772D01*
X19778095Y26595010D01*
X19730476Y26642629D01*
X19635238Y26690248D01*
X40357142Y9157143D02*
X40404761Y9109524D01*
X40452380Y8966667D01*
X40452380Y8871429D01*
X40404761Y8728572D01*
X40309523Y8633334D01*
X40214285Y8585715D01*
X40023809Y8538096D01*
X39880952Y8538096D01*
X39690476Y8585715D01*
X39595238Y8633334D01*
X39500000Y8728572D01*
X39452380Y8871429D01*
X39452380Y8966667D01*
X39500000Y9109524D01*
X39547619Y9157143D01*
X40452380Y10109524D02*
X40452380Y9538096D01*
X40452380Y9823810D02*
X39452380Y9823810D01*
X39595238Y9728572D01*
X39690476Y9633334D01*
X39738095Y9538096D01*
X39452380Y10966667D02*
X39452380Y10776191D01*
X39500000Y10680953D01*
X39547619Y10633334D01*
X39690476Y10538096D01*
X39880952Y10490477D01*
X40261904Y10490477D01*
X40357142Y10538096D01*
X40404761Y10585715D01*
X40452380Y10680953D01*
X40452380Y10871429D01*
X40404761Y10966667D01*
X40357142Y11014286D01*
X40261904Y11061905D01*
X40023809Y11061905D01*
X39928571Y11014286D01*
X39880952Y10966667D01*
X39833333Y10871429D01*
X39833333Y10680953D01*
X39880952Y10585715D01*
X39928571Y10538096D01*
X40023809Y10490477D01*
X33233333Y17042858D02*
X33185714Y16995239D01*
X33042857Y16947620D01*
X32947619Y16947620D01*
X32804761Y16995239D01*
X32709523Y17090477D01*
X32661904Y17185715D01*
X32614285Y17376191D01*
X32614285Y17519048D01*
X32661904Y17709524D01*
X32709523Y17804762D01*
X32804761Y17900000D01*
X32947619Y17947620D01*
X33042857Y17947620D01*
X33185714Y17900000D01*
X33233333Y17852381D01*
X34185714Y16947620D02*
X33614285Y16947620D01*
X33900000Y16947620D02*
X33900000Y17947620D01*
X33804761Y17804762D01*
X33709523Y17709524D01*
X33614285Y17661905D01*
X30238095Y13847620D02*
X30238095Y13038096D01*
X30285714Y12942858D01*
X30333333Y12895239D01*
X30428571Y12847620D01*
X30619047Y12847620D01*
X30714285Y12895239D01*
X30761904Y12942858D01*
X30809523Y13038096D01*
X30809523Y13847620D01*
X31809523Y12847620D02*
X31238095Y12847620D01*
X31523809Y12847620D02*
X31523809Y13847620D01*
X31428571Y13704762D01*
X31333333Y13609524D01*
X31238095Y13561905D01*
X-977620Y1566667D02*
X-263334Y1566667D01*
X-120477Y1519048D01*
X-25239Y1423810D01*
X22380Y1280953D01*
X22380Y1185715D01*
X-977620Y1947620D02*
X-977620Y2566667D01*
X-596667Y2233334D01*
X-596667Y2376191D01*
X-549048Y2471429D01*
X-501429Y2519048D01*
X-406191Y2566667D01*
X-168096Y2566667D01*
X-72858Y2519048D01*
X-25239Y2471429D01*
X22380Y2376191D01*
X22380Y2090477D01*
X-25239Y1995239D01*
X-72858Y1947620D01*
X18806666Y14118820D02*
X18806666Y13404534D01*
X18759047Y13261677D01*
X18663809Y13166439D01*
X18520952Y13118820D01*
X18425714Y13118820D01*
X19282857Y13118820D02*
X19282857Y14118820D01*
X19663809Y14118820D01*
X19759047Y14071200D01*
X19806666Y14023581D01*
X19854285Y13928343D01*
X19854285Y13785486D01*
X19806666Y13690248D01*
X19759047Y13642629D01*
X19663809Y13595010D01*
X19282857Y13595010D01*
X20759047Y14118820D02*
X20282857Y14118820D01*
X20235238Y13642629D01*
X20282857Y13690248D01*
X20378095Y13737867D01*
X20616190Y13737867D01*
X20711428Y13690248D01*
X20759047Y13642629D01*
X20806666Y13547391D01*
X20806666Y13309296D01*
X20759047Y13214058D01*
X20711428Y13166439D01*
X20616190Y13118820D01*
X20378095Y13118820D01*
X20282857Y13166439D01*
X20235238Y13214058D01*
X17897142Y29214058D02*
X17849523Y29166439D01*
X17706666Y29118820D01*
X17611428Y29118820D01*
X17468571Y29166439D01*
X17373333Y29261677D01*
X17325714Y29356915D01*
X17278095Y29547391D01*
X17278095Y29690248D01*
X17325714Y29880724D01*
X17373333Y29975962D01*
X17468571Y30071200D01*
X17611428Y30118820D01*
X17706666Y30118820D01*
X17849523Y30071200D01*
X17897142Y30023581D01*
X18849523Y29118820D02*
X18278095Y29118820D01*
X18563809Y29118820D02*
X18563809Y30118820D01*
X18468571Y29975962D01*
X18373333Y29880724D01*
X18278095Y29833105D01*
X19468571Y30118820D02*
X19563809Y30118820D01*
X19659047Y30071200D01*
X19706666Y30023581D01*
X19754285Y29928343D01*
X19801904Y29737867D01*
X19801904Y29499772D01*
X19754285Y29309296D01*
X19706666Y29214058D01*
X19659047Y29166439D01*
X19563809Y29118820D01*
X19468571Y29118820D01*
X19373333Y29166439D01*
X19325714Y29214058D01*
X19278095Y29309296D01*
X19230476Y29499772D01*
X19230476Y29737867D01*
X19278095Y29928343D01*
X19325714Y30023581D01*
X19373333Y30071200D01*
X19468571Y30118820D01*
X3757142Y32433334D02*
X3804761Y32385715D01*
X3852380Y32242858D01*
X3852380Y32147620D01*
X3804761Y32004762D01*
X3709523Y31909524D01*
X3614285Y31861905D01*
X3423809Y31814286D01*
X3280952Y31814286D01*
X3090476Y31861905D01*
X2995238Y31909524D01*
X2900000Y32004762D01*
X2852380Y32147620D01*
X2852380Y32242858D01*
X2900000Y32385715D01*
X2947619Y32433334D01*
X2852380Y32766667D02*
X2852380Y33385715D01*
X3233333Y33052381D01*
X3233333Y33195239D01*
X3280952Y33290477D01*
X3328571Y33338096D01*
X3423809Y33385715D01*
X3661904Y33385715D01*
X3757142Y33338096D01*
X3804761Y33290477D01*
X3852380Y33195239D01*
X3852380Y32909524D01*
X3804761Y32814286D01*
X3757142Y32766667D01*
X14557142Y18757143D02*
X14604761Y18709524D01*
X14652380Y18566667D01*
X14652380Y18471429D01*
X14604761Y18328572D01*
X14509523Y18233334D01*
X14414285Y18185715D01*
X14223809Y18138096D01*
X14080952Y18138096D01*
X13890476Y18185715D01*
X13795238Y18233334D01*
X13700000Y18328572D01*
X13652380Y18471429D01*
X13652380Y18566667D01*
X13700000Y18709524D01*
X13747619Y18757143D01*
X14652380Y19709524D02*
X14652380Y19138096D01*
X14652380Y19423810D02*
X13652380Y19423810D01*
X13795238Y19328572D01*
X13890476Y19233334D01*
X13938095Y19138096D01*
X13985714Y20566667D02*
X14652380Y20566667D01*
X13604761Y20328572D02*
X14319047Y20090477D01*
X14319047Y20709524D01*
X11817142Y33033334D02*
X11864761Y32985715D01*
X11912380Y32842858D01*
X11912380Y32747620D01*
X11864761Y32604762D01*
X11769523Y32509524D01*
X11674285Y32461905D01*
X11483809Y32414286D01*
X11340952Y32414286D01*
X11150476Y32461905D01*
X11055238Y32509524D01*
X10960000Y32604762D01*
X10912380Y32747620D01*
X10912380Y32842858D01*
X10960000Y32985715D01*
X11007619Y33033334D01*
X11007619Y33414286D02*
X10960000Y33461905D01*
X10912380Y33557143D01*
X10912380Y33795239D01*
X10960000Y33890477D01*
X11007619Y33938096D01*
X11102857Y33985715D01*
X11198095Y33985715D01*
X11340952Y33938096D01*
X11912380Y33366667D01*
X11912380Y33985715D01*
X26497142Y23228343D02*
X26544761Y23180724D01*
X26592380Y23037867D01*
X26592380Y22942629D01*
X26544761Y22799772D01*
X26449523Y22704534D01*
X26354285Y22656915D01*
X26163809Y22609296D01*
X26020952Y22609296D01*
X25830476Y22656915D01*
X25735238Y22704534D01*
X25640000Y22799772D01*
X25592380Y22942629D01*
X25592380Y23037867D01*
X25640000Y23180724D01*
X25687619Y23228343D01*
X26592380Y24180724D02*
X26592380Y23609296D01*
X26592380Y23895010D02*
X25592380Y23895010D01*
X25735238Y23799772D01*
X25830476Y23704534D01*
X25878095Y23609296D01*
X25592380Y24514058D02*
X25592380Y25133105D01*
X25973333Y24799772D01*
X25973333Y24942629D01*
X26020952Y25037867D01*
X26068571Y25085486D01*
X26163809Y25133105D01*
X26401904Y25133105D01*
X26497142Y25085486D01*
X26544761Y25037867D01*
X26592380Y24942629D01*
X26592380Y24656915D01*
X26544761Y24561677D01*
X26497142Y24514058D01*
X25857142Y17942858D02*
X25809523Y17895239D01*
X25666666Y17847620D01*
X25571428Y17847620D01*
X25428571Y17895239D01*
X25333333Y17990477D01*
X25285714Y18085715D01*
X25238095Y18276191D01*
X25238095Y18419048D01*
X25285714Y18609524D01*
X25333333Y18704762D01*
X25428571Y18800000D01*
X25571428Y18847620D01*
X25666666Y18847620D01*
X25809523Y18800000D01*
X25857142Y18752381D01*
X26809523Y17847620D02*
X26238095Y17847620D01*
X26523809Y17847620D02*
X26523809Y18847620D01*
X26428571Y18704762D01*
X26333333Y18609524D01*
X26238095Y18561905D01*
X27761904Y17847620D02*
X27190476Y17847620D01*
X27476190Y17847620D02*
X27476190Y18847620D01*
X27380952Y18704762D01*
X27285714Y18609524D01*
X27190476Y18561905D01*
X22373333Y16118820D02*
X22040000Y16595010D01*
X21801904Y16118820D02*
X21801904Y17118820D01*
X22182857Y17118820D01*
X22278095Y17071200D01*
X22325714Y17023581D01*
X22373333Y16928343D01*
X22373333Y16785486D01*
X22325714Y16690248D01*
X22278095Y16642629D01*
X22182857Y16595010D01*
X21801904Y16595010D01*
X23325714Y16118820D02*
X22754285Y16118820D01*
X23040000Y16118820D02*
X23040000Y17118820D01*
X22944761Y16975962D01*
X22849523Y16880724D01*
X22754285Y16833105D01*
X9066666Y16947620D02*
X9066666Y16233334D01*
X9019047Y16090477D01*
X8923809Y15995239D01*
X8780952Y15947620D01*
X8685714Y15947620D01*
X9542857Y15947620D02*
X9542857Y16947620D01*
X9923809Y16947620D01*
X10019047Y16900000D01*
X10066666Y16852381D01*
X10114285Y16757143D01*
X10114285Y16614286D01*
X10066666Y16519048D01*
X10019047Y16471429D01*
X9923809Y16423810D01*
X9542857Y16423810D01*
X10447619Y16947620D02*
X11114285Y16947620D01*
X10685714Y15947620D01*
X33212133Y8945358D02*
X33164514Y8897739D01*
X33021657Y8850120D01*
X32926419Y8850120D01*
X32783561Y8897739D01*
X32688323Y8992977D01*
X32640704Y9088215D01*
X32593085Y9278691D01*
X32593085Y9421548D01*
X32640704Y9612024D01*
X32688323Y9707262D01*
X32783561Y9802500D01*
X32926419Y9850120D01*
X33021657Y9850120D01*
X33164514Y9802500D01*
X33212133Y9754881D01*
X34069276Y9516786D02*
X34069276Y8850120D01*
X33831180Y9897739D02*
X33593085Y9183453D01*
X34212133Y9183453D01*
X18873333Y24714058D02*
X18825714Y24666439D01*
X18682857Y24618820D01*
X18587619Y24618820D01*
X18444761Y24666439D01*
X18349523Y24761677D01*
X18301904Y24856915D01*
X18254285Y25047391D01*
X18254285Y25190248D01*
X18301904Y25380724D01*
X18349523Y25475962D01*
X18444761Y25571200D01*
X18587619Y25618820D01*
X18682857Y25618820D01*
X18825714Y25571200D01*
X18873333Y25523581D01*
X19206666Y25618820D02*
X19873333Y25618820D01*
X19444761Y24618820D01*
X17192380Y31837867D02*
X17906666Y31837867D01*
X18049523Y31790248D01*
X18144761Y31695010D01*
X18192380Y31552153D01*
X18192380Y31456915D01*
X18192380Y32837867D02*
X18192380Y32266439D01*
X18192380Y32552153D02*
X17192380Y32552153D01*
X17335238Y32456915D01*
X17430476Y32361677D01*
X17478095Y32266439D01*
X12316666Y14118820D02*
X12316666Y13404534D01*
X12269047Y13261677D01*
X12173809Y13166439D01*
X12030952Y13118820D01*
X11935714Y13118820D01*
X12792857Y13118820D02*
X12792857Y14118820D01*
X13173809Y14118820D01*
X13269047Y14071200D01*
X13316666Y14023581D01*
X13364285Y13928343D01*
X13364285Y13785486D01*
X13316666Y13690248D01*
X13269047Y13642629D01*
X13173809Y13595010D01*
X12792857Y13595010D01*
X14221428Y14118820D02*
X14030952Y14118820D01*
X13935714Y14071200D01*
X13888095Y14023581D01*
X13792857Y13880724D01*
X13745238Y13690248D01*
X13745238Y13309296D01*
X13792857Y13214058D01*
X13840476Y13166439D01*
X13935714Y13118820D01*
X14126190Y13118820D01*
X14221428Y13166439D01*
X14269047Y13214058D01*
X14316666Y13309296D01*
X14316666Y13547391D01*
X14269047Y13642629D01*
X14221428Y13690248D01*
X14126190Y13737867D01*
X13935714Y13737867D01*
X13840476Y13690248D01*
X13792857Y13642629D01*
X13745238Y13547391D01*
D11*
X20999420Y28581200D02*
X21280580Y28581200D01*
X20999420Y27561200D02*
X21280580Y27561200D01*
X22630000Y21930620D02*
X22630000Y22211780D01*
X23650000Y21930620D02*
X23650000Y22211780D01*
X25150000Y21130620D02*
X25150000Y21411780D01*
X24130000Y21130620D02*
X24130000Y21411780D01*
X13587258Y7993700D02*
X13112742Y7993700D01*
X13587258Y6948700D02*
X13112742Y6948700D01*
X36990000Y7340580D02*
X36990000Y7059420D01*
X38010000Y7340580D02*
X38010000Y7059420D01*
X26787258Y6948700D02*
X26312742Y6948700D01*
X26787258Y7993700D02*
X26312742Y7993700D01*
X43010000Y7340580D02*
X43010000Y7059420D01*
X41990000Y7340580D02*
X41990000Y7059420D01*
X20177258Y6948700D02*
X19702742Y6948700D01*
X20177258Y7993700D02*
X19702742Y7993700D01*
X35590000Y15440580D02*
X35590000Y15159420D01*
X36610000Y15440580D02*
X36610000Y15159420D01*
X25650000Y10471200D02*
X28450000Y10471200D01*
X25000000Y9171200D02*
X25000000Y9771200D01*
X29100000Y9771200D02*
X29100000Y9171200D01*
X28450000Y8471200D02*
X25650000Y8471200D01*
X25700000Y10471200D02*
G75*
G03*
X25000000Y9771200I-1J-699999D01*
G01*
X25000000Y9171200D02*
G75*
G03*
X25700000Y8471200I699999J-1D01*
G01*
X29100000Y9771200D02*
G75*
G03*
X28400000Y10471200I-699999J1D01*
G01*
X28400000Y8471200D02*
G75*
G03*
X29100000Y9171200I1J699999D01*
G01*
X8428700Y33216740D02*
X8428700Y34276400D01*
X6371300Y32933261D02*
X6371300Y32266739D01*
X6371300Y30923600D02*
X8428700Y30923600D01*
X8428700Y34276400D02*
X6371300Y34276400D01*
X8428700Y30923600D02*
X8428700Y31983260D01*
X6327000Y34100000D02*
G75*
G03*
X6327000Y34100000I-127000J0D01*
G01*
X4850000Y30305000D02*
X4850000Y25105000D01*
X12530000Y27705000D02*
X15130000Y27705000D01*
X15130000Y27705000D02*
X15130000Y25105000D01*
X12530000Y30305000D02*
X4850000Y30305000D01*
X12530000Y30305000D02*
X12530000Y27705000D01*
X15130000Y25105000D02*
X4850000Y25105000D01*
X13800000Y30305000D02*
X15130000Y30305000D01*
X15130000Y30305000D02*
X15130000Y28975000D01*
X24950000Y11671200D02*
X24950000Y12271200D01*
X27050000Y10971200D02*
X25650000Y10971200D01*
X25650000Y12971200D02*
X27050000Y12971200D01*
X27750000Y12271200D02*
X27750000Y11671200D01*
X27050000Y10971200D02*
G75*
G03*
X27750000Y11671200I1J699999D01*
G01*
X24950000Y11671200D02*
G75*
G03*
X25650000Y10971200I699999J-1D01*
G01*
X27750000Y12271200D02*
G75*
G03*
X27050000Y12971200I-699999J1D01*
G01*
X25650000Y12971200D02*
G75*
G03*
X24950000Y12271200I-1J-699999D01*
G01*
X15250000Y8471200D02*
X12450000Y8471200D01*
X11800000Y9171200D02*
X11800000Y9771200D01*
X12450000Y10471200D02*
X15250000Y10471200D01*
X15900000Y9771200D02*
X15900000Y9171200D01*
X15900000Y9771200D02*
G75*
G03*
X15200000Y10471200I-699999J1D01*
G01*
X15200000Y8471200D02*
G75*
G03*
X15900000Y9171200I1J699999D01*
G01*
X12500000Y10471200D02*
G75*
G03*
X11800000Y9771200I-1J-699999D01*
G01*
X11800000Y9171200D02*
G75*
G03*
X12500000Y8471200I699999J-1D01*
G01*
X20874840Y18794800D02*
X21316400Y18794800D01*
X17963600Y18794800D02*
X18405160Y18794800D01*
X21316400Y22147600D02*
X20874840Y22147600D01*
X18405160Y22147600D02*
X17963600Y22147600D01*
X18940000Y10471200D02*
X21740000Y10471200D01*
X21740000Y8471200D02*
X18940000Y8471200D01*
X18290000Y9171200D02*
X18290000Y9771200D01*
X22390000Y9771200D02*
X22390000Y9171200D01*
X18990000Y10471200D02*
G75*
G03*
X18290000Y9771200I-1J-699999D01*
G01*
X22390000Y9771200D02*
G75*
G03*
X21690000Y10471200I-699999J1D01*
G01*
X18290000Y9171200D02*
G75*
G03*
X18990000Y8471200I699999J-1D01*
G01*
X21690000Y8471200D02*
G75*
G03*
X22390000Y9171200I1J699999D01*
G01*
X20999420Y27081200D02*
X21280580Y27081200D01*
X20999420Y26061200D02*
X21280580Y26061200D01*
X39490000Y7340580D02*
X39490000Y7059420D01*
X40510000Y7340580D02*
X40510000Y7059420D01*
X33540580Y16710000D02*
X33259420Y16710000D01*
X33540580Y15690000D02*
X33259420Y15690000D01*
X35160000Y13300000D02*
X35160000Y12500000D01*
X35160000Y13300000D02*
X35160000Y14100000D01*
X32040000Y13300000D02*
X32040000Y11500000D01*
X32040000Y13300000D02*
X32040000Y14100000D01*
X1900000Y570000D02*
X570000Y570000D01*
X570000Y570000D02*
X570000Y1900000D01*
X46410000Y570000D02*
X46410000Y3230000D01*
X3170000Y3230000D02*
X46410000Y3230000D01*
X3170000Y570000D02*
X3170000Y3230000D01*
X3170000Y570000D02*
X46410000Y570000D01*
X20340000Y10971200D02*
X18940000Y10971200D01*
X18940000Y12971200D02*
X20340000Y12971200D01*
X18240000Y11671200D02*
X18240000Y12271200D01*
X21040000Y12271200D02*
X21040000Y11671200D01*
X21040000Y12271200D02*
G75*
G03*
X20340000Y12971200I-699999J1D01*
G01*
X20340000Y10971200D02*
G75*
G03*
X21040000Y11671200I1J699999D01*
G01*
X18240000Y11671200D02*
G75*
G03*
X18940000Y10971200I699999J-1D01*
G01*
X18940000Y12971200D02*
G75*
G03*
X18240000Y12271200I-1J-699999D01*
G01*
X20999420Y30081200D02*
X21280580Y30081200D01*
X20999420Y29061200D02*
X21280580Y29061200D01*
X5010000Y32740580D02*
X5010000Y32459420D01*
X3990000Y32740580D02*
X3990000Y32459420D01*
X14790000Y19540580D02*
X14790000Y19259420D01*
X15810000Y19540580D02*
X15810000Y19259420D01*
X9790000Y33340580D02*
X9790000Y33059420D01*
X10810000Y33340580D02*
X10810000Y33059420D01*
X26650000Y21130620D02*
X26650000Y21411780D01*
X25630000Y21130620D02*
X25630000Y21411780D01*
X24040580Y18810000D02*
X23759420Y18810000D01*
X24040580Y17790000D02*
X23759420Y17790000D01*
X22777258Y14848700D02*
X22302742Y14848700D01*
X22777258Y15893700D02*
X22302742Y15893700D01*
X12000000Y17500000D02*
X13400000Y17500000D01*
X13400000Y15500000D02*
X12000000Y15500000D01*
X14100000Y16800000D02*
X14100000Y16200000D01*
X11300000Y16200000D02*
X11300000Y16800000D01*
X14100000Y16800000D02*
G75*
G03*
X13400000Y17500000I-699999J1D01*
G01*
X12000000Y17500000D02*
G75*
G03*
X11300000Y16800000I-1J-699999D01*
G01*
X11300000Y16200000D02*
G75*
G03*
X12000000Y15500000I699999J-1D01*
G01*
X13400000Y15500000D02*
G75*
G03*
X14100000Y16200000I1J699999D01*
G01*
X33540580Y9990000D02*
X33259420Y9990000D01*
X33540580Y11010000D02*
X33259420Y11010000D01*
X20999420Y25581200D02*
X21280580Y25581200D01*
X20999420Y24561200D02*
X21280580Y24561200D01*
X21135000Y33501200D02*
X23735000Y33501200D01*
X21135000Y30841200D02*
X23735000Y30841200D01*
X18535000Y30841200D02*
X18535000Y32171200D01*
X19865000Y30841200D02*
X18535000Y30841200D01*
X21135000Y30841200D02*
X21135000Y33501200D01*
X23735000Y30841200D02*
X23735000Y33501200D01*
X12450000Y12971200D02*
X13850000Y12971200D01*
X13850000Y10971200D02*
X12450000Y10971200D01*
X14550000Y12271200D02*
X14550000Y11671200D01*
X11750000Y11671200D02*
X11750000Y12271200D01*
X11750000Y11671200D02*
G75*
G03*
X12450000Y10971200I699999J-1D01*
G01*
X13850000Y10971200D02*
G75*
G03*
X14550000Y11671200I1J699999D01*
G01*
X14550000Y12271200D02*
G75*
G03*
X13850000Y12971200I-699999J1D01*
G01*
X12450000Y12971200D02*
G75*
G03*
X11750000Y12271200I-1J-699999D01*
G01*
M02*
