G04 #@! TF.GenerationSoftware,KiCad,Pcbnew,(6.0.0-rc1-63-g802cfc1a7d)*
G04 #@! TF.CreationDate,2022-01-16T14:43:54+09:00*
G04 #@! TF.ProjectId,BrushlessMotorDriver_DRV8311,42727573-686c-4657-9373-4d6f746f7244,rev?*
G04 #@! TF.SameCoordinates,PX7270e00PY8b3c880*
G04 #@! TF.FileFunction,Soldermask,Top*
G04 #@! TF.FilePolarity,Negative*
%FSLAX46Y46*%
G04 Gerber Fmt 4.6, Leading zero omitted, Abs format (unit mm)*
G04 Created by KiCad (PCBNEW (6.0.0-rc1-63-g802cfc1a7d)) date 2022-01-16 14:43:54*
%MOMM*%
%LPD*%
G01*
G04 APERTURE LIST*
G04 Aperture macros list*
%AMRoundRect*
0 Rectangle with rounded corners*
0 $1 Rounding radius*
0 $2 $3 $4 $5 $6 $7 $8 $9 X,Y pos of 4 corners*
0 Add a 4 corners polygon primitive as box body*
4,1,4,$2,$3,$4,$5,$6,$7,$8,$9,$2,$3,0*
0 Add four circle primitives for the rounded corners*
1,1,$1+$1,$2,$3*
1,1,$1+$1,$4,$5*
1,1,$1+$1,$6,$7*
1,1,$1+$1,$8,$9*
0 Add four rect primitives between the rounded corners*
20,1,$1+$1,$2,$3,$4,$5,0*
20,1,$1+$1,$4,$5,$6,$7,0*
20,1,$1+$1,$6,$7,$8,$9,0*
20,1,$1+$1,$8,$9,$2,$3,0*%
%AMFreePoly0*
4,1,22,0.500000,-0.750000,0.000000,-0.750000,0.000000,-0.745033,-0.079941,-0.743568,-0.215256,-0.701293,-0.333266,-0.622738,-0.424486,-0.514219,-0.481581,-0.384460,-0.499164,-0.250000,-0.500000,-0.250000,-0.500000,0.250000,-0.499164,0.250000,-0.499963,0.256109,-0.478152,0.396186,-0.417904,0.524511,-0.324060,0.630769,-0.204165,0.706417,-0.067858,0.745374,0.000000,0.744959,0.000000,0.750000,
0.500000,0.750000,0.500000,-0.750000,0.500000,-0.750000,$1*%
%AMFreePoly1*
4,1,20,0.000000,0.744959,0.073905,0.744508,0.209726,0.703889,0.328688,0.626782,0.421226,0.519385,0.479903,0.390333,0.500000,0.250000,0.500000,-0.250000,0.499851,-0.262216,0.476331,-0.402017,0.414519,-0.529596,0.319384,-0.634700,0.198574,-0.708877,0.061801,-0.746166,0.000000,-0.745033,0.000000,-0.750000,-0.500000,-0.750000,-0.500000,0.750000,0.000000,0.750000,0.000000,0.744959,
0.000000,0.744959,$1*%
%AMFreePoly2*
4,1,22,0.550000,-0.750000,0.000000,-0.750000,0.000000,-0.745033,-0.079941,-0.743568,-0.215256,-0.701293,-0.333266,-0.622738,-0.424486,-0.514219,-0.481581,-0.384460,-0.499164,-0.250000,-0.500000,-0.250000,-0.500000,0.250000,-0.499164,0.250000,-0.499963,0.256109,-0.478152,0.396186,-0.417904,0.524511,-0.324060,0.630769,-0.204165,0.706417,-0.067858,0.745374,0.000000,0.744959,0.000000,0.750000,
0.550000,0.750000,0.550000,-0.750000,0.550000,-0.750000,$1*%
%AMFreePoly3*
4,1,20,0.000000,0.744959,0.073905,0.744508,0.209726,0.703889,0.328688,0.626782,0.421226,0.519385,0.479903,0.390333,0.500000,0.250000,0.500000,-0.250000,0.499851,-0.262216,0.476331,-0.402017,0.414519,-0.529596,0.319384,-0.634700,0.198574,-0.708877,0.061801,-0.746166,0.000000,-0.745033,0.000000,-0.750000,-0.550000,-0.750000,-0.550000,0.750000,0.000000,0.750000,0.000000,0.744959,
0.000000,0.744959,$1*%
G04 Aperture macros list end*
%ADD10R,0.680999X0.204000*%
%ADD11R,0.204000X0.680999*%
%ADD12R,1.955800X1.955800*%
%ADD13R,1.309599X0.568000*%
%ADD14RoundRect,0.150000X0.512500X0.150000X-0.512500X0.150000X-0.512500X-0.150000X0.512500X-0.150000X0*%
%ADD15RoundRect,0.200000X0.200000X0.275000X-0.200000X0.275000X-0.200000X-0.275000X0.200000X-0.275000X0*%
%ADD16FreePoly0,0.000000*%
%ADD17FreePoly1,0.000000*%
%ADD18FreePoly2,0.000000*%
%ADD19FreePoly3,0.000000*%
%ADD20R,1.000000X1.500000*%
%ADD21R,1.700000X1.700000*%
%ADD22O,1.700000X1.700000*%
%ADD23RoundRect,0.225000X-0.250000X0.225000X-0.250000X-0.225000X0.250000X-0.225000X0.250000X0.225000X0*%
%ADD24RoundRect,0.225000X0.250000X-0.225000X0.250000X0.225000X-0.250000X0.225000X-0.250000X-0.225000X0*%
%ADD25RoundRect,0.225000X0.225000X0.250000X-0.225000X0.250000X-0.225000X-0.250000X0.225000X-0.250000X0*%
%ADD26RoundRect,0.225000X-0.225000X-0.250000X0.225000X-0.250000X0.225000X0.250000X-0.225000X0.250000X0*%
%ADD27C,0.600000*%
%ADD28C,0.900000*%
G04 APERTURE END LIST*
D10*
X21148900Y19271050D03*
X21148900Y19671100D03*
X21148900Y20071150D03*
X21148900Y20471200D03*
X21148900Y20871250D03*
X21148900Y21271300D03*
X21148900Y21671350D03*
D11*
X20440100Y21980100D03*
X20040050Y21980100D03*
X19640000Y21980100D03*
X19239950Y21980100D03*
X18839900Y21980100D03*
D10*
X18131100Y21671350D03*
X18131100Y21271300D03*
X18131100Y20871250D03*
X18131100Y20471200D03*
X18131100Y20071150D03*
X18131100Y19671100D03*
X18131100Y19271050D03*
D11*
X18839900Y18962300D03*
X19239950Y18962300D03*
X19640000Y18962300D03*
X20040050Y18962300D03*
X20440100Y18962300D03*
D12*
X19640000Y20471200D03*
D13*
X6206200Y33550001D03*
X6206200Y31649999D03*
X8593800Y32600000D03*
D14*
X34040000Y13271200D03*
X34040000Y14221200D03*
X34040000Y15171200D03*
X31765000Y15171200D03*
X31765000Y13271200D03*
D15*
X14175000Y7471200D03*
X12525000Y7471200D03*
X20765000Y7471200D03*
X19115000Y7471200D03*
X27375000Y7471200D03*
X25725000Y7471200D03*
X23365000Y15371200D03*
X21715000Y15371200D03*
D16*
X12500000Y11971200D03*
D17*
X13800000Y11971200D03*
D16*
X18990000Y11971200D03*
D17*
X20290000Y11971200D03*
D16*
X25700000Y11971200D03*
D17*
X27000000Y11971200D03*
D18*
X12550000Y9471200D03*
D19*
X15150000Y9471200D03*
D20*
X13850000Y9471200D03*
D18*
X19040000Y9471200D03*
D19*
X21640000Y9471200D03*
D20*
X20340000Y9471200D03*
D18*
X25750000Y9471200D03*
D19*
X28350000Y9471200D03*
D20*
X27050000Y9471200D03*
D21*
X1900000Y1900000D03*
D22*
X4440000Y1900000D03*
X6980000Y1900000D03*
X9520000Y1900000D03*
X12060000Y1900000D03*
X14600000Y1900000D03*
X17140000Y1900000D03*
X19680000Y1900000D03*
X22220000Y1900000D03*
X24760000Y1900000D03*
X27300000Y1900000D03*
X29840000Y1900000D03*
X32380000Y1900000D03*
X34920000Y1900000D03*
X37460000Y1900000D03*
X40000000Y1900000D03*
X6180000Y26435000D03*
X6180000Y28975000D03*
X8720000Y26435000D03*
X8720000Y28975000D03*
X11260000Y26435000D03*
X11260000Y28975000D03*
X13800000Y26435000D03*
D21*
X13800000Y28975000D03*
D22*
X22405000Y32171200D03*
D21*
X19865000Y32171200D03*
D23*
X34900000Y5975000D03*
X34900000Y4425000D03*
X37500000Y5975000D03*
X37500000Y4425000D03*
X40000000Y5975000D03*
X40000000Y4425000D03*
X15700000Y20175000D03*
X15700000Y18625000D03*
D24*
X26140000Y20496200D03*
X26140000Y22046200D03*
X24640000Y20496200D03*
X24640000Y22046200D03*
D25*
X24675000Y18300000D03*
X23125000Y18300000D03*
D26*
X20365000Y29571200D03*
X21915000Y29571200D03*
X20365000Y28071200D03*
X21915000Y28071200D03*
X20365000Y26571200D03*
X21915000Y26571200D03*
X20365000Y25071200D03*
X21915000Y25071200D03*
D24*
X23140000Y21296200D03*
X23140000Y22846200D03*
D26*
X30127500Y16721200D03*
X31677500Y16721200D03*
D23*
X35702500Y14796200D03*
X35702500Y13246200D03*
X4500000Y33375000D03*
X4500000Y31825000D03*
X10300000Y33975000D03*
X10300000Y32425000D03*
X30002500Y14796200D03*
X30002500Y13246200D03*
D27*
X11400000Y34200000D03*
X3400000Y33900000D03*
X25400000Y18400000D03*
X34900000Y6800000D03*
X38100000Y6600000D03*
X40029354Y6800000D03*
X28100000Y7500000D03*
X21600000Y7500000D03*
X15000000Y7500000D03*
X12600000Y10800000D03*
X17900000Y12000000D03*
X24600000Y12000000D03*
X35700000Y15600000D03*
X29000000Y15000000D03*
X29100000Y16800000D03*
X27200000Y20500000D03*
D28*
X14000000Y22300000D03*
X13100000Y22300000D03*
X13100000Y23200000D03*
X13100000Y24100000D03*
X14000000Y23200000D03*
X14000000Y24100000D03*
D27*
X19000000Y19800000D03*
X20300000Y19800000D03*
X20300000Y21100000D03*
X19000000Y21100000D03*
X19600000Y20500000D03*
M02*
